SplineFontDB: 3.0
FontName: OxygenMono-Regular
FullName: Oxygen Mono
FamilyName: Oxygen Mono
Weight: Book
Copyright: Copyright (c) 2011-12 by vernon adams.
Version: 0.2
ItalicAngle: 0
UnderlinePosition: -119
UnderlineWidth: 119
Ascent: 1638
Descent: 410
sfntRevision: 0x00003333
LayerCount: 2
Layer: 0 1 "Back"  1
Layer: 1 1 "Fore"  0
XUID: [1021 846 39740748 4035881]
FSType: 0
OS2Version: 3
OS2_WeightWidthSlopeOnly: 0
OS2_UseTypoMetrics: 1
CreationTime: 1332539176
ModificationTime: 1335090634
PfmFamily: 17
TTFWeight: 400
TTFWidth: 5
LineGap: 0
VLineGap: 0
Panose: 2 0 5 9 3 0 0 9 0 4
OS2TypoAscent: 263
OS2TypoAOffset: 1
OS2TypoDescent: -73
OS2TypoDOffset: 1
OS2TypoLinegap: 0
OS2WinAscent: -203
OS2WinAOffset: 1
OS2WinDescent: -195
OS2WinDOffset: 1
HheadAscent: -203
HheadAOffset: 1
HheadDescent: 195
HheadDOffset: 1
OS2SubXSize: 1331
OS2SubYSize: 1228
OS2SubXOff: 0
OS2SubYOff: 153
OS2SupXSize: 1331
OS2SupYSize: 1228
OS2SupXOff: 0
OS2SupYOff: 716
OS2StrikeYSize: 119
OS2StrikeYPos: 658
OS2Vendor: 'newt'
OS2CodePages: 20000093.00000000
OS2UnicodeRanges: 8000002f.0000204a.00000000.00000000
MarkAttachClasses: 1
DEI: 91125
ShortTable: cvt  2
  68
  1297
EndShort
ShortTable: maxp 16
  1
  0
  361
  90
  7
  73
  4
  2
  0
  1
  1
  0
  64
  0
  2
  1
EndShort
LangName: 1033 "" "" "" "newtypography : Oxygen Mono" "" "Version 0.2" "" "Oxygen Mono is a trademark of vernon adams." "vernon adams" "vernon adams" "Copyright (c) 2011-12 by vernon adams. All rights reserved." "newtypography.co.uk" "newtypography.co.uk" "" "http://scripts.sil.org/OFL" "" "Oxygen Mono" "Regular" "Oxygen Mono" 
GaspTable: 1 65535 2 0
Encoding: UnicodeBmp
Compacted: 1
UnicodeInterp: none
NameList: Adobe Glyph List
DisplaySize: -48
AntiAlias: 1
FitToEm: 1
WinInfo: 0 23 11
BeginChars: 65538 361

StartChar: .notdef
Encoding: 65536 -1 0
Width: 748
Flags: W
LayerCount: 2
Fore
SplineSet
68 0 m 1,0,-1
 68 1365 l 1,1,-1
 612 1365 l 1,2,-1
 612 0 l 1,3,-1
 68 0 l 1,0,-1
136 68 m 1,4,-1
 544 68 l 1,5,-1
 544 1297 l 1,6,-1
 136 1297 l 1,7,-1
 136 68 l 1,4,-1
EndSplineSet
EndChar

StartChar: exclam
Encoding: 33 33 4
Width: 1229
Flags: W
LayerCount: 2
Fore
SplineSet
735 0 m 1,0,-1
 495 0 l 1,1,-1
 495 276 l 1,2,-1
 735 276 l 1,3,-1
 735 0 l 1,0,-1
584 489 m 1,4,-1
 495 1492 l 1,5,-1
 735 1492 l 1,6,-1
 646 489 l 1,7,-1
 584 489 l 1,4,-1
EndSplineSet
EndChar

StartChar: quotedbl
Encoding: 34 34 5
Width: 1229
Flags: W
LayerCount: 2
Fore
SplineSet
885 1568 m 1,0,-1
 834 1036 l 1,1,-1
 693 1036 l 1,2,-1
 654 1568 l 1,3,-1
 885 1568 l 1,0,-1
518 1568 m 1,4,-1
 467 1036 l 1,5,-1
 324 1036 l 1,6,-1
 285 1568 l 1,7,-1
 518 1568 l 1,4,-1
EndSplineSet
EndChar

StartChar: numbersign
Encoding: 35 35 6
Width: 1229
Flags: W
LayerCount: 2
Fore
SplineSet
592 997 m 1,0,-1
 509 573 l 1,1,-1
 727 573 l 1,2,-1
 811 997 l 1,3,-1
 592 997 l 1,0,-1
1155 997 m 1,4,-1
 971 997 l 1,5,-1
 886 573 l 1,6,-1
 1073 573 l 1,7,-1
 1058 437 l 1,8,-1
 863 437 l 1,9,-1
 772 -25 l 1,10,-1
 610 -25 l 1,11,-1
 698 437 l 1,12,-1
 483 437 l 1,13,-1
 393 -25 l 1,14,-1
 230 -25 l 1,15,-1
 324 437 l 1,16,-1
 108 437 l 1,17,-1
 121 573 l 1,18,-1
 350 573 l 1,19,-1
 430 996 l 1,20,-1
 205 996 l 1,21,-1
 219 1130 l 1,22,-1
 455 1130 l 1,23,-1
 541 1568 l 1,24,-1
 704 1568 l 1,25,-1
 619 1130 l 1,26,-1
 837 1130 l 1,27,-1
 921 1568 l 1,28,-1
 1083 1568 l 1,29,-1
 997 1130 l 1,30,-1
 1172 1130 l 1,31,-1
 1155 997 l 1,4,-1
EndSplineSet
EndChar

StartChar: dollar
Encoding: 36 36 7
Width: 1229
Flags: W
LayerCount: 2
Fore
SplineSet
573 1752 m 1,0,-1
 666 1752 l 1,1,-1
 666 1515 l 1,2,3
 874 1503 874 1503 997 1406 c 1,4,-1
 927 1262 l 1,5,6
 818 1347 818 1347 666 1361 c 1,7,-1
 666 850 l 1,8,9
 818.267 786.555 818.267 786.555 884.633 736.278 c 128,-1,10
 951 686 951 686 982 645 c 0,11,12
 1054 549.774 1054 549.774 1054 415 c 0,13,14
 1054 220 1054 220 951 109 c 128,-1,15
 848 -2 848 -2 666 -21 c 1,16,-1
 666 -218 l 1,17,-1
 573 -218 l 1,18,-1
 573 -25 l 1,19,20
 314 -21 314 -21 141 94 c 1,21,-1
 212 261 l 1,22,23
 363.152 137.919 363.152 137.919 573 130 c 1,24,-1
 573 687 l 1,25,26
 444.826 738.652 444.826 738.652 397.913 761.826 c 0,27,28
 279.042 820.546 279.042 820.546 214.521 904.423 c 128,-1,29
 150 988.3 150 988.3 150 1115.65 c 128,-1,30
 150 1243 150 1243 206 1331.5 c 0,31,32
 316.139 1505.56 316.139 1505.56 573 1516 c 1,33,-1
 573 1752 l 1,0,-1
573 886 m 1,34,-1
 573 1361 l 1,35,36
 472 1350 472 1350 414.5 1286.5 c 128,-1,37
 357 1223 357 1223 357 1126.35 c 128,-1,38
 357 1029.7 357 1029.7 420.456 975.856 c 128,-1,39
 483.911 922.015 483.911 922.015 573 886 c 1,34,-1
666 646 m 1,40,-1
 666 138 l 1,41,42
 752 159 752 159 797.5 229 c 128,-1,43
 843 299 843 299 843 395.5 c 128,-1,44
 843 492 843 492 796 548.5 c 128,-1,45
 749 605 749 605 666 646 c 1,40,-1
EndSplineSet
EndChar

StartChar: percent
Encoding: 37 37 8
Width: 1229
Flags: W
LayerCount: 2
Fore
SplineSet
414.5 1423.5 m 128,-1,1
 383 1457 383 1457 336 1457 c 0,2,3
 248.551 1457 248.551 1457 220.775 1390.91 c 128,-1,4
 193 1324.83 193 1324.83 193 1229.06 c 0,5,6
 193 1133.3 193 1133.3 219.052 1068.65 c 128,-1,7
 245.104 1004 245.104 1004 329 1004 c 0,8,9
 465 1004 465 1004 465 1232 c 0,10,11
 465 1298 465 1298 455.5 1344 c 128,-1,0
 446 1390 446 1390 414.5 1423.5 c 128,-1,1
1125 1018 m 1,12,-1
 201 465 l 1,13,-1
 140 567 l 1,14,-1
 1064 1124 l 1,15,-1
 1125 1018 l 1,12,-1
332 1571 m 0,16,17
 589 1571 589 1571 589 1230.5 c 0,18,19
 589 1073 589 1073 519.5 981.5 c 128,-1,20
 450 890 450 890 320.5 890 c 128,-1,21
 191 890 191 890 128.5 982 c 128,-1,22
 66 1074 66 1074 66 1228.5 c 128,-1,23
 66 1383 66 1383 131.5 1477 c 128,-1,24
 197 1571 197 1571 332 1571 c 0,16,17
906 662 m 0,25,26
 1163 662 1163 662 1163 321.5 c 0,27,28
 1163 164 1163 164 1093.5 72.5 c 128,-1,29
 1024 -19 1024 -19 894.5 -19 c 128,-1,30
 765 -19 765 -19 702.5 73 c 128,-1,31
 640 165 640 165 640 319.5 c 128,-1,32
 640 474 640 474 705.5 568 c 128,-1,33
 771 662 771 662 906 662 c 0,25,26
988.5 514.5 m 128,-1,35
 957 548 957 548 910 548 c 0,36,37
 822.551 548 822.551 548 794.775 481.914 c 128,-1,38
 767 415.828 767 415.828 767 320.062 c 0,39,40
 767 224.296 767 224.296 793.052 159.648 c 128,-1,41
 819 95 819 95 903 95 c 1,42,43
 1039 95 1039 95 1039 323 c 0,44,45
 1039 389 1039 389 1029.5 435 c 128,-1,34
 1020 481 1020 481 988.5 514.5 c 128,-1,35
EndSplineSet
EndChar

StartChar: ampersand
Encoding: 38 38 9
Width: 1229
Flags: W
LayerCount: 2
Fore
SplineSet
494 961 m 1,0,1
 689 1070.03 689 1070.03 689 1245.5 c 0,2,3
 689 1341 689 1341 644 1392.5 c 128,-1,4
 599 1444 599 1444 526 1444 c 128,-1,5
 453 1444 453 1444 401 1400 c 128,-1,6
 349 1356 349 1356 349 1289 c 0,7,8
 349 1158 349 1158 494 961 c 1,0,1
554 143 m 0,9,10
 632 143 632 143 690 173 c 128,-1,11
 748 203 748 203 804 259 c 1,12,-1
 449 746 l 1,13,14
 277 616 277 616 277 419 c 0,15,16
 277 288 277 288 350.5 215.5 c 128,-1,17
 424 143 424 143 554 143 c 0,9,10
1198 569 m 1,18,19
 1091.9 316.649 1091.9 316.649 1015 236 c 1,20,-1
 1138 76 l 1,21,-1
 1008 -24 l 1,22,-1
 905 121 l 1,23,24
 837 56 837 56 737.5 15.5 c 128,-1,25
 638 -25 638 -25 531 -25 c 0,26,27
 317 -25 317 -25 192.5 89 c 128,-1,28
 68 203 68 203 68 413 c 0,29,30
 68 696 68 696 346 881 c 1,31,32
 225.175 1016.93 225.175 1016.93 173 1166 c 0,33,34
 152 1226 152 1226 152 1275 c 0,35,36
 152 1428 152 1428 255.5 1511 c 128,-1,37
 359 1594 359 1594 518 1594 c 128,-1,38
 677 1594 677 1594 784 1509.5 c 128,-1,39
 891 1425 891 1425 891 1267.64 c 0,40,41
 891 1110.27 891 1110.27 795.586 1009.08 c 0,42,43
 700.173 907.88 700.173 907.88 574 838 c 1,44,-1
 913 374 l 1,45,46
 977.63 449.71 977.63 449.71 1039 627 c 1,47,-1
 1198 569 l 1,18,19
EndSplineSet
EndChar

StartChar: quotesingle
Encoding: 39 39 10
Width: 1229
Flags: W
LayerCount: 2
Fore
SplineSet
558 969 m 1,0,-1
 496 1580 l 1,1,-1
 755 1580 l 1,2,-1
 700 969 l 1,3,-1
 558 969 l 1,0,-1
EndSplineSet
EndChar

StartChar: parenleft
Encoding: 40 40 11
Width: 1229
Flags: W
LayerCount: 2
Fore
SplineSet
688 -152 m 1,0,1
 383 255 383 255 383 771.5 c 128,-1,2
 383 1288 383 1288 685 1705 c 1,3,-1
 861 1705 l 1,4,5
 577 1257 577 1257 577 781 c 0,6,7
 577 514 577 514 651.5 290 c 128,-1,8
 726 66 726 66 863 -152 c 1,9,-1
 688 -152 l 1,0,1
EndSplineSet
EndChar

StartChar: parenright
Encoding: 41 41 12
Width: 1229
Flags: W
LayerCount: 2
Fore
SplineSet
513 1705 m 1,0,1
 815 1288 815 1288 815 771.5 c 128,-1,2
 815 255 815 255 510 -152 c 1,3,-1
 334 -152 l 1,4,5
 471 66 471 66 545.5 290 c 128,-1,6
 620 514 620 514 620 781 c 0,7,8
 620 1257 620 1257 336 1705 c 1,9,-1
 513 1705 l 1,0,1
EndSplineSet
EndChar

StartChar: asterisk
Encoding: 42 42 13
Width: 1229
Flags: W
LayerCount: 2
Fore
SplineSet
1046 374 m 1,0,-1
 866 270 l 1,1,-1
 612 673 l 1,2,-1
 363 270 l 1,3,-1
 181 374 l 1,4,-1
 499 752 l 1,5,-1
 56 899 l 1,6,-1
 148 1079 l 1,7,-1
 550 866 l 1,8,-1
 515 1330 l 1,9,-1
 711 1330 l 1,10,-1
 681 866 l 1,11,-1
 1080 1079 l 1,12,-1
 1173 899 l 1,13,-1
 728 752 l 1,14,-1
 1046 374 l 1,0,-1
EndSplineSet
EndChar

StartChar: plus
Encoding: 43 43 14
Width: 1229
Flags: W
LayerCount: 2
Fore
SplineSet
652 1286 m 1,0,-1
 814 1286 l 1,1,-1
 814 827 l 1,2,-1
 1311 827 l 1,3,-1
 1311 676 l 1,4,-1
 813 676 l 1,5,-1
 813 217 l 1,6,-1
 648 217 l 1,7,-1
 648 676 l 1,8,-1
 152 676 l 1,9,-1
 152 827 l 1,10,-1
 652 827 l 1,11,-1
 652 1286 l 1,0,-1
EndSplineSet
EndChar

StartChar: comma
Encoding: 44 44 15
Width: 1229
Flags: W
LayerCount: 2
Fore
SplineSet
440 -321 m 1,0,-1
 491 286 l 1,1,-1
 748 286 l 1,2,-1
 562 -321 l 1,3,-1
 440 -321 l 1,0,-1
EndSplineSet
EndChar

StartChar: hyphen
Encoding: 45 45 16
Width: 1229
Flags: W
LayerCount: 2
Fore
SplineSet
993 827 m 1,0,-1
 993 672 l 1,1,-1
 323 672 l 1,2,-1
 323 827 l 1,3,-1
 993 827 l 1,0,-1
EndSplineSet
EndChar

StartChar: period
Encoding: 46 46 17
Width: 1229
Flags: W
LayerCount: 2
Fore
SplineSet
764 0 m 1,0,-1
 463 0 l 1,1,-1
 463 301 l 1,2,-1
 764 301 l 1,3,-1
 764 0 l 1,0,-1
EndSplineSet
EndChar

StartChar: slash
Encoding: 47 47 18
Width: 1229
Flags: W
LayerCount: 2
Fore
SplineSet
887 1585 m 1,0,-1
 1084 1585 l 1,1,-1
 375 -224 l 1,2,-1
 184 -224 l 1,3,-1
 887 1585 l 1,0,-1
EndSplineSet
EndChar

StartChar: zero
Encoding: 48 48 19
Width: 1229
Flags: W
LayerCount: 2
Fore
SplineSet
841 1170 m 1,0,-1
 487 176 l 1,1,2
 542 130 542 130 625.5 130 c 128,-1,3
 709 130 709 130 777 213 c 0,4,5
 909 374.118 909 374.118 909 746 c 0,6,7
 909 1004 909 1004 841 1170 c 1,0,-1
614 -25 m 128,-1,9
 491 -25 491 -25 395 37.5 c 128,-1,10
 299 100 299 100 240.5 208 c 0,11,12
 123 424.923 123 424.923 123 747 c 0,13,14
 123 1144.69 123 1144.69 280 1354.5 c 0,15,16
 335 1428 335 1428 420.5 1472 c 128,-1,17
 506 1516 506 1516 614 1516 c 128,-1,18
 722 1516 722 1516 807.5 1472 c 0,19,20
 963.544 1391.7 963.544 1391.7 1034.27 1193.27 c 128,-1,21
 1105 994.833 1105 994.833 1105 747 c 0,22,23
 1105 424.923 1105 424.923 987.5 208 c 0,24,25
 929 100 929 100 833 37.5 c 128,-1,8
 737 -25 737 -25 614 -25 c 128,-1,9
749 1310 m 1,26,27
 690 1363 690 1363 604.5 1363 c 128,-1,28
 519 1363 519 1363 451 1279.5 c 0,29,30
 319 1117.41 319 1117.41 319 746 c 0,31,32
 319 479 319 479 391 313 c 1,33,-1
 749 1310 l 1,26,27
EndSplineSet
EndChar

StartChar: one
Encoding: 49 49 20
Width: 1229
Flags: W
LayerCount: 2
Fore
SplineSet
237 1287 m 1,0,1
 373.727 1342.55 373.727 1342.55 573 1492 c 1,2,-1
 761 1492 l 1,3,-1
 761 146 l 1,4,-1
 1075 146 l 1,5,-1
 1075 0 l 1,6,-1
 238 0 l 1,7,-1
 238 146 l 1,8,-1
 574 146 l 1,9,-1
 574 1290 l 1,10,11
 546 1274 546 1274 434.058 1206.37 c 0,12,13
 322.117 1138.74 322.117 1138.74 237 1106 c 1,14,-1
 237 1287 l 1,0,1
EndSplineSet
EndChar

StartChar: two
Encoding: 50 50 21
Width: 1229
Flags: W
LayerCount: 2
Fore
SplineSet
186 1395 m 1,0,1
 265 1457 265 1457 350 1486.5 c 128,-1,2
 435 1516 435 1516 556 1516 c 0,3,4
 772 1516 772 1516 890.5 1399 c 128,-1,5
 1009 1282 1009 1282 1009 1088 c 0,6,7
 1009 946.538 1009 946.538 944.679 830.266 c 0,8,9
 880.358 713.993 880.358 713.993 831.679 654.496 c 128,-1,10
 783 595 783 595 746 552 c 2,11,-1
 402 146 l 1,12,-1
 1043 146 l 1,13,-1
 1043 0 l 1,14,-1
 196 0 l 1,15,-1
 196 191 l 1,16,-1
 634 723 l 2,17,18
 760.077 877.095 760.077 877.095 790.5 982 c 0,19,20
 805 1032 805 1032 805 1083 c 0,21,22
 805 1207 805 1207 741.5 1274 c 128,-1,23
 678 1341 678 1341 568 1341 c 128,-1,24
 458 1341 458 1341 392.5 1315.5 c 128,-1,25
 327 1290 327 1290 255 1239 c 1,26,-1
 186 1395 l 1,0,1
EndSplineSet
EndChar

StartChar: three
Encoding: 51 51 22
Width: 1229
Flags: W
LayerCount: 2
Fore
SplineSet
379.5 192.5 m 128,-1,1
 476 157 476 157 600 157 c 128,-1,2
 724 157 724 157 809.5 228 c 128,-1,3
 895 299 895 299 895 432 c 0,4,5
 895 639.865 895 639.865 637.5 691 c 0,6,7
 567 705 567 705 483 705 c 2,8,-1
 373 705 l 1,9,-1
 373 883 l 1,10,-1
 483 885 l 1,11,12
 749.315 888.288 749.315 888.288 816.5 1008 c 0,13,14
 844 1057 844 1057 844 1128 c 0,15,16
 844 1234 844 1234 773.5 1291.5 c 128,-1,17
 703 1349 703 1349 573 1349 c 0,18,19
 376 1349 376 1349 232 1221 c 1,20,-1
 163 1382 l 1,21,22
 321 1516 321 1516 597 1516 c 0,23,24
 803 1516 803 1516 934 1415 c 128,-1,25
 1065 1314 1065 1314 1065 1154.04 c 0,26,27
 1065 994.074 1065 994.074 969.497 914.656 c 0,28,29
 873.994 835.237 873.994 835.237 739 803 c 1,30,31
 890.435 776.397 890.435 776.397 1005.22 681.261 c 0,32,33
 1120 586.126 1120 586.126 1120 413 c 0,34,35
 1120 158.014 1120 158.014 893 51 c 0,36,37
 759.364 -12 759.364 -12 567 -12 c 0,38,39
 328.411 -12 328.411 -12 161 113 c 1,40,-1
 231 273 l 1,41,0
 283 228 283 228 379.5 192.5 c 128,-1,1
EndSplineSet
EndChar

StartChar: four
Encoding: 52 52 23
Width: 1229
Flags: W
LayerCount: 2
Fore
SplineSet
710 1282 m 1,0,-1
 250 538 l 1,1,-1
 710 538 l 1,2,-1
 710 1282 l 1,0,-1
897 0 m 1,3,-1
 710 0 l 1,4,-1
 710 398 l 1,5,-1
 61 398 l 1,6,-1
 61 541 l 1,7,-1
 667 1492 l 1,8,-1
 897 1492 l 1,9,-1
 897 538 l 1,10,-1
 1139 538 l 1,11,-1
 1139 398 l 1,12,-1
 897 398 l 1,13,-1
 897 0 l 1,3,-1
EndSplineSet
EndChar

StartChar: five
Encoding: 53 53 24
Width: 1229
Flags: W
LayerCount: 2
Fore
SplineSet
842.5 716.5 m 128,-1,1
 776 809 776 809 660 809 c 128,-1,2
 544 809 544 809 474 699 c 1,3,-1
 264 699 l 1,4,-1
 264 1492 l 1,5,-1
 987 1492 l 1,6,-1
 987 1346 l 1,7,-1
 452 1346 l 1,8,-1
 452 880 l 1,9,10
 510.118 938.118 510.118 938.118 604 965.5 c 0,11,12
 640 976 640 976 674 976 c 0,13,14
 779 976 779 976 864 935.5 c 128,-1,15
 949 895 949 895 1001.5 826.5 c 0,16,17
 1110 684.933 1110 684.933 1110 508.621 c 0,18,19
 1110 332.308 1110 332.308 1029.8 196.59 c 0,20,21
 949.606 60.8719 949.606 60.8719 804 6.5 c 0,22,23
 725 -23 725 -23 603.5 -23 c 0,24,25
 362 -23 362 -23 168 121 c 1,26,-1
 242 275 l 1,27,28
 422 130 422 130 615 130 c 0,29,30
 708 130 708 130 776.5 184.5 c 0,31,32
 909 289.92 909 289.92 909 494 c 0,33,0
 909 624 909 624 842.5 716.5 c 128,-1,1
EndSplineSet
EndChar

StartChar: six
Encoding: 54 54 25
Width: 1229
Flags: W
LayerCount: 2
Fore
SplineSet
430.5 216.5 m 128,-1,1
 509 129 509 129 637 129 c 128,-1,2
 765 129 765 129 843.5 219 c 128,-1,3
 922 309 922 309 922 444.5 c 128,-1,4
 922 580 922 580 848.5 672.5 c 128,-1,5
 775 765 775 765 641.5 765 c 128,-1,6
 508 765 508 765 430 671.5 c 128,-1,7
 352 578 352 578 352 441 c 128,-1,0
 352 304 352 304 430.5 216.5 c 128,-1,1
474 852 m 1,8,9
 568.4 911 568.4 911 690 911 c 0,10,11
 883 911 883 911 998.5 780.5 c 128,-1,12
 1114 650 1114 650 1114 449 c 0,13,14
 1114 340 1114 340 1074.5 249 c 128,-1,15
 1035 158 1035 158 969 98.5 c 0,16,17
 830.899 -26 830.899 -26 620.95 -26 c 129,-1,18
 411 -26 411 -26 282.5 107.5 c 128,-1,19
 154 241 154 241 154 490.007 c 0,20,21
 154 739.013 154 739.013 318 938 c 2,22,-1
 772 1492 l 1,23,-1
 1014 1492 l 1,24,-1
 474 852 l 1,8,9
EndSplineSet
EndChar

StartChar: seven
Encoding: 55 55 26
Width: 1229
Flags: W
LayerCount: 2
Fore
SplineSet
143 1323 m 1,0,-1
 143 1492 l 1,1,-1
 1028 1492 l 1,2,-1
 1028 1347 l 1,3,-1
 604 0 l 1,4,-1
 372 0 l 1,5,-1
 790 1323 l 1,6,-1
 143 1323 l 1,0,-1
EndSplineSet
EndChar

StartChar: eight
Encoding: 56 56 27
Width: 1229
Flags: W
LayerCount: 2
Fore
SplineSet
626 874 m 1,0,1
 849 935.009 849 935.009 849 1139.5 c 0,2,3
 849 1247 849 1247 786.5 1305 c 128,-1,4
 724 1363 724 1363 626.5 1363 c 128,-1,5
 529 1363 529 1363 466.5 1304.5 c 128,-1,6
 404 1246 404 1246 404 1139 c 0,7,8
 404 934.736 404 934.736 626 874 c 1,0,1
1070 406 m 0,9,10
 1070 202 1070 202 951.5 89 c 128,-1,11
 833 -24 833 -24 626 -24 c 128,-1,12
 419 -24 419 -24 300 89 c 128,-1,13
 181 202 181 202 181 406 c 0,14,15
 181 504 181 504 226.5 582.5 c 0,16,17
 307.235 721.789 307.235 721.789 491 778 c 1,18,19
 211 876 211 876 211 1142 c 0,20,21
 211 1316 211 1316 328 1416 c 128,-1,22
 445 1516 445 1516 626 1516 c 128,-1,23
 807 1516 807 1516 924.5 1416 c 128,-1,24
 1042 1316 1042 1316 1042 1142 c 0,25,26
 1042 876 1042 876 762 778 c 1,27,28
 891.413 738.971 891.413 738.971 980.706 646.633 c 0,29,30
 1070 554.295 1070 554.295 1070 406 c 0,9,10
396 378 m 0,31,32
 396 261 396 261 455.5 195.5 c 128,-1,33
 515 130 515 130 626 130 c 128,-1,34
 737 130 737 130 797 195.5 c 128,-1,35
 857 261 857 261 857 378 c 0,36,37
 857 609 857 609 626 678 c 1,38,39
 396 608 396 608 396 378 c 0,31,32
EndSplineSet
EndChar

StartChar: nine
Encoding: 57 57 28
Width: 1229
Flags: W
LayerCount: 2
Fore
SplineSet
875.5 837.5 m 128,-1,1
 953 925 953 925 953 1060.5 c 128,-1,2
 953 1196 953 1196 875 1279.5 c 128,-1,3
 797 1363 797 1363 669 1363 c 128,-1,4
 541 1363 541 1363 462 1276.5 c 128,-1,5
 383 1190 383 1190 383 1056 c 128,-1,6
 383 922 383 922 456 836 c 128,-1,7
 529 750 529 750 663.5 750 c 128,-1,0
 798 750 798 750 875.5 837.5 c 128,-1,1
831 669 m 1,8,9
 736.6 610 736.6 610 615 610 c 0,10,11
 421 610 421 610 307 731.5 c 128,-1,12
 193 853 193 853 193 1052 c 0,13,14
 193 1196 193 1196 260.5 1304 c 128,-1,15
 328 1412 328 1412 434 1464.5 c 128,-1,16
 540 1517 540 1517 665 1517 c 0,17,18
 895 1517 895 1517 1024 1387.5 c 128,-1,19
 1153 1258 1153 1258 1153 1026 c 128,-1,20
 1153 794 1153 794 989 583 c 2,21,-1
 539 0 l 1,22,-1
 297 0 l 1,23,-1
 831 669 l 1,8,9
EndSplineSet
EndChar

StartChar: colon
Encoding: 58 58 29
Width: 1229
Flags: W
LayerCount: 2
Fore
SplineSet
788 144 m 1,0,-1
 487 144 l 1,1,-1
 487 445 l 1,2,-1
 788 445 l 1,3,-1
 788 144 l 1,0,-1
788 830 m 1,4,-1
 487 830 l 1,5,-1
 487 1130 l 1,6,-1
 788 1130 l 1,7,-1
 788 830 l 1,4,-1
EndSplineSet
EndChar

StartChar: semicolon
Encoding: 59 59 30
Width: 1229
Flags: W
LayerCount: 2
Fore
SplineSet
778 838 m 1,0,-1
 479 838 l 1,1,-1
 479 1139 l 1,2,-1
 778 1139 l 1,3,-1
 778 838 l 1,0,-1
410 -313 m 1,4,-1
 486 286 l 1,5,-1
 758 286 l 1,6,-1
 590 -313 l 1,7,-1
 410 -313 l 1,4,-1
EndSplineSet
EndChar

StartChar: less
Encoding: 60 60 31
Width: 1229
Flags: W
LayerCount: 2
Fore
SplineSet
1174 367 m 1,0,-1
 1174 190 l 1,1,-1
 152 689 l 1,2,-1
 152 807 l 1,3,-1
 1178 1321 l 1,4,-1
 1178 1142 l 1,5,-1
 395 749 l 1,6,-1
 1174 367 l 1,0,-1
EndSplineSet
EndChar

StartChar: equal
Encoding: 61 61 32
Width: 1229
Flags: W
LayerCount: 2
Fore
SplineSet
1195 457 m 1,0,-1
 35 457 l 1,1,-1
 35 605 l 1,2,-1
 1195 605 l 1,3,-1
 1195 457 l 1,0,-1
1194 898 m 1,4,-1
 34 898 l 1,5,-1
 34 1048 l 1,6,-1
 1194 1048 l 1,7,-1
 1194 898 l 1,4,-1
EndSplineSet
EndChar

StartChar: greater
Encoding: 62 62 33
Width: 1229
Flags: W
LayerCount: 2
Fore
SplineSet
158 1155 m 1,0,-1
 158 1321 l 1,1,-1
 1178 794 l 1,2,-1
 1178 699 l 1,3,-1
 152 213 l 1,4,-1
 152 380 l 1,5,-1
 933 753 l 1,6,-1
 158 1155 l 1,0,-1
EndSplineSet
EndChar

StartChar: question
Encoding: 63 63 34
Width: 1229
Flags: W
LayerCount: 2
Fore
SplineSet
328 -12 m 1,0,-1
 328 216 l 1,1,-1
 570 216 l 1,2,-1
 570 -12 l 1,3,-1
 328 -12 l 1,0,-1
425.5 1606 m 0,4,5
 835.93 1606 835.93 1606 932 1376.5 c 0,6,7
 959 1312 959 1312 959 1240.5 c 128,-1,8
 959 1169 959 1169 935 1111 c 128,-1,9
 911 1053 911 1053 872.5 1006.5 c 128,-1,10
 834 960 834 960 787.5 916 c 128,-1,11
 741 872 741 872 694.5 830 c 128,-1,12
 648 788 648 788 609.5 746 c 0,13,14
 523 651.636 523 651.636 523 556 c 0,15,16
 523 499 523 499 542 400 c 1,17,-1
 360 400 l 1,18,19
 349 486 349 486 349 569 c 1,20,-1
 348 570 l 1,21,22
 348 693.026 348 693.026 428 782.5 c 0,23,24
 480.301 840.995 480.301 840.995 558.651 903.997 c 128,-1,25
 637 967 637 967 676 1006.5 c 0,26,27
 773 1104.74 773 1104.74 773 1222 c 0,28,29
 773 1393.48 773 1393.48 569.5 1438.5 c 0,30,31
 513 1451 513 1451 447 1451 c 0,32,33
 305 1451 305 1451 168 1377 c 1,34,-1
 168 1535 l 1,35,36
 318 1606 318 1606 425.5 1606 c 0,4,5
EndSplineSet
EndChar

StartChar: at
Encoding: 64 64 35
Width: 1229
Flags: W
LayerCount: 2
Fore
SplineSet
789.5 937.5 m 0,0,1
 761.103 1029 761.103 1029 679 1029 c 0,2,3
 575.522 1029 575.522 1029 521.5 840.615 c 0,4,5
 493 741.231 493 741.231 493 620 c 0,6,7
 493 394 493 394 628 394 c 0,8,9
 721.124 394 721.124 394 781 555.095 c 0,10,11
 813 641.19 813 641.19 813 751.484 c 128,-1,12
 813 861.778 813 861.778 789.5 937.5 c 0,0,1
669 1130 m 0,13,14
 779.91 1130 779.91 1130 842 970 c 1,15,-1
 863 1097 l 1,16,-1
 978 1097 l 2,17,18
 977 1097 977 1097 949 902 c 128,-1,19
 921 707 921 707 921 523 c 0,20,21
 921 476 921 476 942.5 431 c 128,-1,22
 964 386 964 386 999 386 c 0,23,24
 1048 386 1048 386 1083 492 c 0,25,26
 1143 673.714 1143 673.714 1143 864.357 c 128,-1,27
 1143 1055 1143 1055 1095.5 1175 c 128,-1,28
 1048 1295 1048 1295 951.5 1367.5 c 128,-1,29
 855 1440 855 1440 723 1440 c 128,-1,30
 591 1440 591 1440 487.5 1375.5 c 128,-1,31
 384 1311 384 1311 320.5 1199 c 0,32,33
 193 974.118 193 974.118 193 641 c 0,34,35
 193 256.009 193 256.009 419 87 c 0,36,37
 534 1 534 1 692 1 c 0,38,39
 918 1 918 1 1115 173 c 1,40,-1
 1163 117 l 1,41,42
 951 -88 951 -88 681 -88 c 0,43,44
 557 -88 557 -88 454.5 -44 c 0,45,46
 270.311 35.0664 270.311 35.0664 169 242 c 0,47,48
 80 423.787 80 423.787 80 627.394 c 128,-1,49
 80 831 80 831 129 994.5 c 128,-1,50
 178 1158 178 1158 262 1272 c 128,-1,51
 346 1386 346 1386 461.5 1451 c 128,-1,52
 577 1516 577 1516 696 1516 c 128,-1,53
 815 1516 815 1516 904 1484 c 128,-1,54
 993 1452 993 1452 1054.5 1396 c 128,-1,55
 1116 1340 1116 1340 1157.5 1263 c 128,-1,56
 1199 1186 1199 1186 1218 1097.5 c 128,-1,57
 1237 1009 1237 1009 1237 910 c 128,-1,58
 1237 811 1237 811 1224 711.5 c 128,-1,59
 1211 612 1211 612 1184 517 c 128,-1,60
 1157 422 1157 422 1106.5 363 c 128,-1,61
 1056 304 1056 304 985 304 c 128,-1,62
 914 304 914 304 872.5 359.5 c 128,-1,63
 831 415 831 415 822 504 c 1,64,65
 789 394 789 394 726.5 345 c 128,-1,66
 664 296 664 296 602.5 296 c 0,67,68
 478.365 296 478.365 296 427.683 401.42 c 128,-1,69
 377 506.84 377 506.84 377 637.92 c 128,-1,70
 377 769 377 769 413 878.5 c 128,-1,71
 449 988 449 988 517 1059 c 128,-1,72
 585 1130 585 1130 669 1130 c 0,13,14
EndSplineSet
EndChar

StartChar: A
Encoding: 65 65 36
Width: 1229
Flags: W
LayerCount: 2
Fore
SplineSet
443 631 m 1,0,-1
 785 631 l 1,1,-1
 617 1278 l 1,2,-1
 443 631 l 1,0,-1
720 1491 m 1,3,-1
 1161 0 l 1,4,-1
 964 0 l 1,5,-1
 823 481 l 1,6,-1
 404 481 l 1,7,-1
 264 0 l 1,8,-1
 68 0 l 1,9,-1
 508 1491 l 1,10,-1
 720 1491 l 1,3,-1
EndSplineSet
EndChar

StartChar: B
Encoding: 66 66 37
Width: 1229
Flags: W
LayerCount: 2
Fore
SplineSet
491 876 m 2,0,1
 687.234 876 687.234 876 763.117 933.524 c 0,2,3
 839 991.048 839 991.048 839 1090 c 0,4,5
 839 1238.02 839 1238.02 758.5 1288.5 c 0,6,7
 700.597 1324.81 700.597 1324.81 614.799 1334.91 c 0,8,9
 529 1345 529 1345 396 1345 c 2,10,-1
 344 1345 l 1,11,-1
 344 876 l 1,12,-1
 491 876 l 2,0,1
536 715 m 2,13,-1
 344 715 l 1,14,-1
 344 146 l 1,15,-1
 505 146 l 2,16,17
 714.227 146 714.227 146 814.614 207.921 c 0,18,19
 915 269.841 915 269.841 915 435.421 c 0,20,21
 915 601 915 601 816.2 658 c 0,22,23
 717.4 715 717.4 715 536 715 c 2,13,-1
1112 433 m 0,24,25
 1112 0 1112 0 516 0 c 2,26,-1
 157 0 l 1,27,-1
 157 1491 l 1,28,-1
 450 1491 l 2,29,30
 785.861 1491 785.861 1491 910.43 1395.46 c 0,31,32
 1035 1299.91 1035 1299.91 1035 1125 c 0,33,34
 1035 997 1035 997 963 920 c 128,-1,35
 891 843 891 843 768 810 c 1,36,37
 916 788 916 788 1014 684.5 c 128,-1,38
 1112 581 1112 581 1112 433 c 0,24,25
EndSplineSet
EndChar

StartChar: C
Encoding: 67 67 38
Width: 1229
Flags: W
LayerCount: 2
Fore
SplineSet
1128 1391 m 1,0,-1
 1062 1260 l 1,1,2
 929 1363 929 1363 774 1363 c 128,-1,3
 619 1363 619 1363 517.5 1276 c 0,4,5
 320 1106.71 320 1106.71 320 748 c 0,6,7
 320 575 320 575 371 436 c 128,-1,8
 422 297 422 297 522.5 213.5 c 128,-1,9
 623 130 623 130 757 130 c 0,10,11
 932 130 932 130 1064 238 c 1,12,-1
 1129 97 l 1,13,14
 989 -25 989 -25 734 -25 c 0,15,16
 551 -25 551 -25 411.5 75.5 c 128,-1,17
 272 176 272 176 198 351.5 c 128,-1,18
 124 527 124 527 124 724.5 c 128,-1,19
 124 922 124 922 171 1066.5 c 128,-1,20
 218 1211 218 1211 299.5 1309 c 128,-1,21
 381 1407 381 1407 493 1461.5 c 128,-1,22
 605 1516 605 1516 734 1516 c 0,23,24
 983 1516 983 1516 1128 1391 c 1,0,-1
EndSplineSet
EndChar

StartChar: D
Encoding: 68 68 39
Width: 1229
Flags: W
LayerCount: 2
Fore
SplineSet
372 146 m 2,0,1
 733.473 146 733.473 146 852.5 372 c 0,2,3
 926 511.557 926 511.557 926 747 c 0,4,5
 926 1038.61 926 1038.61 807.275 1191.81 c 0,6,7
 688.55 1345 688.55 1345 374 1345 c 2,8,-1
 343 1345 l 1,9,-1
 343 146 l 1,10,-1
 372 146 l 2,0,1
156 1491 m 1,11,-1
 401 1491 l 2,12,13
 757 1491 757 1491 939.5 1298 c 128,-1,14
 1122 1105 1122 1105 1122 743.5 c 128,-1,15
 1122 382 1122 382 936 191 c 128,-1,16
 750 0 750 0 379 0 c 2,17,-1
 156 0 l 1,18,-1
 156 1491 l 1,11,-1
EndSplineSet
EndChar

StartChar: E
Encoding: 69 69 40
Width: 1229
Flags: W
LayerCount: 2
Fore
SplineSet
404 684 m 1,0,-1
 404 146 l 1,1,-1
 1108 146 l 1,2,-1
 1093 0 l 1,3,-1
 217 0 l 1,4,-1
 217 1491 l 1,5,-1
 1075 1491 l 1,6,-1
 1059 1345 l 1,7,-1
 404 1345 l 1,8,-1
 404 843 l 1,9,-1
 1026 843 l 1,10,-1
 1026 684 l 1,11,-1
 404 684 l 1,0,-1
EndSplineSet
EndChar

StartChar: F
Encoding: 70 70 41
Width: 1229
Flags: W
LayerCount: 2
Fore
SplineSet
431 683 m 1,0,-1
 431 0 l 1,1,-1
 244 0 l 1,2,-1
 244 1491 l 1,3,-1
 1078 1491 l 1,4,-1
 1060 1345 l 1,5,-1
 431 1345 l 1,6,-1
 431 846 l 1,7,-1
 1034 846 l 1,8,-1
 1034 683 l 1,9,-1
 431 683 l 1,0,-1
EndSplineSet
EndChar

StartChar: G
Encoding: 71 71 42
Width: 1229
Flags: W
LayerCount: 2
Fore
SplineSet
1049 1255 m 1,0,1
 930 1363 930 1363 734 1363 c 0,2,3
 631 1363 631 1363 547 1311 c 128,-1,4
 463 1259 463 1259 411 1172 c 0,5,6
 303 991.308 303 991.308 303 742.528 c 0,7,8
 303 493.747 303 493.747 399.5 317 c 0,9,10
 447 230 447 230 525 180 c 128,-1,11
 603 130 603 130 693.5 130 c 128,-1,12
 784 130 784 130 844 152.5 c 128,-1,13
 904 175 904 175 975 217 c 1,14,-1
 975 625 l 1,15,-1
 644 625 l 1,16,-1
 644 778 l 1,17,-1
 1148 778 l 1,18,-1
 1148 132 l 1,19,20
 1031 57 1031 57 926 16 c 128,-1,21
 821 -25 821 -25 682.5 -25 c 128,-1,22
 544 -25 544 -25 431.5 36.5 c 128,-1,23
 319 98 319 98 249 205 c 0,24,25
 107 422.057 107 422.057 107 750 c 0,26,27
 107 920 107 920 153.5 1064 c 128,-1,28
 200 1208 200 1208 282 1306.5 c 128,-1,29
 364 1405 364 1405 477 1460 c 128,-1,30
 590 1515 590 1515 720 1515 c 0,31,32
 968 1515 968 1515 1116 1388 c 1,33,-1
 1049 1255 l 1,0,1
EndSplineSet
EndChar

StartChar: H
Encoding: 72 72 43
Width: 1229
Flags: W
LayerCount: 2
Fore
SplineSet
327 0 m 1,0,-1
 140 0 l 1,1,-1
 140 1491 l 1,2,-1
 327 1491 l 1,3,-1
 327 855 l 1,4,-1
 902 855 l 1,5,-1
 902 1491 l 1,6,-1
 1089 1491 l 1,7,-1
 1089 0 l 1,8,-1
 902 0 l 1,9,-1
 902 702 l 1,10,-1
 327 702 l 1,11,-1
 327 0 l 1,0,-1
EndSplineSet
EndChar

StartChar: I
Encoding: 73 73 44
Width: 1229
Flags: W
LayerCount: 2
Fore
SplineSet
194 1345 m 1,0,-1
 194 1491 l 1,1,-1
 1035 1491 l 1,2,-1
 1035 1345 l 1,3,-1
 704 1345 l 1,4,-1
 704 146 l 1,5,-1
 1035 146 l 1,6,-1
 1035 0 l 1,7,-1
 194 0 l 1,8,-1
 194 146 l 1,9,-1
 517 146 l 1,10,-1
 517 1345 l 1,11,-1
 194 1345 l 1,0,-1
EndSplineSet
EndChar

StartChar: J
Encoding: 74 74 45
Width: 1229
Flags: W
LayerCount: 2
Fore
SplineSet
169 151 m 1,0,1
 394 126 394 126 448 126 c 128,-1,2
 502 126 502 126 542 132.5 c 0,3,4
 737 164.188 737 164.188 737 391 c 2,5,-1
 737 1345 l 1,6,-1
 309 1345 l 1,7,-1
 309 1491 l 1,8,-1
 924 1491 l 1,9,-1
 924 443 l 2,10,11
 924 208 924 208 821.6 96 c 128,-1,12
 719.2 -16 719.2 -16 455 -16 c 0,13,14
 362 -16 362 -16 170 0 c 1,15,-1
 169 151 l 1,0,1
EndSplineSet
EndChar

StartChar: K
Encoding: 75 75 46
Width: 1229
Flags: W
LayerCount: 2
Fore
SplineSet
927 1491 m 1,0,-1
 1160 1491 l 1,1,-1
 661 823 l 1,2,-1
 1193 0 l 1,3,-1
 955 0 l 1,4,-1
 517 700 l 1,5,-1
 398 561 l 1,6,-1
 398 0 l 1,7,-1
 211 0 l 1,8,-1
 211 1491 l 1,9,-1
 398 1491 l 1,10,-1
 398 773 l 1,11,-1
 927 1491 l 1,0,-1
EndSplineSet
EndChar

StartChar: L
Encoding: 76 76 47
Width: 1229
Flags: W
LayerCount: 2
Fore
SplineSet
490 146 m 1,0,-1
 1066 146 l 1,1,-1
 1056 0 l 1,2,-1
 303 0 l 1,3,-1
 303 1491 l 1,4,-1
 490 1491 l 1,5,-1
 490 146 l 1,0,-1
EndSplineSet
EndChar

StartChar: M
Encoding: 77 77 48
Width: 1229
Flags: W
LayerCount: 2
Fore
SplineSet
335 1230 m 1,0,-1
 335 0 l 1,1,-1
 149 0 l 1,2,-1
 149 1491 l 1,3,-1
 404 1491 l 1,4,-1
 617 802 l 1,5,-1
 830 1491 l 1,6,-1
 1079 1491 l 1,7,-1
 1079 0 l 1,8,-1
 898 0 l 1,9,-1
 898 1230 l 1,10,-1
 721 646 l 1,11,-1
 512 646 l 1,12,-1
 335 1230 l 1,0,-1
EndSplineSet
EndChar

StartChar: N
Encoding: 78 78 49
Width: 1229
Flags: W
LayerCount: 2
Fore
SplineSet
1078 0 m 1,0,-1
 858 0 l 1,1,-1
 320 1206 l 1,2,-1
 320 0 l 1,3,-1
 150 0 l 1,4,-1
 150 1491 l 1,5,-1
 365 1491 l 1,6,-1
 911 289 l 1,7,-1
 911 1491 l 1,8,-1
 1078 1491 l 1,9,-1
 1078 0 l 1,0,-1
EndSplineSet
EndChar

StartChar: O
Encoding: 79 79 50
Width: 1229
Flags: W
LayerCount: 2
Fore
SplineSet
614 1363 m 128,-1,1
 519 1363 519 1363 451 1279.5 c 128,-1,2
 383 1196 383 1196 351 1059 c 128,-1,3
 319 922 319 922 319 746 c 128,-1,4
 319 570 319 570 351 433 c 128,-1,5
 383 296 383 296 451 213 c 128,-1,6
 519 130 519 130 614 130 c 128,-1,7
 709 130 709 130 777 213 c 128,-1,8
 845 296 845 296 877 433 c 128,-1,9
 909 570 909 570 909 746 c 128,-1,10
 909 922 909 922 877 1059 c 128,-1,11
 845 1196 845 1196 777 1279.5 c 128,-1,0
 709 1363 709 1363 614 1363 c 128,-1,1
614 -25 m 128,-1,13
 491 -25 491 -25 395 37.5 c 128,-1,14
 299 100 299 100 240.5 208 c 0,15,16
 123 424.923 123 424.923 123 747 c 0,17,18
 123 1144.69 123 1144.69 280 1354.5 c 0,19,20
 335 1428 335 1428 420.5 1472 c 128,-1,21
 506 1516 506 1516 614 1516 c 128,-1,22
 722 1516 722 1516 807.5 1472 c 0,23,24
 963.544 1391.7 963.544 1391.7 1034.27 1193.27 c 128,-1,25
 1105 994.833 1105 994.833 1105 747 c 0,26,27
 1105 424.923 1105 424.923 987.5 208 c 0,28,29
 929 100 929 100 833 37.5 c 128,-1,12
 737 -25 737 -25 614 -25 c 128,-1,13
EndSplineSet
EndChar

StartChar: P
Encoding: 80 80 51
Width: 1229
Flags: W
LayerCount: 2
Fore
SplineSet
363 765 m 1,0,-1
 622 765 l 2,1,2
 764 765 764 765 849.5 839 c 128,-1,3
 935 913 935 913 935 1057 c 128,-1,4
 935 1201 935 1201 850 1273 c 128,-1,5
 765 1345 765 1345 622 1345 c 2,6,-1
 363 1345 l 1,7,-1
 363 765 l 1,0,-1
1088 1265 m 0,8,9
 1131 1180 1131 1180 1131 1068.5 c 0,10,11
 1131 763.925 1131 763.925 912.967 672.829 c 0,12,13
 776.951 616 776.951 616 572 616 c 2,14,-1
 363 616 l 1,15,-1
 363 0 l 1,16,-1
 176 0 l 1,17,-1
 176 1491 l 1,18,-1
 573 1491 l 2,19,20
 973.671 1491 973.671 1491 1088 1265 c 0,8,9
EndSplineSet
EndChar

StartChar: Q
Encoding: 81 81 52
Width: 1229
Flags: W
LayerCount: 2
Fore
SplineSet
575 1363 m 128,-1,1
 480 1363 480 1363 412 1279.5 c 128,-1,2
 344 1196 344 1196 312 1059 c 128,-1,3
 280 922 280 922 280 746 c 128,-1,4
 280 570 280 570 312 433 c 128,-1,5
 344 296 344 296 412 213 c 128,-1,6
 480 130 480 130 575 130 c 128,-1,7
 670 130 670 130 738 213 c 128,-1,8
 806 296 806 296 838 433 c 128,-1,9
 870 570 870 570 870 746 c 128,-1,10
 870 922 870 922 838 1059 c 128,-1,11
 806 1196 806 1196 738 1279.5 c 128,-1,0
 670 1363 670 1363 575 1363 c 128,-1,1
575 -25 m 0,12,13
 452 -25 452 -25 356 37.5 c 128,-1,14
 260 100 260 100 201.5 208 c 0,15,16
 84 424.923 84 424.923 84 747 c 0,17,18
 84 1144.69 84 1144.69 241 1354.5 c 0,19,20
 296 1428 296 1428 381.5 1472 c 128,-1,21
 467 1516 467 1516 575 1516 c 128,-1,22
 683 1516 683 1516 768.5 1472 c 0,23,24
 924.544 1391.7 924.544 1391.7 995.272 1193.27 c 128,-1,25
 1066 994.833 1066 994.833 1066 747 c 128,-1,26
 1066 499.181 1066 499.181 991.674 299.945 c 128,-1,27
 917.347 100.709 917.347 100.709 764 20 c 1,28,29
 857 -167 857 -167 1040 -330 c 1,30,-1
 916 -458 l 1,31,32
 703 -252 703 -252 589 -25 c 1,33,34
 582 -25 582 -25 575 -25 c 0,12,13
EndSplineSet
EndChar

StartChar: R
Encoding: 82 82 53
Width: 1229
Flags: W
LayerCount: 2
Fore
SplineSet
567 824 m 2,0,-1
 373 824 l 1,1,-1
 373 1345 l 1,2,-1
 563 1345 l 2,3,4
 815.131 1345 815.131 1345 891 1215.5 c 0,5,6
 920 1166 920 1166 920 1098 c 0,7,8
 920 949 920 949 828.5 886.5 c 128,-1,9
 737 824 737 824 567 824 c 2,0,-1
476 1491 m 2,10,-1
 186 1491 l 1,11,-1
 186 0 l 1,12,-1
 373 0 l 1,13,-1
 373 662 l 1,14,-1
 460 662 l 1,15,-1
 601 665 l 1,16,17
 666.893 573.6 666.893 573.6 702.447 514.8 c 128,-1,18
 738 456 738 456 755.5 428 c 128,-1,19
 773 400 773 400 797.5 353 c 128,-1,20
 822 306 822 306 832.5 286.5 c 128,-1,21
 843 267 843 267 868.5 214 c 128,-1,22
 894 161 894 161 900 148 c 128,-1,23
 906 135 906 135 934.5 72.5 c 128,-1,24
 963 10 963 10 968 0 c 1,25,-1
 1185 0 l 1,26,27
 1082 227 1082 227 992 391.5 c 128,-1,28
 902 556 902 556 784 707 c 1,29,30
 934 740 934 740 1024.5 837.5 c 128,-1,31
 1115 935 1115 935 1115 1099.26 c 128,-1,32
 1115 1263.52 1115 1263.52 1025 1350.48 c 128,-1,33
 934.998 1437.45 934.998 1437.45 798.449 1464.23 c 128,-1,34
 661.9 1491 661.9 1491 476 1491 c 2,10,-1
EndSplineSet
EndChar

StartChar: S
Encoding: 83 83 54
Width: 1229
Flags: W
LayerCount: 2
Fore
SplineSet
212 261 m 1,0,1
 372 130 372 130 593 130 c 0,2,3
 713 130 713 130 778 203.5 c 128,-1,4
 843 277 843 277 843 393.804 c 128,-1,5
 843 510.608 843 510.608 775.473 571.515 c 128,-1,6
 707.945 632.422 707.945 632.422 611.5 671 c 2,7,-1
 551.5 695 l 2,8,9
 381.625 762.95 381.625 762.95 316.312 809.975 c 128,-1,10
 251 857 251 857 221 896 c 0,11,12
 150 988.3 150 988.3 150 1123 c 0,13,14
 150 1310 150 1310 277 1413.5 c 128,-1,15
 404 1517 404 1517 604 1517 c 0,16,17
 856 1517 856 1517 997 1406 c 1,18,-1
 927 1262 l 1,19,20
 797 1363 797 1363 614 1363 c 0,21,22
 496 1363 496 1363 426.5 1298.5 c 128,-1,23
 357 1234 357 1234 357 1118.37 c 128,-1,24
 357 1002.73 357 1002.73 484.5 929 c 0,25,26
 531.724 901.69 531.724 901.69 629.289 864.086 c 0,27,28
 726.854 826.483 726.854 826.483 824.416 775.433 c 128,-1,29
 921.978 724.383 921.978 724.383 987.989 637.079 c 128,-1,30
 1054 549.774 1054 549.774 1054 415 c 0,31,32
 1054 200 1054 200 929.5 87.5 c 128,-1,33
 805 -25 805 -25 589 -25 c 0,34,35
 320 -25 320 -25 141 94 c 1,36,-1
 212 261 l 1,0,1
EndSplineSet
EndChar

StartChar: T
Encoding: 84 84 55
Width: 1229
Flags: W
LayerCount: 2
Fore
SplineSet
1129 1491 m 1,0,-1
 1129 1345 l 1,1,-1
 705 1345 l 1,2,-1
 705 0 l 1,3,-1
 518 0 l 1,4,-1
 518 1345 l 1,5,-1
 94 1345 l 1,6,-1
 94 1491 l 1,7,-1
 1129 1491 l 1,0,-1
EndSplineSet
EndChar

StartChar: U
Encoding: 85 85 56
Width: 1229
Flags: W
LayerCount: 2
Fore
SplineSet
614 -25 m 128,-1,1
 358 -25 358 -25 243.5 96 c 128,-1,2
 129 217 129 217 129 484 c 2,3,-1
 129 1491 l 1,4,-1
 316 1491 l 1,5,-1
 316 490 l 2,6,7
 316 307.818 316 307.818 377.125 218.909 c 0,8,9
 438.25 130 438.25 130 614 130 c 128,-1,10
 789.75 130 789.75 130 850.875 218.909 c 0,11,12
 912 307.818 912 307.818 912 490 c 2,13,-1
 912 1491 l 1,14,-1
 1099 1491 l 1,15,-1
 1099 484 l 2,16,17
 1099 217 1099 217 984.5 96 c 128,-1,0
 870 -25 870 -25 614 -25 c 128,-1,1
EndSplineSet
EndChar

StartChar: V
Encoding: 86 86 57
Width: 1229
Flags: W
LayerCount: 2
Fore
SplineSet
967 1491 m 1,0,-1
 1172 1491 l 1,1,-1
 722 0 l 1,2,-1
 505 0 l 1,3,-1
 57 1491 l 1,4,-1
 262 1491 l 1,5,-1
 617 223 l 1,6,-1
 967 1491 l 1,0,-1
EndSplineSet
EndChar

StartChar: W
Encoding: 87 87 58
Width: 1229
Flags: W
LayerCount: 2
Fore
SplineSet
905 210 m 1,0,-1
 971 1491 l 1,1,-1
 1156 1491 l 1,2,-1
 1039 0 l 1,3,-1
 810 0 l 1,4,-1
 626 659 l 1,5,-1
 430 0 l 1,6,-1
 204 0 l 1,7,-1
 66 1491 l 1,8,-1
 251 1491 l 1,9,-1
 355 213 l 1,10,-1
 542 880 l 1,11,-1
 715 880 l 1,12,-1
 905 210 l 1,0,-1
EndSplineSet
EndChar

StartChar: X
Encoding: 88 88 59
Width: 1229
Flags: W
LayerCount: 2
Fore
SplineSet
112 1491 m 1,0,-1
 340 1491 l 1,1,-1
 629 892 l 1,2,-1
 941 1491 l 1,3,-1
 1149 1491 l 1,4,-1
 749 763 l 1,5,-1
 1157 0 l 1,6,-1
 933 0 l 1,7,-1
 613 627 l 1,8,-1
 286 0 l 1,9,-1
 72 0 l 1,10,-1
 496 762 l 1,11,-1
 112 1491 l 1,0,-1
EndSplineSet
EndChar

StartChar: Y
Encoding: 89 89 60
Width: 1229
Flags: W
LayerCount: 2
Fore
SplineSet
702 0 m 1,0,-1
 515 0 l 1,1,-1
 515 593 l 1,2,-1
 69 1491 l 1,3,-1
 275 1491 l 1,4,-1
 610 774 l 1,5,-1
 949 1491 l 1,6,-1
 1160 1491 l 1,7,-1
 702 593 l 1,8,-1
 702 0 l 1,0,-1
EndSplineSet
EndChar

StartChar: Z
Encoding: 90 90 61
Width: 1229
Flags: W
LayerCount: 2
Fore
SplineSet
397 146 m 1,0,-1
 1049 146 l 1,1,-1
 1049 0 l 1,2,-1
 156 0 l 1,3,-1
 156 143 l 1,4,-1
 803 1345 l 1,5,-1
 191 1345 l 1,6,-1
 191 1491 l 1,7,-1
 1058 1491 l 1,8,-1
 1058 1364 l 1,9,-1
 397 146 l 1,0,-1
EndSplineSet
EndChar

StartChar: bracketleft
Encoding: 91 91 62
Width: 1229
Flags: W
LayerCount: 2
Fore
SplineSet
395 -131 m 1,0,-1
 395 1725 l 1,1,2
 396 1729 396 1729 400 1730 c 1,3,-1
 914 1730 l 1,4,5
 918 1729 918 1729 919 1725 c 1,6,-1
 919 1593 l 1,7,8
 918 1589 918 1589 914 1588 c 1,9,-1
 584 1588 l 1,10,-1
 584 6 l 1,11,-1
 915 6 l 1,12,13
 919 5 919 5 920 1 c 1,14,-1
 920 -131 l 1,15,16
 919 -135 919 -135 915 -136 c 1,17,-1
 400 -136 l 1,18,19
 396 -135 396 -135 395 -131 c 1,0,-1
EndSplineSet
EndChar

StartChar: backslash
Encoding: 92 92 63
Width: 1229
Flags: W
LayerCount: 2
Fore
SplineSet
1082 -48 m 1,0,-1
 902 -48 l 1,1,-1
 193 1761 l 1,2,-1
 377 1761 l 1,3,-1
 1082 -48 l 1,0,-1
EndSplineSet
EndChar

StartChar: bracketright
Encoding: 93 93 64
Width: 1229
Flags: W
LayerCount: 2
Fore
SplineSet
775 -131 m 1,0,1
 774 -135 774 -135 770 -136 c 1,2,-1
 255 -136 l 1,3,4
 251 -135 251 -135 250 -131 c 1,5,-1
 250 1 l 1,6,7
 251 5 251 5 255 6 c 1,8,-1
 586 6 l 1,9,-1
 586 1588 l 1,10,-1
 256 1588 l 1,11,12
 252 1589 252 1589 251 1593 c 1,13,-1
 251 1725 l 1,14,15
 252 1729 252 1729 256 1730 c 1,16,-1
 770 1730 l 1,17,18
 774 1729 774 1729 775 1725 c 1,19,-1
 775 -131 l 1,0,1
EndSplineSet
EndChar

StartChar: asciicircum
Encoding: 94 94 65
Width: 1229
Flags: W
LayerCount: 2
Fore
SplineSet
644 1554 m 1,0,-1
 757 1554 l 1,1,-1
 1296 597 l 1,2,-1
 1125 597 l 1,3,-1
 698 1368 l 1,4,-1
 284 597 l 1,5,-1
 111 597 l 1,6,-1
 644 1554 l 1,0,-1
EndSplineSet
EndChar

StartChar: underscore
Encoding: 95 95 66
Width: 1229
Flags: W
LayerCount: 2
Fore
SplineSet
4 -296 m 1,0,-1
 4 -157 l 1,1,-1
 1076 -157 l 1,2,-1
 1076 -296 l 1,3,-1
 4 -296 l 1,0,-1
EndSplineSet
EndChar

StartChar: grave
Encoding: 96 96 67
Width: 1229
Flags: W
LayerCount: 2
Fore
SplineSet
654 1705 m 1,0,-1
 937 1268 l 1,1,-1
 798 1268 l 1,2,-1
 418 1705 l 1,3,-1
 654 1705 l 1,0,-1
EndSplineSet
EndChar

StartChar: a
Encoding: 97 97 68
Width: 1229
Flags: W
LayerCount: 2
Fore
SplineSet
849 245 m 1,0,-1
 849 525 l 1,1,-1
 700 504 l 2,2,3
 544 482 544 482 484 460 c 0,4,5
 350 409 350 409 350 289 c 0,6,7
 350 206 350 206 398 157 c 128,-1,8
 446 108 446 108 530 108 c 0,9,10
 715 108 715 108 849 245 c 1,0,-1
849 756 m 2,11,12
 849 991 849 991 650.5 991 c 0,13,14
 556 991 556 991 442.5 969 c 128,-1,15
 329 947 329 947 283 927 c 1,16,-1
 240 1061 l 1,17,18
 447 1130 447 1130 629 1130 c 128,-1,19
 811 1130 811 1130 921 1047 c 128,-1,20
 1031 964 1031 964 1031 791 c 2,21,-1
 1031 0 l 1,22,-1
 880 0 l 1,23,-1
 856 127 l 1,24,25
 792 62 792 62 691.5 18.5 c 128,-1,26
 591 -25 591 -25 495 -25 c 0,27,28
 356 -25 356 -25 264 58.5 c 128,-1,29
 172 142 172 142 172 294.4 c 128,-1,30
 172 446.8 172 446.8 291.5 518.5 c 0,31,32
 373.435 567.661 373.435 567.661 464.872 586.529 c 128,-1,33
 556.309 605.397 556.309 605.397 703 623 c 2,34,-1
 849 640 l 1,35,-1
 849 756 l 2,11,12
EndSplineSet
EndChar

StartChar: b
Encoding: 98 98 69
Width: 1229
Flags: W
LayerCount: 2
Fore
SplineSet
360.5 418 m 0,0,1
 377.726 277.897 377.726 277.897 444.145 196.948 c 0,2,3
 511 116 511 116 648 116 c 1,4,5
 833.333 116 833.333 116 897.5 308.5 c 0,6,7
 931 409 931 409 931 518.5 c 128,-1,8
 931 628 931 628 924.5 687 c 0,9,10
 909.064 827.116 909.064 827.116 845.372 908.558 c 128,-1,11
 781.68 990 781.68 990 648 990 c 0,12,13
 424.214 990 424.214 990 374 774.5 c 0,14,15
 353 684.375 353 684.375 353 581.688 c 128,-1,16
 353 479 353 479 360.5 418 c 0,0,1
353 946 m 1,17,18
 464.256 1130 464.256 1130 685.464 1130 c 128,-1,19
 906.673 1130 906.673 1130 1010.34 969.886 c 128,-1,20
 1114 809.772 1114 809.772 1114 568 c 0,21,22
 1114 250.861 1114 250.861 964.5 91 c 0,23,24
 856 -25 856 -25 670 -25 c 1,25,26
 546.962 -25 546.962 -25 482.268 20.7176 c 128,-1,27
 417.573 66.4353 417.573 66.4353 353 150 c 1,28,-1
 351 0 l 1,29,-1
 171 0 l 1,30,-1
 171 1545 l 1,31,-1
 353 1565 l 1,32,-1
 353 946 l 1,17,18
EndSplineSet
EndChar

StartChar: c
Encoding: 99 99 70
Width: 1229
Flags: W
LayerCount: 2
Fore
SplineSet
1002 72 m 1,0,1
 896.917 -25 896.917 -25 703 -25 c 0,2,3
 579 -25 579 -25 477 22.5 c 128,-1,4
 375 70 375 70 309.5 150.5 c 0,5,6
 173 318.26 173 318.26 173 555 c 0,7,8
 173 708 173 708 235.5 838 c 128,-1,9
 298 968 298 968 420 1049 c 128,-1,10
 542 1130 542 1130 720.889 1130 c 0,11,12
 899.778 1130 899.778 1130 999 1035 c 1,13,-1
 953 913 l 1,14,15
 838 990 838 990 693 990 c 128,-1,16
 548 990 548 990 452.5 866 c 128,-1,17
 357 742 357 742 357 550.5 c 128,-1,18
 357 359 357 359 452.5 237 c 128,-1,19
 548 115 548 115 696.5 115 c 128,-1,20
 845 115 845 115 958 195 c 1,21,-1
 1002 72 l 1,0,1
EndSplineSet
EndChar

StartChar: d
Encoding: 100 100 71
Width: 1229
Flags: W
LayerCount: 2
Fore
SplineSet
878 555 m 0,0,1
 878 811.27 878 811.27 801.919 900.635 c 0,2,3
 725.838 990 725.838 990 586 990 c 0,4,5
 392.273 990 392.273 990 335 797.5 c 0,6,7
 304 693.306 304 693.306 304 545 c 0,8,9
 304 115 304 115 586 115 c 0,10,11
 878 115 878 115 878 555 c 0,0,1
878 946 m 1,12,-1
 878 1545 l 1,13,-1
 1060 1565 l 1,14,-1
 1060 0 l 1,15,-1
 878 0 l 1,16,-1
 878 170 l 1,17,18
 767 -25 767 -25 564 -25 c 1,19,20
 331.858 -25 331.858 -25 226.429 140.82 c 0,21,22
 121 306.641 121 306.641 121 558 c 0,23,24
 121 859.971 121 859.971 275 1018.5 c 0,25,26
 383.314 1130 383.314 1130 565 1130 c 0,27,28
 689 1130 689 1130 766.5 1079 c 128,-1,29
 844 1028 844 1028 878 946 c 1,12,-1
EndSplineSet
EndChar

StartChar: e
Encoding: 101 101 72
Width: 1229
Flags: W
LayerCount: 2
Fore
SplineSet
238.5 257.5 m 128,-1,1
 183 387 183 387 183 550 c 128,-1,2
 183 713 183 713 234.5 842.5 c 128,-1,3
 286 972 286 972 388.5 1051.5 c 128,-1,4
 491 1131 491 1131 613.5 1131 c 0,5,6
 845.863 1131 845.863 1131 953.931 972.014 c 128,-1,7
 1062 813.029 1062 813.029 1062 581 c 2,8,-1
 1062 520 l 1,9,-1
 367 520 l 1,10,11
 373.038 350.943 373.038 350.943 451.686 232.972 c 128,-1,12
 530.333 115 530.333 115 687.167 115 c 1,13,14
 792.093 125.32 792.093 125.32 980 229 c 1,15,-1
 1040 105 l 1,16,17
 910 -25 910 -25 685 -25 c 0,18,19
 524 -25 524 -25 409 51.5 c 128,-1,0
 294 128 294 128 238.5 257.5 c 128,-1,1
888 653 m 1,20,21
 868 990 868 990 652 990 c 0,22,23
 408.474 990 408.474 990 373 653 c 1,24,-1
 888 653 l 1,20,21
EndSplineSet
EndChar

StartChar: f
Encoding: 102 102 73
Width: 1229
Flags: W
LayerCount: 2
Fore
SplineSet
675 0 m 1,0,-1
 493 0 l 1,1,-1
 493 957 l 1,2,-1
 206 957 l 1,3,-1
 206 1097 l 1,4,-1
 493 1097 l 1,5,6
 493 1298.89 493 1298.89 509 1351.95 c 0,7,8
 540.639 1456.86 540.639 1456.86 590.976 1500.77 c 0,9,10
 687.536 1585 687.536 1585 944 1585 c 2,11,-1
 1050 1585 l 1,12,-1
 1040 1445 l 1,13,-1
 940 1445 l 2,14,15
 863 1445 863 1445 818 1438 c 128,-1,16
 773 1431 773 1431 738 1408.5 c 0,17,18
 675 1368 675 1368 675 1230 c 2,19,-1
 675 1097 l 1,20,-1
 1050 1097 l 1,21,-1
 1050 957 l 1,22,-1
 675 957 l 1,23,-1
 675 0 l 1,0,-1
EndSplineSet
EndChar

StartChar: g
Encoding: 103 103 74
Width: 1229
Flags: W
LayerCount: 2
Fore
SplineSet
888 210 m 1,0,1
 854 124 854 124 768 62 c 128,-1,2
 682 0 682 0 576 0 c 0,3,4
 367.603 0 367.603 0 246.801 161.425 c 128,-1,5
 126 322.85 126 322.85 126 556 c 0,6,7
 126 867.981 126 867.981 282.5 1021.5 c 0,8,9
 393.107 1130 393.107 1130 585.053 1130 c 128,-1,10
 777 1130 777 1130 888 948 c 1,11,-1
 894 1097 l 1,12,-1
 1079 1097 l 1,13,14
 1070 852 1070 852 1070 446 c 2,15,-1
 1070 152 l 2,16,17
 1070 -202.349 1070 -202.349 916.5 -330.5 c 0,18,19
 805.834 -422.891 805.834 -422.891 581.5 -448.5 c 0,20,21
 472 -461 472 -461 322 -461 c 1,22,-1
 307 -321 l 1,23,24
 525.158 -321 525.158 -321 619.579 -295 c 128,-1,25
 714 -269 714 -269 757 -237 c 128,-1,26
 800 -205 800 -205 831 -153.5 c 0,27,28
 888 -58.8064 888 -58.8064 888 137 c 2,29,-1
 888 210 l 1,0,1
718 966.5 m 128,-1,31
 666 990 666 990 597.5 990 c 128,-1,32
 529 990 529 990 477 966.5 c 0,33,34
 381.635 923.403 381.635 923.403 345.318 815.381 c 128,-1,35
 309 707.359 309 707.359 309 598.679 c 128,-1,36
 309 490 309 490 317.5 436.5 c 0,37,38
 336.17 318.991 336.17 318.991 401.936 240.496 c 128,-1,39
 467.703 162 467.703 162 589 162 c 0,40,41
 781.4 162 781.4 162 850 333.5 c 0,42,43
 888 428.5 888 428.5 888 528.75 c 128,-1,44
 888 629 888 629 880.5 689 c 128,-1,45
 873 749 873 749 853 806.5 c 128,-1,46
 833 864 833 864 801.5 903.5 c 128,-1,30
 770 943 770 943 718 966.5 c 128,-1,31
EndSplineSet
EndChar

StartChar: h
Encoding: 104 104 75
Width: 1229
Flags: W
LayerCount: 2
Fore
SplineSet
1044 662 m 2,0,-1
 1044 0 l 1,1,-1
 862 0 l 1,2,-1
 862 639 l 2,3,4
 862 844.587 862 844.587 807.172 917.294 c 0,5,6
 752 990 752 990 640.672 990 c 1,7,8
 529 990 529 990 446.5 912.5 c 128,-1,9
 364 835 364 835 364 746 c 2,10,-1
 364 0 l 1,11,-1
 182 0 l 1,12,-1
 182 1545 l 1,13,-1
 364 1565 l 1,14,-1
 364 964 l 1,15,16
 492 1130 492 1130 707 1130 c 0,17,18
 1044 1130 1044 1130 1044 662 c 2,0,-1
EndSplineSet
EndChar

StartChar: i
Encoding: 105 105 76
Width: 1229
Flags: W
LayerCount: 2
Fore
SplineSet
538 1386 m 2,0,-1
 538 1485 l 2,1,2
 538 1521 538 1521 578.5 1548.5 c 128,-1,3
 619 1576 619 1576 659 1576 c 128,-1,4
 699 1576 699 1576 739.5 1548.5 c 128,-1,5
 780 1521 780 1521 780 1485 c 2,6,-1
 780 1386 l 2,7,8
 780 1350 780 1350 739.5 1322.5 c 128,-1,9
 699 1295 699 1295 659 1295 c 128,-1,10
 619 1295 619 1295 578.5 1322.5 c 128,-1,11
 538 1350 538 1350 538 1386 c 2,0,-1
255 957 m 1,12,-1
 255 1097 l 1,13,-1
 750 1097 l 1,14,-1
 750 140 l 1,15,-1
 1064 140 l 1,16,-1
 1064 0 l 1,17,-1
 220 0 l 1,18,-1
 220 140 l 1,19,-1
 568 140 l 1,20,-1
 568 957 l 1,21,-1
 255 957 l 1,12,-1
EndSplineSet
EndChar

StartChar: j
Encoding: 106 106 77
Width: 1229
Flags: W
LayerCount: 2
Fore
SplineSet
434 -220 m 2,0,1
 530.615 -220 530.615 -220 563.308 -203 c 128,-1,2
 596 -186 596 -186 609.5 -167.5 c 0,3,4
 645 -118.852 645 -118.852 645 71 c 2,5,-1
 645 957 l 1,6,-1
 254 957 l 1,7,-1
 254 1097 l 1,8,-1
 827 1097 l 1,9,-1
 827 127 l 2,10,11
 827 -129.375 827 -129.375 786.352 -211.942 c 128,-1,12
 745.703 -294.51 745.703 -294.51 677 -321.5 c 0,13,14
 579 -360 579 -360 435 -360 c 2,15,-1
 172 -360 l 1,16,-1
 172 -220 l 1,17,-1
 434 -220 l 2,0,1
613 1386 m 2,18,-1
 613 1485 l 2,19,20
 613 1521 613 1521 653.5 1548.5 c 128,-1,21
 694 1576 694 1576 734 1576 c 128,-1,22
 774 1576 774 1576 814.5 1548.5 c 128,-1,23
 855 1521 855 1521 855 1485 c 2,24,-1
 855 1386 l 2,25,26
 855 1350 855 1350 814.5 1322.5 c 128,-1,27
 774 1295 774 1295 734 1295 c 128,-1,28
 694 1295 694 1295 653.5 1322.5 c 128,-1,29
 613 1350 613 1350 613 1386 c 2,18,-1
EndSplineSet
EndChar

StartChar: k
Encoding: 107 107 78
Width: 1229
Flags: W
LayerCount: 2
Fore
SplineSet
392 652 m 1,0,-1
 878 1097 l 1,1,-1
 1108 1097 l 1,2,-1
 619 642 l 1,3,-1
 1175 0 l 1,4,-1
 947 0 l 1,5,-1
 490 558 l 1,6,-1
 392 472 l 1,7,-1
 392 0 l 1,8,-1
 210 0 l 1,9,-1
 210 1545 l 1,10,-1
 392 1565 l 1,11,-1
 392 652 l 1,0,-1
EndSplineSet
EndChar

StartChar: l
Encoding: 108 108 79
Width: 1229
Flags: W
LayerCount: 2
Fore
SplineSet
1039 0 m 1,0,-1
 894 0 l 2,1,2
 701.478 0 701.478 0 618 40 c 0,3,4
 570 63 570 63 541.5 93 c 0,5,6
 467.984 170.385 467.984 170.385 465 433 c 1,7,-1
 465 1425 l 1,8,-1
 137 1425 l 1,9,-1
 137 1565 l 1,10,-1
 647 1565 l 1,11,-1
 647 442 l 2,12,13
 647 243.133 647 243.133 683.455 198.172 c 128,-1,14
 719.91 153.211 719.91 153.211 774.955 146.605 c 128,-1,15
 830 140 830 140 887 140 c 2,16,-1
 1048 140 l 1,17,-1
 1039 0 l 1,0,-1
EndSplineSet
EndChar

StartChar: m
Encoding: 109 109 80
Width: 1229
Flags: W
LayerCount: 2
Fore
SplineSet
668 960 m 1,0,1
 734 1130 734 1130 899 1130 c 0,2,3
 1108.12 1130 1108.12 1130 1135 829 c 0,4,5
 1140 773 1140 773 1140 703 c 2,6,-1
 1140 0 l 1,7,-1
 973 0 l 1,8,-1
 973 682 l 2,9,10
 973 878.529 973 878.529 946.929 926.071 c 128,-1,11
 920.857 973.613 920.857 973.613 899.429 981.807 c 128,-1,12
 878 990 878 990 851.5 990 c 0,13,14
 764.241 990 764.241 990 727.2 892.345 c 0,15,16
 703 828.545 703 828.545 703 680 c 2,17,-1
 703 0 l 1,18,-1
 550 0 l 1,19,-1
 550 669 l 2,20,21
 550 890.185 550 890.185 497.652 956.104 c 0,22,23
 470.735 990 470.735 990 420.368 990 c 128,-1,24
 370 990 370 990 333.5 945.5 c 0,25,26
 267 864.425 267 864.425 267 721 c 2,27,-1
 267 0 l 1,28,-1
 100 0 l 1,29,-1
 100 1097 l 1,30,-1
 245 1097 l 1,31,-1
 256 952 l 1,32,33
 285 1027 285 1027 336 1078.5 c 128,-1,34
 387 1130 387 1130 463.5 1130 c 128,-1,35
 540 1130 540 1130 593.5 1085 c 128,-1,36
 647 1040 647 1040 668 960 c 1,0,1
EndSplineSet
EndChar

StartChar: n
Encoding: 110 110 81
Width: 1229
Flags: W
LayerCount: 2
Fore
SplineSet
713 1130 m 0,0,1
 1054 1130 1054 1130 1054 698 c 2,2,-1
 1054 0 l 1,3,-1
 872 0 l 1,4,-1
 872 676 l 2,5,6
 872 791.889 872 791.889 860.127 842.017 c 128,-1,7
 848.255 892.146 848.255 892.146 823.795 924.05 c 0,8,9
 773 990 773 990 656.617 990 c 1,10,11
 540 990 540 990 459 922 c 128,-1,12
 378 854 378 854 378 742 c 2,13,-1
 378 0 l 1,14,-1
 196 0 l 1,15,-1
 196 1097 l 1,16,-1
 363 1097 l 1,17,-1
 373 978 l 1,18,19
 482 1130 482 1130 713 1130 c 0,0,1
EndSplineSet
EndChar

StartChar: o
Encoding: 111 111 82
Width: 1229
Flags: W
LayerCount: 2
Fore
SplineSet
612 115 m 0,0,1
 803.207 115 803.207 115 872 305 c 0,2,3
 909 407.19 909 407.19 909 514.595 c 128,-1,4
 909 622 909 622 901 682 c 0,5,6
 882.899 817.759 882.899 817.759 814.632 903.879 c 128,-1,7
 746.366 990 746.366 990 612 990 c 0,8,9
 426.308 990 426.308 990 358.5 796.5 c 0,10,11
 322 692.341 322 692.341 322 578.171 c 0,12,13
 322 376.258 322 376.258 384.783 245.629 c 128,-1,14
 447.566 115 447.566 115 612 115 c 0,0,1
1091 551.913 m 128,-1,16
 1091 294 1091 294 962 134.5 c 128,-1,17
 833 -25 833 -25 612 -25 c 0,18,19
 494 -25 494 -25 402 20 c 128,-1,20
 310 65 310 65 253 144 c 0,21,22
 138 303.386 138 303.386 138 558.193 c 128,-1,23
 138 813 138 813 265 971.5 c 128,-1,24
 392 1130 392 1130 622.726 1130 c 128,-1,25
 853.452 1130 853.452 1130 972.226 969.913 c 128,-1,15
 1091 809.826 1091 809.826 1091 551.913 c 128,-1,16
EndSplineSet
EndChar

StartChar: p
Encoding: 112 112 83
Width: 1229
Flags: W
LayerCount: 2
Fore
SplineSet
339 555 m 0,0,1
 339 115 339 115 647 115 c 0,2,3
 924 115 924 115 924 555 c 0,4,5
 924 799.066 924 799.066 849.34 894.533 c 128,-1,6
 774.68 990 774.68 990 644 990 c 0,7,8
 388.081 990 388.081 990 347.5 694 c 0,9,10
 339 632 339 632 339 555 c 0,0,1
653.5 -25 m 1,11,12
 548 -25 548 -25 466 24 c 128,-1,13
 384 73 384 73 341 150 c 1,14,-1
 341 -421 l 1,15,-1
 159 -441 l 1,16,-1
 159 1097 l 1,17,-1
 341 1097 l 1,18,-1
 341 946 l 1,19,20
 389 1028 389 1028 469 1079 c 128,-1,21
 549 1130 549 1130 649.5 1130 c 0,22,23
 921.38 1130 921.38 1130 1034.98 905.948 c 0,24,25
 1107 763.917 1107 763.917 1107 568 c 0,26,27
 1107 254.921 1107 254.921 956.5 92.5 c 0,28,29
 848 -25 848 -25 653.5 -25 c 1,11,12
EndSplineSet
EndChar

StartChar: q
Encoding: 113 113 84
Width: 1229
Flags: W
LayerCount: 2
Fore
SplineSet
907 555 m 0,0,1
 907 990 907 990 586 990 c 0,2,3
 289 990 289 990 289 555 c 0,4,5
 289 227.788 289 227.788 467 140.5 c 0,6,7
 519 115 519 115 596 115 c 128,-1,8
 673 115 673 115 737 150 c 128,-1,9
 801 185 801 185 837 247.5 c 0,10,11
 907 369.028 907 369.028 907 555 c 0,0,1
907 946 m 1,12,-1
 907 1097 l 1,13,-1
 1089 1097 l 1,14,-1
 1089 -421 l 1,15,-1
 909 -441 l 1,16,-1
 907 150 l 1,17,18
 843 66 843 66 762.5 20.5 c 128,-1,19
 682 -25 682 -25 565 -25 c 128,-1,20
 448 -25 448 -25 358.5 22 c 128,-1,21
 269 69 269 69 215 152 c 0,22,23
 106 319.537 106 319.537 106 563.534 c 0,24,25
 106 807.532 106 807.532 222.214 968.766 c 0,26,27
 338.429 1130 338.429 1130 565 1130 c 0,28,29
 689 1130 689 1130 769 1083 c 128,-1,30
 849 1036 849 1036 907 946 c 1,12,-1
EndSplineSet
EndChar

StartChar: r
Encoding: 114 114 85
Width: 1229
Flags: W
LayerCount: 2
Fore
SplineSet
543 0 m 1,0,-1
 361 0 l 1,1,-1
 361 1097 l 1,2,-1
 510 1097 l 1,3,-1
 525 894 l 1,4,5
 592 1010 592 1010 701 1070 c 128,-1,6
 810 1130 810 1130 948 1130 c 2,7,-1
 1036 1130 l 1,8,-1
 1036 961 l 1,9,-1
 922 961 l 2,10,11
 747 961 747 961 645 873.5 c 128,-1,12
 543 786 543 786 543 610 c 2,13,-1
 543 0 l 1,0,-1
EndSplineSet
EndChar

StartChar: s
Encoding: 115 115 86
Width: 1229
Flags: W
LayerCount: 2
Fore
SplineSet
955.5 512 m 128,-1,1
 1021 436 1021 436 1021 292.5 c 128,-1,2
 1021 149 1021 149 911.5 62 c 128,-1,3
 802 -25 802 -25 637 -25 c 0,4,5
 519 -25 519 -25 408 4.5 c 128,-1,6
 297 34 297 34 244 74 c 1,7,-1
 289 205 l 1,8,9
 331 179 331 179 422 152.5 c 128,-1,10
 513 126 513 126 619.5 126 c 128,-1,11
 726 126 726 126 789.5 170.5 c 128,-1,12
 853 215 853 215 853 289 c 128,-1,13
 853 363 853 363 821.5 405.5 c 128,-1,14
 790 448 790 448 700 470 c 2,15,-1
 514 515 l 2,16,17
 352.789 554.805 352.789 554.805 299.895 631.313 c 0,18,19
 247 707.821 247 707.821 247 822.1 c 0,20,21
 247 936.379 247 936.379 339.601 1032.17 c 0,22,23
 432.202 1127.97 432.202 1127.97 609 1130 c 1,24,-1
 622 1130 l 2,25,26
 821 1130 821 1130 961 1055 c 1,27,-1
 921 927 l 1,28,29
 775 989 775 989 625 989 c 1,30,31
 532 988 532 988 472.5 942.5 c 128,-1,32
 413 897 413 897 413 828 c 128,-1,33
 413 759 413 759 443 724.5 c 128,-1,34
 473 690 473 690 557 670 c 2,35,-1
 748 623 l 2,36,0
 890 588 890 588 955.5 512 c 128,-1,1
EndSplineSet
EndChar

StartChar: t
Encoding: 116 116 87
Width: 1229
Flags: W
LayerCount: 2
Fore
SplineSet
583 957 m 1,0,-1
 583 442 l 2,1,2
 583 346 583 346 593.5 290 c 128,-1,3
 604 234 604 234 635.5 199 c 128,-1,4
 667 164 667 164 717 152 c 128,-1,5
 767 140 767 140 853 140 c 2,6,-1
 1054 140 l 1,7,-1
 1044 0 l 1,8,-1
 860 0 l 2,9,10
 576.899 0 576.899 0 483 104.5 c 0,11,12
 422.125 172.248 422.125 172.248 407.5 323 c 0,13,14
 401 390 401 390 401 488 c 2,15,-1
 401 957 l 1,16,-1
 91 957 l 1,17,-1
 111 1097 l 1,18,-1
 401 1097 l 1,19,-1
 401 1475 l 1,20,-1
 583 1529 l 1,21,-1
 583 1097 l 1,22,-1
 1045 1097 l 1,23,-1
 1045 957 l 1,24,-1
 583 957 l 1,0,-1
EndSplineSet
EndChar

StartChar: u
Encoding: 117 117 88
Width: 1229
Flags: W
LayerCount: 2
Fore
SplineSet
1039 356 m 2,0,1
 1039 -25 1039 -25 615 -25 c 128,-1,2
 191 -25 191 -25 191 356 c 2,3,-1
 191 1097 l 1,4,-1
 373 1097 l 1,5,-1
 373 340 l 2,6,7
 373 223 373 223 431 169 c 128,-1,8
 489 115 489 115 615 115 c 128,-1,9
 741 115 741 115 799 169 c 128,-1,10
 857 223 857 223 857 340 c 2,11,-1
 857 1097 l 1,12,-1
 1039 1097 l 1,13,-1
 1039 356 l 2,0,1
EndSplineSet
EndChar

StartChar: v
Encoding: 118 118 89
Width: 1229
Flags: W
LayerCount: 2
Fore
SplineSet
618 189 m 1,0,1
 705 426 705 426 939 1097 c 1,2,-1
 1141 1097 l 1,3,-1
 714 0 l 1,4,-1
 511 0 l 1,5,-1
 87 1097 l 1,6,-1
 297 1097 l 1,7,-1
 618 189 l 1,0,1
EndSplineSet
EndChar

StartChar: w
Encoding: 119 119 90
Width: 1229
Flags: W
LayerCount: 2
Fore
SplineSet
424 0 m 1,0,-1
 238 0 l 1,1,-1
 24 1097 l 1,2,-1
 207 1097 l 1,3,-1
 338 250 l 1,4,-1
 521 1097 l 1,5,-1
 738 1097 l 1,6,-1
 917 253 l 1,7,-1
 1032 1097 l 1,8,-1
 1204 1097 l 1,9,-1
 1003 0 l 1,10,-1
 811 0 l 1,11,-1
 628 953 l 1,12,-1
 424 0 l 1,0,-1
EndSplineSet
EndChar

StartChar: x
Encoding: 120 120 91
Width: 1229
Flags: W
LayerCount: 2
Fore
SplineSet
158 1097 m 1,0,-1
 366 1097 l 1,1,-1
 627 675 l 1,2,-1
 888 1097 l 1,3,-1
 1077 1097 l 1,4,-1
 740 565 l 1,5,-1
 1089 0 l 1,6,-1
 887 0 l 1,7,-1
 619 437 l 1,8,-1
 340 0 l 1,9,-1
 140 0 l 1,10,-1
 500 560 l 1,11,-1
 158 1097 l 1,0,-1
EndSplineSet
EndChar

StartChar: y
Encoding: 121 121 92
Width: 1229
Flags: W
LayerCount: 2
Fore
SplineSet
644 208 m 1,0,-1
 934 1097 l 1,1,-1
 1133 1097 l 1,2,3
 829.488 239.425 829.488 239.425 774.244 97.7125 c 128,-1,4
 719 -44 719 -44 699 -95 c 128,-1,5
 679 -146 679 -146 654 -200 c 128,-1,6
 629 -254 629 -254 595 -298.5 c 128,-1,7
 561 -343 561 -343 530.5 -364.5 c 128,-1,8
 500 -386 500 -386 434.633 -404.5 c 128,-1,9
 369.267 -423 369.267 -423 191 -423 c 1,10,-1
 170 -270 l 1,11,12
 302.857 -270 302.857 -270 329.429 -264 c 128,-1,13
 356 -258 356 -258 380 -250.5 c 128,-1,14
 404 -243 404 -243 416 -232.5 c 128,-1,15
 428 -222 428 -222 445.5 -205 c 0,16,17
 491.726 -160.095 491.726 -160.095 549 24 c 1,18,19
 266.832 671.566 266.832 671.566 142 988 c 2,20,-1
 99 1097 l 1,21,-1
 296 1097 l 1,22,-1
 644 208 l 1,0,-1
EndSplineSet
EndChar

StartChar: z
Encoding: 122 122 93
Width: 1229
Flags: W
LayerCount: 2
Fore
SplineSet
223 1097 m 1,0,-1
 955 1097 l 1,1,-1
 955 959 l 1,2,-1
 402 140 l 1,3,-1
 992 138 l 1,4,-1
 992 0 l 1,5,-1
 203 0 l 1,6,-1
 203 142 l 1,7,-1
 746 957 l 1,8,-1
 223 957 l 1,9,-1
 223 1097 l 1,0,-1
EndSplineSet
EndChar

StartChar: braceleft
Encoding: 123 123 94
Width: 1229
Flags: W
LayerCount: 2
Fore
SplineSet
514 455 m 2,0,1
 514 572 514 572 433.5 636.5 c 128,-1,2
 353 701 353 701 225 709 c 1,3,-1
 225 844 l 1,4,5
 354 852 354 852 434 916 c 128,-1,6
 514 980 514 980 514 1097 c 2,7,-1
 514 1330 l 2,8,9
 514 1527 514 1527 595.5 1616.5 c 128,-1,10
 677 1706 677 1706 870 1706 c 2,11,-1
 873 1706 l 1,12,-1
 1101 1705 l 1,13,-1
 1101 1569 l 1,14,-1
 873 1569 l 2,15,16
 807.257 1569 807.257 1569 771.629 1526 c 0,17,18
 736 1483 736 1483 736 1330 c 2,19,-1
 736 1089 l 2,20,21
 736 925.5 736 925.5 640 853.5 c 0,22,23
 587.808 814.356 587.808 814.356 490 776 c 1,24,25
 648.011 714.035 648.011 714.035 692.006 644.57 c 128,-1,26
 736 575.105 736 575.105 736 464 c 2,27,-1
 736 223 l 2,28,29
 736 71.5862 736 71.5862 769.803 27.2931 c 128,-1,30
 803.605 -17 803.605 -17 873 -17 c 2,31,-1
 1101 -17 l 1,32,-1
 1101 -152 l 1,33,-1
 873 -153 l 1,34,-1
 870 -153 l 2,35,36
 677 -153 677 -153 595.5 -63.5 c 128,-1,37
 514 26 514 26 514 223 c 2,38,-1
 514 455 l 2,0,1
EndSplineSet
EndChar

StartChar: bar
Encoding: 124 124 95
Width: 1229
Flags: W
LayerCount: 2
Fore
SplineSet
530 -441 m 1,0,-1
 530 1585 l 1,1,-1
 691 1585 l 1,2,-1
 691 -441 l 1,3,-1
 530 -441 l 1,0,-1
EndSplineSet
EndChar

StartChar: braceright
Encoding: 125 125 96
Width: 1229
Flags: W
LayerCount: 2
Fore
SplineSet
790 1097 m 2,0,1
 790 980 790 980 870 916 c 128,-1,2
 950 852 950 852 1079 844 c 1,3,-1
 1079 709 l 1,4,5
 951 701 951 701 870.5 636.5 c 128,-1,6
 790 572 790 572 790 455 c 2,7,-1
 790 223 l 2,8,9
 790 26 790 26 708.5 -63.5 c 128,-1,10
 627 -153 627 -153 434 -153 c 2,11,-1
 431 -153 l 1,12,-1
 202 -152 l 1,13,-1
 202 -17 l 1,14,-1
 431 -17 l 2,15,16
 536.071 -17 536.071 -17 557.5 83 c 0,17,18
 568 132 568 132 568 223 c 2,19,-1
 568 464 l 2,20,21
 568 607.889 568 607.889 630.249 668.409 c 0,22,23
 692.499 728.929 692.499 728.929 813 776 c 1,24,25
 653.547 838.531 653.547 838.531 610.774 909.049 c 0,26,27
 568 979.568 568 979.568 568 1089 c 2,28,-1
 568 1330 l 2,29,30
 568 1456.78 568 1456.78 553.5 1487.39 c 128,-1,31
 539 1518 539 1518 524.5 1535.5 c 0,32,33
 496.743 1569 496.743 1569 431 1569 c 2,34,-1
 202 1569 l 1,35,-1
 202 1705 l 1,36,-1
 431 1706 l 1,37,-1
 434 1706 l 2,38,39
 627 1706 627 1706 708.5 1616.5 c 128,-1,40
 790 1527 790 1527 790 1330 c 2,41,-1
 790 1097 l 2,0,1
EndSplineSet
EndChar

StartChar: asciitilde
Encoding: 126 126 97
Width: 1229
Flags: W
LayerCount: 2
Fore
SplineSet
1332 1108 m 1,0,1
 1324 1072 1324 1072 1320 1053.5 c 0,2,3
 1290.7 917.989 1290.7 917.989 1245 863.5 c 0,4,5
 1175.81 781 1175.81 781 1083.96 781 c 128,-1,6
 992.111 781 992.111 781 860.5 832.5 c 0,7,8
 498.889 974 498.889 974 455 974 c 0,9,10
 362 974 362 974 334 784 c 1,11,-1
 152 844 l 1,12,13
 196.122 1057.26 196.122 1057.26 313 1123 c 0,14,15
 361 1150 361 1150 413.5 1150 c 128,-1,16
 466 1150 466 1150 530.345 1133.63 c 128,-1,17
 594.691 1117.26 594.691 1117.26 649.845 1094.63 c 128,-1,18
 705 1072 705 1072 745.5 1055.5 c 2,19,-1
 799.5 1033.5 l 2,20,21
 982.364 959 982.364 959 1018.18 959 c 128,-1,22
 1054 959 1054 959 1072.5 971.5 c 0,23,24
 1122.45 1005.25 1122.45 1005.25 1141.74 1115.84 c 0,25,26
 1147 1146 1147 1146 1148 1150 c 1,27,-1
 1332 1108 l 1,0,1
EndSplineSet
EndChar

StartChar: exclamdown
Encoding: 161 161 99
Width: 1229
Flags: W
LayerCount: 2
Fore
SplineSet
723 1184 m 1,0,-1
 723 959 l 1,1,-1
 487 959 l 1,2,-1
 487 1184 l 1,3,-1
 723 1184 l 1,0,-1
542 -417 m 1,4,-1
 542 753 l 1,5,-1
 715 753 l 1,6,-1
 715 -417 l 1,7,-1
 542 -417 l 1,4,-1
EndSplineSet
EndChar

StartChar: cent
Encoding: 162 162 100
Width: 1229
Flags: W
LayerCount: 2
Fore
SplineSet
752 -277 m 1,0,-1
 624 -277 l 1,1,-1
 624 -20 l 1,2,3
 518 -6 518 -6 431.5 46.5 c 128,-1,4
 345 99 345 99 289 177 c 0,5,6
 173 338.571 173 338.571 173 552.857 c 0,7,8
 173 767.142 173 767.142 292.5 930 c 0,9,10
 349 1007 349 1007 435 1059 c 128,-1,11
 521 1111 521 1111 624 1125 c 1,12,-1
 624 1368 l 1,13,-1
 752 1368 l 1,14,-1
 752 1128 l 1,15,16
 915 1115 915 1115 999 1035 c 1,17,-1
 953 913 l 1,18,19
 861 975 861 975 752 987 c 1,20,-1
 752 117 l 1,21,22
 864 129 864 129 958 195 c 1,23,-1
 1002 72 l 1,24,25
 914 -10 914 -10 752 -23 c 1,26,-1
 752 -277 l 1,0,-1
624 125 m 1,27,-1
 624 981 l 1,28,29
 504 951 504 951 430.5 833.5 c 128,-1,30
 357 716 357 716 357 551.5 c 128,-1,31
 357 387 357 387 428 272 c 128,-1,32
 499 157 499 157 624 125 c 1,27,-1
EndSplineSet
EndChar

StartChar: sterling
Encoding: 163 163 101
Width: 1229
Flags: W
LayerCount: 2
Fore
SplineSet
960 1343 m 1,0,1
 878.571 1418 878.571 1418 755.986 1418 c 128,-1,2
 633.4 1418 633.4 1418 568.7 1340.12 c 128,-1,3
 504 1262.24 504 1262.24 504 1028 c 1,4,-1
 508 903 l 1,5,-1
 874 903 l 1,6,-1
 874 756 l 1,7,-1
 511 756 l 1,8,-1
 511 605 l 2,9,10
 511 333.826 511 333.826 460 228.5 c 0,11,12
 437 181 437 181 401 153 c 1,13,-1
 1038 153 l 1,14,-1
 1038 0 l 1,15,-1
 120 0 l 1,16,-1
 119 150 l 1,17,18
 183 186 183 186 224.5 224.5 c 0,19,20
 321 314.024 321 314.024 321 478 c 2,21,-1
 321 756 l 1,22,-1
 119 756 l 1,23,-1
 119 903 l 1,24,-1
 320 903 l 1,25,26
 313 962 313 962 313 1043.5 c 0,27,28
 313 1341.66 313 1341.66 451.793 1476.16 c 0,29,30
 550.691 1572 550.691 1572 744 1572 c 0,31,32
 849 1572 849 1572 910 1546.5 c 128,-1,33
 971 1521 971 1521 1018 1473 c 1,34,-1
 960 1343 l 1,0,1
EndSplineSet
EndChar

StartChar: currency
Encoding: 164 164 102
Width: 1229
Flags: W
LayerCount: 2
Fore
SplineSet
325 1264 m 1,0,1
 448 1376 448 1376 617.5 1376 c 0,2,3
 787 1376 787 1376 912 1261 c 1,4,-1
 1149 1480 l 1,5,-1
 1194 1424 l 1,6,-1
 960 1208 l 1,7,8
 1052 1089 1052 1089 1052 941 c 128,-1,9
 1052 793 1052 793 961 675 c 1,10,-1
 1194 459 l 1,11,-1
 1149 403 l 1,12,-1
 912 622 l 1,13,14
 786 506 786 506 617 506 c 128,-1,15
 448 506 448 506 324 619 c 1,16,-1
 91 403 l 1,17,-1
 38 454 l 1,18,-1
 275 672 l 1,19,20
 182 791 182 791 182 941 c 128,-1,21
 182 1091 182 1091 275 1210 c 1,22,-1
 38 1429 l 1,23,-1
 91 1480 l 1,24,-1
 325 1264 l 1,0,1
272 941 m 128,-1,26
 272 798 272 798 373 697 c 128,-1,27
 474 596 474 596 617 596 c 128,-1,28
 760 596 760 596 861 697 c 128,-1,29
 962 798 962 798 962 941 c 128,-1,30
 962 1084 962 1084 861 1185 c 128,-1,31
 760 1286 760 1286 617 1286 c 128,-1,32
 474 1286 474 1286 373 1185 c 128,-1,25
 272 1084 272 1084 272 941 c 128,-1,26
EndSplineSet
EndChar

StartChar: yen
Encoding: 165 165 103
Width: 1229
Flags: W
LayerCount: 2
Fore
SplineSet
611 0 m 1,0,-1
 611 307 l 1,1,-1
 171 307 l 1,2,-1
 159 459 l 1,3,-1
 610 459 l 1,4,-1
 610 623 l 1,5,-1
 163 623 l 1,6,-1
 163 778 l 1,7,-1
 571 778 l 1,8,-1
 78 1541 l 1,9,-1
 305 1541 l 1,10,11
 346 1474 346 1474 482.361 1251.64 c 0,12,13
 618.723 1029.28 618.723 1029.28 715 864 c 1,14,-1
 1127 1541 l 1,15,-1
 1334 1541 l 1,16,-1
 830 778 l 1,17,-1
 1232 778 l 1,18,-1
 1232 623 l 1,19,-1
 800 623 l 1,20,-1
 800 459 l 1,21,-1
 1236 459 l 1,22,-1
 1236 307 l 1,23,-1
 803 307 l 1,24,-1
 803 0 l 1,25,-1
 611 0 l 1,0,-1
EndSplineSet
EndChar

StartChar: brokenbar
Encoding: 166 166 104
Width: 1229
Flags: W
LayerCount: 2
Fore
SplineSet
539 1677 m 1,0,-1
 711 1677 l 1,1,-1
 711 735 l 1,2,-1
 539 735 l 1,3,-1
 539 1677 l 1,0,-1
539 427 m 1,4,-1
 711 427 l 1,5,-1
 711 -533 l 1,6,-1
 539 -533 l 1,7,-1
 539 427 l 1,4,-1
EndSplineSet
EndChar

StartChar: section
Encoding: 167 167 105
Width: 1229
Flags: W
LayerCount: 2
Fore
SplineSet
692 594 m 1,0,1
 806.09 661.741 806.09 661.741 834.5 721.5 c 0,2,3
 849 752 849 752 849 786.5 c 128,-1,4
 849 821 849 821 830.5 850 c 128,-1,5
 812 879 812 879 779 900 c 128,-1,6
 746 921 746 921 715 935.5 c 128,-1,7
 684 950 684 950 643.5 966 c 128,-1,8
 603 982 603 982 586 991 c 1,9,10
 439 914 439 914 439 805.81 c 128,-1,11
 439 697.621 439 697.621 614.5 625 c 0,12,13
 629 619 629 619 656 608.5 c 128,-1,14
 683 598 683 598 692 594 c 1,0,1
451 1060 m 1,15,16
 283 1158.18 283 1158.18 283 1318.55 c 128,-1,17
 283 1478.92 283 1478.92 404.786 1549.96 c 128,-1,18
 526.571 1621 526.571 1621 706 1621 c 0,19,20
 806 1621 806 1621 959 1576 c 1,21,-1
 960 1416 l 1,22,23
 829 1473 829 1473 711 1473 c 0,24,25
 473 1473 473 1473 473 1330 c 0,26,27
 473 1201.87 473 1201.87 669 1124.5 c 0,28,29
 688 1117 688 1117 774.734 1084.1 c 128,-1,30
 861.469 1051.2 861.469 1051.2 930 1006 c 0,31,32
 1047 927 1047 927 1047 800 c 0,33,34
 1047 699.075 1047 699.075 985.02 635.245 c 128,-1,35
 923.041 571.415 923.041 571.415 842 522 c 1,36,37
 1021 431 1021 431 1021 274 c 0,38,39
 1021 192 1021 192 983 128 c 128,-1,40
 945 64 945 64 880.5 25.5 c 0,41,42
 750.662 -52 750.662 -52 579.831 -52 c 129,-1,43
 409 -52 409 -52 273 5 c 1,44,-1
 272 166 l 1,45,46
 421 97 421 97 545.081 97 c 128,-1,47
 669.162 97 669.162 97 726.081 124 c 0,48,49
 829 172.82 829 172.82 829 264 c 0,50,51
 829 369.611 829 369.611 657 436.5 c 0,52,53
 630 447 630 447 575.094 466.253 c 0,54,55
 520.189 485.505 520.189 485.505 436.837 524.576 c 128,-1,56
 353.485 563.648 353.485 563.648 298.743 628.244 c 128,-1,57
 244 692.84 244 692.84 244 793.697 c 128,-1,58
 244 894.554 244 894.554 305.867 955.469 c 128,-1,59
 367.734 1016.38 367.734 1016.38 451 1060 c 1,15,16
EndSplineSet
EndChar

StartChar: dieresis
Encoding: 168 168 106
Width: 1229
Flags: W
LayerCount: 2
Fore
SplineSet
765 1279 m 1,0,1
 774 1383 774 1383 774 1458 c 1,2,3
 872 1448 872 1448 958 1448 c 1,4,5
 946 1362 946 1362 946 1268 c 1,6,7
 850 1279 850 1279 765 1279 c 1,0,1
330 1448 m 1,8,9
 416 1448 416 1448 514 1458 c 1,10,11
 514 1372 514 1372 525 1279 c 1,12,13
 435 1279 435 1279 341 1268 c 1,14,15
 341 1355 341 1355 330 1448 c 1,8,9
EndSplineSet
EndChar

StartChar: copyright
Encoding: 169 169 107
Width: 1229
Flags: W
LayerCount: 2
Fore
SplineSet
1234 1069 m 1,0,1
 1113 1173 1113 1173 941.5 1173 c 128,-1,2
 770 1173 770 1173 669 1068.5 c 128,-1,3
 568 964 568 964 568 795 c 1,4,-1
 570 795 l 1,5,6
 570 622 570 622 674 517.5 c 128,-1,7
 778 413 778 413 952 413 c 128,-1,8
 1126 413 1126 413 1229 499 c 1,9,-1
 1273 368 l 1,10,11
 1134 270 1134 270 932 270 c 0,12,13
 810 270 810 270 707.5 314 c 128,-1,14
 605 358 605 358 539 431.5 c 0,15,16
 400 586.295 400 586.295 400 792 c 0,17,18
 400 915 400 915 445 1015.5 c 128,-1,19
 490 1116 490 1116 566.5 1179.5 c 0,20,21
 724.921 1311 724.921 1311 929.961 1311 c 128,-1,22
 1135 1311 1135 1311 1269 1200 c 1,23,-1
 1234 1069 l 1,0,1
509.5 1393 m 128,-1,25
 337 1303 337 1303 241.5 1150 c 128,-1,26
 146 997 146 997 146 813 c 0,27,28
 146 420.269 146 420.269 462 213 c 0,29,30
 646.475 92 646.475 92 876 92 c 0,31,32
 1049 92 1049 92 1195 145.5 c 128,-1,33
 1341 199 1341 199 1440.5 292 c 128,-1,34
 1540 385 1540 385 1595 512.5 c 128,-1,35
 1650 640 1650 640 1650 780 c 128,-1,36
 1650 920 1650 920 1605 1035.5 c 0,37,38
 1522.63 1246.92 1522.63 1246.92 1321.45 1364.96 c 128,-1,39
 1120.26 1483 1120.26 1483 901.13 1483 c 128,-1,24
 682 1483 682 1483 509.5 1393 c 128,-1,25
1793 787 m 1,40,41
 1793 425.235 1793 425.235 1526.85 195.618 c 128,-1,42
 1260.7 -34 1260.7 -34 904 -34 c 0,43,44
 641 -34 641 -34 443 76.5 c 128,-1,45
 245 187 245 187 125.5 374 c 128,-1,46
 6 561 6 561 6 788 c 0,47,48
 6 1150.42 6 1150.42 276.134 1380.21 c 128,-1,49
 546.267 1610 546.267 1610 898 1610 c 0,50,51
 1160 1610 1160 1610 1355.5 1499 c 128,-1,52
 1551 1388 1551 1388 1671.5 1200.5 c 128,-1,53
 1792 1013 1792 1013 1792 787 c 1,54,-1
 1793 787 l 1,40,41
EndSplineSet
EndChar

StartChar: ordfeminine
Encoding: 170 170 108
Width: 1229
Flags: W
LayerCount: 2
Fore
SplineSet
580 945 m 0,0,1
 682 945 682 945 740 1009 c 128,-1,2
 798 1073 798 1073 798 1178 c 2,3,-1
 798 1205 l 1,4,5
 764.633 1198.58 764.633 1198.58 659.577 1191.48 c 0,6,7
 554.521 1184.39 554.521 1184.39 491.761 1156.86 c 128,-1,8
 429 1129.33 429 1129.33 429 1061 c 0,9,10
 429 945 429 945 580 945 c 0,0,1
945 1340 m 1,11,-1
 941 1086 l 1,12,13
 941 963 941 963 951 853 c 1,14,-1
 806 853 l 1,15,-1
 799 933 l 1,16,17
 720 834 720 834 555 834 c 0,18,19
 436 834 436 834 356 892.5 c 128,-1,20
 276 951 276 951 276 1069.25 c 128,-1,21
 276 1187.5 276 1187.5 383 1241 c 0,22,23
 467.197 1283.1 467.197 1283.1 612.011 1296.61 c 128,-1,24
 756.826 1310.13 756.826 1310.13 797 1315 c 1,25,26
 797 1411 797 1411 762 1448.5 c 128,-1,27
 727 1486 727 1486 633 1486 c 0,28,29
 468 1486 468 1486 401 1384 c 1,30,-1
 327 1466 l 1,31,32
 409 1604 409 1604 641 1604 c 0,33,34
 784 1604 784 1604 864.5 1538.5 c 128,-1,35
 945 1473 945 1473 945 1340 c 1,11,-1
EndSplineSet
EndChar

StartChar: guillemotleft
Encoding: 171 171 109
Width: 1229
Flags: W
LayerCount: 2
Fore
SplineSet
1086 992 m 1,0,-1
 794 588 l 1,1,-1
 1077 185 l 1,2,-1
 904 185 l 1,3,-1
 607 588 l 1,4,-1
 910 992 l 1,5,-1
 1086 992 l 1,0,-1
679 992 m 1,6,-1
 386 588 l 1,7,-1
 668 185 l 1,8,-1
 495 185 l 1,9,-1
 197 588 l 1,10,-1
 502 992 l 1,11,-1
 679 992 l 1,6,-1
EndSplineSet
EndChar

StartChar: logicalnot
Encoding: 172 172 110
Width: 1229
Flags: W
LayerCount: 2
Fore
SplineSet
1146 715 m 1,0,-1
 152 715 l 1,1,-1
 152 866 l 1,2,-1
 1311 866 l 1,3,-1
 1311 258 l 1,4,-1
 1146 258 l 1,5,-1
 1146 715 l 1,0,-1
EndSplineSet
EndChar

StartChar: registered
Encoding: 174 174 112
Width: 1229
Flags: W
LayerCount: 2
Fore
SplineSet
715 848 m 1,0,1
 858.5 848 l 2,2,3
 1007.08 848 1007.08 848 1058.22 862.966 c 0,4,5
 1160 892.756 1160 892.756 1160 999 c 0,6,7
 1160 1162 1160 1162 954 1162 c 2,8,-1
 715 1162 l 1,9,-1
 715 848 l 1,0,1
1167 296 m 1,10,11
 1150 326 1150 326 1100.43 414.466 c 128,-1,12
 1050.86 502.933 1050.86 502.933 997.108 584.835 c 128,-1,13
 943.36 666.737 943.36 666.737 869 721 c 1,14,-1
 718 721 l 1,15,-1
 718 296 l 1,16,-1
 554 296 l 1,17,-1
 554 1294 l 1,18,-1
 855 1294 l 1,19,-1
 854 1293 l 1,20,21
 1195.35 1293 1195.35 1293 1291 1155.5 c 0,22,23
 1331 1098 1331 1098 1331 1014 c 0,24,25
 1331 893 1331 893 1248 824 c 128,-1,26
 1165 755 1165 755 1038 740 c 1,27,28
 1120.65 661.02 1120.65 661.02 1195.58 548.635 c 128,-1,29
 1270.5 436.25 1270.5 436.25 1353 296 c 1,30,-1
 1167 296 l 1,10,11
201.5 1061.5 m 128,-1,32
 146 934 146 934 146 792.5 c 128,-1,33
 146 651 146 651 191.5 534.5 c 0,34,35
 274.4 322.24 274.4 322.24 480.156 206.12 c 128,-1,36
 686 90 686 90 928 90 c 1,37,38
 1089 90 1089 90 1227 147 c 128,-1,39
 1365 204 1365 204 1456 298.5 c 128,-1,40
 1547 393 1547 393 1598.5 513 c 128,-1,41
 1650 633 1650 633 1650 764.5 c 128,-1,42
 1650 896 1650 896 1609 1013 c 0,43,44
 1532.73 1230.65 1532.73 1230.65 1341.13 1356.33 c 128,-1,45
 1149.52 1482 1149.52 1482 922 1482 c 0,46,47
 748 1482 748 1482 601.5 1428.5 c 128,-1,48
 455 1375 455 1375 356 1282 c 128,-1,31
 257 1189 257 1189 201.5 1061.5 c 128,-1,32
1793 785 m 1,49,50
 1793 423.235 1793 423.235 1526.27 193.118 c 0,51,52
 1260 -37 1260 -37 892 -37 c 1,53,54
 641 -37 641 -37 443 73.5 c 128,-1,55
 245 184 245 184 125.5 371 c 128,-1,56
 6 558 6 558 6 786 c 0,57,58
 6 1146.47 6 1146.47 275.519 1377.24 c 128,-1,59
 545.038 1608 545.038 1608 898 1608 c 0,60,61
 1160 1608 1160 1608 1356 1497 c 128,-1,62
 1552 1386 1552 1386 1672 1198 c 128,-1,63
 1792 1010 1792 1010 1792 785 c 1,64,-1
 1793 785 l 1,49,50
EndSplineSet
EndChar

StartChar: macron
Encoding: 175 175 113
Width: 1229
Flags: W
LayerCount: 2
Fore
SplineSet
275 1499 m 1,0,-1
 275 1639 l 1,1,-1
 954 1639 l 1,2,-1
 954 1499 l 1,3,-1
 275 1499 l 1,0,-1
EndSplineSet
EndChar

StartChar: degree
Encoding: 176 176 114
Width: 1229
Flags: W
LayerCount: 2
Fore
SplineSet
1006 1248 m 0,0,1
 1006 1110 1006 1110 901.5 1019.5 c 128,-1,2
 797 929 797 929 649 929 c 0,3,4
 501 929 501 929 400 1028 c 128,-1,5
 299 1127 299 1127 299 1257 c 0,6,7
 299 1387 299 1387 403.5 1477 c 128,-1,8
 508 1567 508 1567 653 1567 c 0,9,10
 755 1567 755 1567 837.5 1519.5 c 128,-1,11
 920 1472 920 1472 963 1399.5 c 128,-1,12
 1006 1327 1006 1327 1006 1248 c 0,0,1
653 1054 m 128,-1,14
 743 1054 743 1054 805.5 1109.5 c 128,-1,15
 868 1165 868 1165 868 1250 c 128,-1,16
 868 1335 868 1335 805 1388.5 c 128,-1,17
 742 1442 742 1442 653 1442 c 128,-1,18
 564 1442 564 1442 501 1388 c 128,-1,19
 438 1334 438 1334 438 1249.5 c 0,20,21
 438 1165 438 1165 500.5 1109.5 c 128,-1,13
 563 1054 563 1054 653 1054 c 128,-1,14
EndSplineSet
EndChar

StartChar: plusminus
Encoding: 177 177 115
Width: 1229
Flags: W
LayerCount: 2
Fore
SplineSet
152 150 m 1,0,-1
 1312 150 l 1,1,-1
 1312 0 l 1,2,-1
 152 0 l 1,3,-1
 152 150 l 1,0,-1
644 1201 m 1,4,-1
 810 1201 l 1,5,-1
 810 795 l 1,6,-1
 1309 795 l 1,7,-1
 1309 645 l 1,8,-1
 813 645 l 1,9,-1
 813 242 l 1,10,-1
 647 242 l 1,11,-1
 647 645 l 1,12,-1
 152 645 l 1,13,-1
 152 795 l 1,14,-1
 644 795 l 1,15,-1
 644 1201 l 1,4,-1
EndSplineSet
EndChar

StartChar: uni00B2
Encoding: 178 178 116
Width: 1229
Flags: W
LayerCount: 2
Fore
SplineSet
430 1511 m 128,-1,1
 505 1564 505 1564 623.5 1564 c 128,-1,2
 742 1564 742 1564 829 1502 c 128,-1,3
 916 1440 916 1440 916 1308.9 c 128,-1,4
 916 1177.8 916 1177.8 795 1045 c 0,5,6
 716.465 958.803 716.465 958.803 665.232 914.401 c 128,-1,7
 614 870 614 870 601.5 859 c 128,-1,8
 589 848 589 848 555 819 c 128,-1,9
 521 790 521 790 514 784 c 1,10,-1
 915 784 l 1,11,-1
 915 656 l 1,12,-1
 312 656 l 1,13,-1
 312 776 l 1,14,15
 337 799 337 799 387 843 c 0,16,17
 774 1183.56 774 1183.56 774 1315 c 1,18,-1
 775 1315 l 1,19,20
 775 1375 775 1375 731.5 1405.5 c 128,-1,21
 688 1436 688 1436 621 1436 c 0,22,23
 482 1436 482 1436 414 1294 c 1,24,-1
 319 1378 l 1,25,0
 355 1458 355 1458 430 1511 c 128,-1,1
EndSplineSet
EndChar

StartChar: uni00B3
Encoding: 179 179 117
Width: 1229
Flags: W
LayerCount: 2
Fore
SplineSet
379 846 m 1,0,1
 472 761 472 761 580 761 c 1,2,-1
 580 760 l 1,3,4
 663 760 663 760 718 797 c 128,-1,5
 773 834 773 834 773 907 c 0,6,7
 773 1053 773 1053 535 1053 c 1,8,-1
 473 1051 l 1,9,-1
 473 1181 l 1,10,11
 590 1181 590 1181 641.182 1192.81 c 0,12,13
 746 1217 746 1217 746 1312 c 0,14,15
 746 1434 746 1434 590 1434 c 0,16,17
 486 1434 486 1434 377 1350 c 1,18,-1
 313 1454 l 1,19,20
 432 1564 432 1564 577.5 1564 c 128,-1,21
 723 1564 723 1564 808 1495.5 c 128,-1,22
 893 1427 893 1427 893 1305.5 c 128,-1,23
 893 1184 893 1184 774 1120 c 1,24,25
 916 1058 916 1058 916 905 c 0,26,27
 916 780 916 780 820 708 c 128,-1,28
 724 636 724 636 572.5 636 c 128,-1,29
 421 636 421 636 313 741 c 1,30,-1
 379 846 l 1,0,1
EndSplineSet
EndChar

StartChar: acute
Encoding: 180 180 118
Width: 1229
Flags: W
LayerCount: 2
Fore
SplineSet
418 1268 m 1,0,-1
 679 1705 l 1,1,-1
 911 1705 l 1,2,-1
 560 1268 l 1,3,-1
 418 1268 l 1,0,-1
EndSplineSet
EndChar

StartChar: uni00B5
Encoding: 181 181 119
Width: 1229
Flags: W
LayerCount: 2
Fore
SplineSet
378 49 m 1,0,-1
 378 -295 l 1,1,-1
 196 -295 l 1,2,-1
 196 1097 l 1,3,-1
 378 1097 l 1,4,-1
 378 421 l 2,5,6
 378 305.111 378 305.111 389.872 254.983 c 128,-1,7
 401.745 204.854 401.745 204.854 426.205 172.95 c 0,8,9
 477 107 477 107 593.383 107 c 1,10,11
 710 107 710 107 791 175 c 128,-1,12
 872 243 872 243 872 355 c 2,13,-1
 872 1097 l 1,14,-1
 1054 1097 l 1,15,-1
 1054 0 l 1,16,-1
 887 0 l 1,17,-1
 877 119 l 1,18,19
 768 -22 768 -22 537 -22 c 0,20,21
 445 -22 445 -22 378 49 c 1,0,-1
EndSplineSet
EndChar

StartChar: paragraph
Encoding: 182 182 120
Width: 1229
Flags: W
LayerCount: 2
Fore
SplineSet
66 1227 m 0,0,1
 66 1522.57 66 1522.57 466.5 1566.5 c 0,2,3
 544 1575 544 1575 637 1575 c 2,4,-1
 1065 1575 l 1,5,-1
 1065 1441 l 1,6,-1
 969 1441 l 1,7,-1
 969 -160 l 1,8,-1
 825 -160 l 1,9,-1
 825 1441 l 1,10,-1
 595 1441 l 1,11,-1
 595 -160 l 1,12,-1
 438 -160 l 1,13,-1
 438 853 l 1,14,15
 275 855 275 855 170.5 960 c 128,-1,16
 66 1065 66 1065 66 1227 c 0,0,1
EndSplineSet
EndChar

StartChar: periodcentered
Encoding: 183 183 121
Width: 1229
Flags: W
LayerCount: 2
Fore
SplineSet
487 557 m 1,0,-1
 487 785 l 1,1,-1
 728 785 l 1,2,-1
 728 557 l 1,3,-1
 487 557 l 1,0,-1
EndSplineSet
EndChar

StartChar: cedilla
Encoding: 184 184 122
Width: 1229
Flags: W
LayerCount: 2
Fore
SplineSet
731 -261 m 128,-1,1
 731 -183 731 -183 609 -183 c 0,2,3
 602 -183 602 -183 534 -188 c 1,4,-1
 569 19 l 1,5,-1
 677 19 l 1,6,-1
 657 -98 l 1,7,-1
 666 -97 l 1,8,9
 765 -97 765 -97 826.5 -136 c 128,-1,10
 888 -175 888 -175 888 -260 c 0,11,12
 888 -428 888 -428 617 -428 c 0,13,14
 541 -428 541 -428 428 -405 c 1,15,-1
 437 -313 l 1,16,17
 548 -339 548 -339 604 -339 c 0,18,0
 731 -339 731 -339 731 -261 c 128,-1,1
EndSplineSet
EndChar

StartChar: uni00B9
Encoding: 185 185 123
Width: 1229
Flags: W
LayerCount: 2
Fore
SplineSet
564 1381 m 1,0,1
 484 1340 484 1340 396 1306 c 1,2,-1
 397 1447 l 1,3,4
 492 1479 492 1479 582 1533 c 1,5,-1
 698 1549 l 1,6,-1
 698 781 l 1,7,-1
 833 781 l 1,8,-1
 833 656 l 1,9,-1
 430 656 l 1,10,-1
 430 785 l 1,11,-1
 564 785 l 1,12,-1
 564 1381 l 1,0,1
EndSplineSet
EndChar

StartChar: ordmasculine
Encoding: 186 186 124
Width: 1229
Flags: W
LayerCount: 2
Fore
SplineSet
501.5 1023 m 128,-1,1
 566 950 566 950 681 950 c 128,-1,2
 796 950 796 950 861.5 1023.5 c 128,-1,3
 927 1097 927 1097 927 1218 c 128,-1,4
 927 1339 927 1339 864 1412.5 c 128,-1,5
 801 1486 801 1486 683 1486 c 128,-1,6
 565 1486 565 1486 501 1412.5 c 128,-1,7
 437 1339 437 1339 437 1217.5 c 128,-1,0
 437 1096 437 1096 501.5 1023 c 128,-1,1
971.5 937.5 m 128,-1,9
 863 833 863 833 681 833 c 128,-1,10
 499 833 499 833 390 936 c 128,-1,11
 281 1039 281 1039 281 1217 c 128,-1,12
 281 1395 281 1395 391.5 1498.5 c 128,-1,13
 502 1602 502 1602 684 1602 c 128,-1,14
 866 1602 866 1602 973 1499.5 c 128,-1,15
 1080 1397 1080 1397 1080 1219.5 c 128,-1,8
 1080 1042 1080 1042 971.5 937.5 c 128,-1,9
EndSplineSet
EndChar

StartChar: guillemotright
Encoding: 187 187 125
Width: 1229
Flags: W
LayerCount: 2
Fore
SplineSet
636 185 m 1,0,-1
 926 589 l 1,1,-1
 645 992 l 1,2,-1
 817 992 l 1,3,-1
 1116 589 l 1,4,-1
 809 185 l 1,5,-1
 636 185 l 1,0,-1
197 185 m 1,6,-1
 489 589 l 1,7,-1
 203 992 l 1,8,-1
 380 992 l 1,9,-1
 678 589 l 1,10,-1
 373 185 l 1,11,-1
 197 185 l 1,6,-1
EndSplineSet
EndChar

StartChar: onequarter
Encoding: 188 188 126
Width: 1229
Flags: W
LayerCount: 2
Fore
SplineSet
1353 361 m 1,0,1
 1352 570 l 2,2,3
 1352 621 1352 621 1354 725 c 1,4,-1
 1091 361 l 1,5,-1
 1353 361 l 1,0,1
191 1381 m 1,6,7
 100 1333 100 1333 23 1306 c 1,8,-1
 24 1447 l 1,9,10
 116 1477 116 1477 209 1533 c 1,11,-1
 326 1549 l 1,12,-1
 326 781 l 1,13,-1
 461 781 l 1,14,-1
 461 656 l 1,15,-1
 57 656 l 1,16,-1
 57 785 l 1,17,-1
 191 785 l 1,18,-1
 191 1381 l 1,6,7
409 1 m 1,19,-1
 242 1 l 1,20,-1
 1244 1560 l 1,21,-1
 1408 1560 l 1,22,-1
 409 1 l 1,19,-1
1354 245 m 1,23,-1
 936 245 l 1,24,-1
 936 345 l 1,25,-1
 1340 906 l 1,26,-1
 1490 906 l 1,27,-1
 1490 361 l 1,28,-1
 1610 361 l 1,29,-1
 1621 245 l 1,30,-1
 1487 245 l 1,31,-1
 1487 1 l 1,32,-1
 1354 41 l 1,33,-1
 1354 245 l 1,23,-1
EndSplineSet
EndChar

StartChar: onehalf
Encoding: 189 189 127
Width: 1229
Flags: W
LayerCount: 2
Fore
SplineSet
171 1381 m 1,0,1
 95 1342 95 1342 2 1306 c 1,2,-1
 3 1447 l 1,3,4
 103 1481 103 1481 188 1533 c 1,5,-1
 304 1549 l 1,6,-1
 304 781 l 1,7,-1
 440 781 l 1,8,-1
 440 656 l 1,9,-1
 36 656 l 1,10,-1
 36 785 l 1,11,-1
 171 785 l 1,12,-1
 171 1381 l 1,0,1
323 1 m 1,13,-1
 157 1 l 1,14,-1
 1160 1560 l 1,15,-1
 1323 1560 l 1,16,-1
 323 1 l 1,13,-1
1034 828.5 m 128,-1,18
 1108 881 1108 881 1227.5 881 c 128,-1,19
 1347 881 1347 881 1434 820 c 128,-1,20
 1521 759 1521 759 1521 627.235 c 0,21,22
 1521 495.471 1521 495.471 1398.5 360 c 0,23,24
 1308.2 260.138 1308.2 260.138 1218.6 186.069 c 128,-1,25
 1129 112 1129 112 1117 101 c 1,26,-1
 1520 101 l 1,27,-1
 1520 -26 l 1,28,-1
 914 -26 l 1,29,-1
 914 94 l 1,30,31
 942 119 942 119 1030.57 197.571 c 0,32,33
 1119.14 276.143 1119.14 276.143 1205.07 362.071 c 128,-1,34
 1291 448 1291 448 1334.5 522.5 c 128,-1,35
 1378 597 1378 597 1378 632 c 1,36,-1
 1380 632 l 1,37,38
 1380 693 1380 693 1336 723.5 c 128,-1,39
 1292 754 1292 754 1224 754 c 0,40,41
 1088 754 1088 754 1017 612 c 1,42,-1
 924 697 l 1,43,17
 960 776 960 776 1034 828.5 c 128,-1,18
EndSplineSet
EndChar

StartChar: threequarters
Encoding: 190 190 128
Width: 1229
Flags: W
LayerCount: 2
Fore
SplineSet
1381 363 m 1,0,-1
 1381 509 l 2,1,2
 1381 654 1381 654 1383 726 c 1,3,-1
 1119 363 l 1,4,-1
 1381 363 l 1,0,-1
86 846 m 1,5,6
 181 761 181 761 287 761 c 1,7,-1
 287 760 l 1,8,9
 370 760 370 760 425 797 c 128,-1,10
 480 834 480 834 480 907 c 0,11,12
 480 1053 480 1053 243 1053 c 1,13,-1
 181 1051 l 1,14,-1
 181 1181 l 1,15,16
 298.667 1181 298.667 1181 350.013 1193.16 c 0,17,18
 453 1217.55 453 1217.55 453 1312 c 0,19,20
 453 1434 453 1434 298 1434 c 0,21,22
 194 1434 194 1434 85 1350 c 1,23,-1
 20 1454 l 1,24,25
 137 1564 137 1564 283.5 1564 c 128,-1,26
 430 1564 430 1564 515 1495.5 c 128,-1,27
 600 1427 600 1427 600 1304.5 c 128,-1,28
 600 1182 600 1182 481 1120 c 1,29,30
 624 1059 624 1059 624 905 c 0,31,32
 624 780 624 780 527.5 708 c 128,-1,33
 431 636 431 636 280.5 636 c 128,-1,34
 130 636 130 636 20 741 c 1,35,-1
 86 846 l 1,5,6
457 -1 m 1,36,-1
 290 -1 l 1,37,-1
 1293 1558 l 1,38,-1
 1457 1558 l 1,39,-1
 457 -1 l 1,36,-1
1383 248 m 1,40,-1
 965 248 l 1,41,-1
 965 346 l 1,42,-1
 1368 909 l 1,43,-1
 1518 909 l 1,44,-1
 1518 363 l 1,45,-1
 1639 363 l 1,46,-1
 1650 248 l 1,47,-1
 1516 248 l 1,48,-1
 1516 -1 l 1,49,-1
 1383 44 l 1,50,-1
 1383 248 l 1,40,-1
EndSplineSet
EndChar

StartChar: questiondown
Encoding: 191 191 129
Width: 1229
Flags: W
LayerCount: 2
Fore
SplineSet
799 1604 m 1,0,-1
 799 1376 l 1,1,-1
 557 1376 l 1,2,-1
 557 1604 l 1,3,-1
 799 1604 l 1,0,-1
691.5 -13 m 0,4,5
 316.953 -13 316.953 -13 208.5 186.5 c 0,6,7
 168 261 168 261 168 347 c 128,-1,8
 168 433 168 433 200.5 500.5 c 128,-1,9
 233 568 233 568 281 617.5 c 128,-1,10
 329 667 329 667 386 720 c 128,-1,11
 443 773 443 773 491 818 c 0,12,13
 604 923.938 604 923.938 604 1037 c 0,14,15
 604 1099 604 1099 586 1193 c 1,16,-1
 767 1193 l 1,17,18
 778 1103 778 1103 778 1024 c 1,19,-1
 779 1023 l 1,20,21
 779 901.526 779 901.526 699 811 c 0,22,23
 644.818 749.688 644.818 749.688 567.909 687.844 c 128,-1,24
 491 626 491 626 452.5 587.5 c 0,25,26
 355 490 355 490 355 371 c 0,27,28
 355 196.796 355 196.796 556.5 154 c 0,29,30
 613 142 613 142 680 142 c 0,31,32
 822 142 822 142 959 216 c 1,33,-1
 959 58 l 1,34,35
 811 -13 811 -13 691.5 -13 c 0,4,5
EndSplineSet
EndChar

StartChar: AE
Encoding: 198 198 136
Width: 1229
Flags: W
LayerCount: 2
Fore
SplineSet
692 591 m 1,0,-1
 692 1360 l 1,1,-1
 441 591 l 1,2,-1
 692 591 l 1,0,-1
612 1572 m 1,3,-1
 1165 1572 l 1,4,-1
 1153 1411 l 1,5,-1
 871 1411 l 1,6,-1
 871 881 l 1,7,-1
 1179 881 l 1,8,-1
 1166 721 l 1,9,-1
 871 721 l 1,10,-1
 871 151 l 1,11,-1
 1194 151 l 1,12,-1
 1182 0 l 1,13,-1
 692 0 l 1,14,-1
 692 431 l 1,15,-1
 380 431 l 1,16,-1
 235 0 l 1,17,-1
 27 0 l 1,18,-1
 612 1572 l 1,3,-1
EndSplineSet
EndChar

StartChar: Eth
Encoding: 208 208 146
Width: 1229
Flags: W
LayerCount: 2
Fore
SplineSet
694 160 m 2,0,1
 1015 160 1015 160 1198 318.5 c 128,-1,2
 1381 477 1381 477 1381 782 c 0,3,4
 1381 1200.65 1381 1200.65 1078 1337 c 0,5,6
 893.556 1420 893.556 1420 587 1420 c 2,7,-1
 405 1420 l 1,8,-1
 405 863 l 1,9,-1
 633 863 l 1,10,-1
 633 714 l 1,11,-1
 405 714 l 1,12,-1
 405 160 l 1,13,-1
 694 160 l 2,0,1
563 1581 m 2,14,15
 1155.3 1581 1155.3 1581 1399 1327.5 c 0,16,17
 1584 1135.06 1584 1135.06 1584 786 c 0,18,19
 1584 593 1584 593 1516.5 442 c 128,-1,20
 1449 291 1449 291 1327 195 c 0,21,22
 1079.19 -1.96695e-06 1079.19 -1.96695e-06 676 0 c 2,23,-1
 215 0 l 1,24,-1
 215 714 l 1,25,-1
 0 714 l 1,26,-1
 0 863 l 1,27,-1
 215 863 l 1,28,-1
 215 1581 l 1,29,-1
 563 1581 l 2,14,15
EndSplineSet
EndChar

StartChar: multiply
Encoding: 215 215 153
Width: 1229
Flags: W
LayerCount: 2
Fore
SplineSet
1077 280 m 1,0,-1
 961 168 l 1,1,-1
 633 489 l 1,2,-1
 305 168 l 1,3,-1
 190 278 l 1,4,-1
 518 602 l 1,5,-1
 190 924 l 1,6,-1
 305 1036 l 1,7,-1
 633 713 l 1,8,-1
 961 1036 l 1,9,-1
 1077 923 l 1,10,-1
 747 602 l 1,11,-1
 1077 280 l 1,0,-1
EndSplineSet
EndChar

StartChar: Oslash
Encoding: 216 216 154
Width: 1229
Flags: W
LayerCount: 2
Fore
SplineSet
770 1284 m 1,0,1
 704 1356 704 1356 611 1356 c 128,-1,2
 518 1356 518 1356 450.5 1274.5 c 0,3,4
 319 1115.73 319 1115.73 319 746 c 0,5,6
 319 517 319 517 374 360 c 1,7,-1
 770 1284 l 1,0,1
954 1346 m 1,8,9
 1105 1140.79 1105 1140.79 1105 747 c 0,10,11
 1105 424.923 1105 424.923 987.5 208 c 0,12,13
 929 100 929 100 833 37.5 c 128,-1,14
 737 -25 737 -25 613.5 -25 c 128,-1,15
 490 -25 490 -25 393 39 c 1,16,-1
 281 -222 l 1,17,-1
 146 -171 l 1,18,-1
 282 145 l 1,19,20
 123 358.342 123 358.342 123 751.516 c 128,-1,21
 123 1144.69 123 1144.69 280 1354.5 c 0,22,23
 400.85 1516 400.85 1516 625 1516 c 0,24,25
 744 1516 744 1516 842 1453 c 1,26,-1
 955 1717 l 1,27,-1
 1095 1675 l 1,28,-1
 954 1346 l 1,8,9
463 203 m 1,29,30
 528 136 528 136 618.5 136 c 128,-1,31
 709 136 709 136 777 217.5 c 0,32,33
 909 375.706 909 375.706 909 746 c 0,34,35
 909 969 909 969 858 1122 c 1,36,-1
 463 203 l 1,29,30
EndSplineSet
EndChar

StartChar: Thorn
Encoding: 222 222 160
Width: 1229
Flags: W
LayerCount: 2
Fore
SplineSet
655 643 m 2,0,1
 1075 643 1075 643 1075 956 c 0,2,3
 1075 1168.1 1075 1168.1 880 1230 c 0,4,5
 772.9 1264 772.9 1264 603 1264 c 2,6,-1
 366 1264 l 1,7,-1
 366 643 l 1,8,-1
 655 643 l 2,0,1
1262 1090 m 128,-1,10
 1279 1027 1279 1027 1279 952.5 c 128,-1,11
 1279 878 1279 878 1261.5 817 c 0,12,13
 1226.53 695.102 1226.53 695.102 1141 630.5 c 0,14,15
 979.363 508.412 979.363 508.412 664.533 489.215 c 0,16,17
 529.8 481 529.8 481 366 481 c 1,18,-1
 366 0 l 1,19,-1
 176 0 l 1,20,-1
 176 1581 l 1,21,-1
 366 1581 l 1,22,-1
 366 1424 l 1,23,24
 695.059 1424 695.059 1424 780.029 1410.5 c 128,-1,25
 865 1397 865 1397 937.5 1380.5 c 128,-1,26
 1010 1364 1010 1364 1053 1340.5 c 128,-1,27
 1096 1317 1096 1317 1144.5 1281 c 128,-1,28
 1193 1245 1193 1245 1219 1199 c 128,-1,9
 1245 1153 1245 1153 1262 1090 c 128,-1,10
EndSplineSet
EndChar

StartChar: germandbls
Encoding: 223 223 161
Width: 1229
Flags: W
LayerCount: 2
Fore
SplineSet
1044.5 1484 m 0,0,1
 1141 1399.43 1141 1399.43 1141 1256 c 0,2,3
 1141 1166.22 1141 1166.22 1108.5 1117.11 c 128,-1,4
 1076 1068 1076 1068 1055 1042 c 128,-1,5
 1034 1016 1034 1016 997.5 986 c 128,-1,6
 961 956 961 956 940 940 c 128,-1,7
 919 924 919 924 878 896 c 128,-1,8
 837 868 837 868 823 858 c 1,9,10
 860 835 860 835 928.5 799 c 128,-1,11
 997 763 997 763 1047 736.5 c 0,12,13
 1176 668.13 1176 668.13 1261.5 578.188 c 128,-1,14
 1347 488.247 1347 488.247 1347 363 c 0,15,16
 1347 174 1347 174 1228 74 c 128,-1,17
 1109 -26 1109 -26 890.571 -26 c 128,-1,18
 672.143 -26 672.143 -26 541 76 c 1,19,-1
 612 225 l 1,20,21
 762 139 762 139 876.5 139 c 128,-1,22
 991 139 991 139 1051 195 c 128,-1,23
 1111 251 1111 251 1111 333.019 c 128,-1,24
 1111 415.038 1111 415.038 1077.37 460.309 c 128,-1,25
 1043.74 505.58 1043.74 505.58 1023.87 521.79 c 128,-1,26
 1004 538 1004 538 977.07 559.075 c 0,27,28
 950.141 580.151 950.141 580.151 900.07 607.075 c 128,-1,29
 850 634 850 634 792.376 665.264 c 0,30,31
 734.753 696.528 734.753 696.528 673.876 741.958 c 128,-1,32
 613 787.388 613 787.388 613 849.368 c 128,-1,33
 613 911.348 613 911.348 702.5 977.5 c 0,34,35
 727.8 996.2 727.8 996.2 778.912 1031.67 c 0,36,37
 830.023 1067.14 830.023 1067.14 876.012 1119.32 c 128,-1,38
 922 1171.5 922 1171.5 922 1245.25 c 128,-1,39
 922 1319 922 1319 884 1362.5 c 0,40,41
 814.552 1442 814.552 1442 666.776 1442 c 128,-1,42
 519 1442 519 1442 450.5 1347.5 c 128,-1,43
 382 1253 382 1253 382 1096 c 2,44,-1
 382 0 l 1,45,-1
 164 0 l 1,46,-1
 164 1116 l 2,47,48
 164 1349 164 1349 295.5 1474 c 128,-1,49
 427 1599 427 1599 670.141 1599 c 128,-1,50
 913.282 1599 913.282 1599 1044.5 1484 c 0,0,1
EndSplineSet
EndChar

StartChar: ae
Encoding: 230 230 168
Width: 1229
Flags: W
LayerCount: 2
Fore
SplineSet
1026 653 m 1,0,1
 1009 977 1009 977 880 977 c 0,2,3
 802 977 802 977 759 885 c 128,-1,4
 716 793 716 793 709 653 c 1,5,-1
 1026 653 l 1,0,1
232 297 m 0,6,7
 232 122 232 122 352 122 c 0,8,9
 433.154 122 433.154 122 500.934 158.714 c 128,-1,10
 568.714 195.429 568.714 195.429 593 210 c 1,11,12
 556 311 556 311 543 452 c 1,13,-1
 499 452 l 2,14,15
 350.194 452 350.194 452 291.097 414.612 c 128,-1,16
 232 377.224 232 377.224 232 297 c 0,6,7
1148 98 m 1,17,18
 1033 -25 1033 -25 865 -25 c 0,19,20
 737 -25 737 -25 653 94 c 1,21,22
 649 92 649 92 607.5 67 c 128,-1,23
 566 42 566 42 499 8.5 c 0,24,25
 432 -25 432 -25 329 -25 c 128,-1,26
 226 -25 226 -25 140.5 59.5 c 128,-1,27
 55 144 55 144 55 280 c 0,28,29
 55 494.554 55 494.554 233 559.5 c 0,30,31
 327.556 594 327.556 594 522 594 c 2,32,-1
 537 594 l 1,33,-1
 537 786 l 2,34,35
 537 880 537 880 496 924.5 c 128,-1,36
 455 969 455 969 369 969 c 0,37,38
 233 969 233 969 145 894 c 1,39,-1
 101 1053 l 1,40,41
 214 1130 214 1130 378 1130 c 0,42,43
 574 1130 574 1130 644 988 c 1,44,45
 738 1130 738 1130 880 1130 c 0,46,47
 972 1130 972 1130 1039 1054.5 c 0,48,49
 1170 906.881 1170 906.881 1170 581 c 1,50,-1
 1168 520 l 1,51,-1
 703 520 l 1,52,53
 709 344 709 344 753.5 233 c 128,-1,54
 798 122 798 122 878 122 c 0,55,56
 978 122 978 122 1068 222 c 1,57,-1
 1148 98 l 1,17,18
EndSplineSet
EndChar

StartChar: eth
Encoding: 240 240 178
Width: 1229
Flags: W
LayerCount: 2
Fore
SplineSet
673 129 m 0,0,1
 945.506 129 945.506 129 1018.5 404 c 0,2,3
 1040 485 1040 485 1040 570 c 128,-1,4
 1040 655 1040 655 975.5 712 c 0,5,6
 851.026 822 851.026 822 678.013 822 c 128,-1,7
 505 822 505 822 418 730 c 128,-1,8
 331 638 331 638 331 481 c 128,-1,9
 331 324 331 324 424.5 226.5 c 128,-1,10
 518 129 518 129 673 129 c 0,0,1
760 1619 m 1,11,12
 1007 1526.13 1007 1526.13 1137 1264 c 1,13,-1
 1355 1264 l 1,14,-1
 1355 1115 l 1,15,-1
 1193 1115 l 1,16,17
 1247 948 1247 948 1247 780 c 128,-1,18
 1247 612 1247 612 1229 500.5 c 0,19,20
 1189.89 258.243 1189.89 258.243 1057.57 116.621 c 128,-1,21
 925.255 -25 925.255 -25 676.628 -25 c 129,-1,22
 428 -25 428 -25 281.5 121.5 c 128,-1,23
 135 268 135 268 135 484 c 1,24,-1
 136 485 l 1,25,26
 136 710 136 710 274 842.5 c 128,-1,27
 412 975 412 975 641 975 c 0,28,29
 933 975 933 975 1054 786 c 1,30,31
 1054 977 1054 977 1014 1115 c 1,32,-1
 724 1115 l 1,33,-1
 724 1264 l 1,34,-1
 951 1264 l 1,35,36
 862 1425 862 1425 673 1527 c 1,37,-1
 760 1619 l 1,11,12
EndSplineSet
EndChar

StartChar: divide
Encoding: 247 247 185
Width: 1229
Flags: W
LayerCount: 2
Fore
SplineSet
619 948 m 1,0,-1
 619 1175 l 1,1,-1
 858 1175 l 1,2,-1
 858 948 l 1,3,-1
 619 948 l 1,0,-1
619 22 m 1,4,-1
 619 251 l 1,5,-1
 858 251 l 1,6,-1
 858 22 l 1,7,-1
 619 22 l 1,4,-1
152 677 m 1,8,-1
 1311 677 l 1,9,-1
 1311 526 l 1,10,-1
 152 526 l 1,11,-1
 152 677 l 1,8,-1
EndSplineSet
EndChar

StartChar: oslash
Encoding: 248 248 186
Width: 1229
Flags: W
LayerCount: 2
Fore
SplineSet
322 -283 m 1,0,-1
 210 -242 l 1,1,-1
 338 52 l 1,2,3
 231 126 231 126 174.5 257 c 128,-1,4
 118 388 118 388 118 551 c 0,5,6
 118 810 118 810 255.5 970 c 128,-1,7
 393 1130 393 1130 615 1130 c 0,8,9
 713 1130 713 1130 796 1101 c 1,10,-1
 920 1386 l 1,11,-1
 1032 1351 l 1,12,-1
 900 1047 l 1,13,14
 1003 974 1003 974 1056.5 846.5 c 128,-1,15
 1110 719 1110 719 1110 558 c 0,16,17
 1110 297 1110 297 970.5 136 c 128,-1,18
 831 -25 831 -25 607 -25 c 0,19,20
 520 -25 520 -25 445 0 c 1,21,-1
 322 -283 l 1,0,-1
509 147 m 1,22,23
 556 129 556 129 618.5 129 c 128,-1,24
 681 129 681 129 735.5 153 c 0,25,26
 836.296 197.387 836.296 197.387 881.648 306.824 c 128,-1,27
 927 416.261 927 416.261 927 553 c 0,28,29
 927 771 927 771 829 884 c 1,30,-1
 509 147 l 1,22,23
409 213 m 1,31,-1
 732 955 l 1,32,33
 679 977 679 977 605 977 c 128,-1,34
 531 977 531 977 468.5 940 c 128,-1,35
 406 903 406 903 371 840.5 c 0,36,37
 301 715.5 301 715.5 301 550 c 0,38,39
 301 328.855 301 328.855 409 213 c 1,31,-1
EndSplineSet
EndChar

StartChar: thorn
Encoding: 254 254 192
Width: 1229
Flags: W
LayerCount: 2
Fore
SplineSet
966.877 877.821 m 0,0,1
 886 996 886 996 699 996 c 1,2,3
 426.185 996 426.185 996 359.5 719 c 0,4,5
 340 638 340 638 340 536 c 0,6,7
 340 350 340 350 431 234 c 128,-1,8
 522 118 522 118 698.29 118 c 128,-1,9
 874.581 118 874.581 118 961.29 246 c 128,-1,10
 1048 374 1048 374 1048 566.821 c 128,-1,11
 1048 759.642 1048 759.642 966.877 877.821 c 0,0,1
342 957 m 1,12,13
 483 1141 483 1141 727.5 1141 c 128,-1,14
 972 1141 972 1141 1109 985.5 c 128,-1,15
 1246 830 1246 830 1246 572 c 1,16,-1
 1245 572 l 1,17,18
 1245 306 1245 306 1100 140.5 c 128,-1,19
 955 -25 955 -25 719.5 -25 c 128,-1,20
 484 -25 484 -25 341 146 c 1,21,-1
 341 -464 l 1,22,-1
 158 -464 l 1,23,-1
 158 1580 l 1,24,-1
 342 1580 l 1,25,-1
 342 957 l 1,12,13
EndSplineSet
EndChar

StartChar: Cdotaccent
Encoding: 266 266 204
Width: 1229
Flags: W
LayerCount: 2
Fore
SplineSet
556 1795 m 1,0,-1
 733 1795 l 1,1,-1
 733 1618 l 1,2,-1
 556 1618 l 1,3,-1
 556 1795 l 1,0,-1
1128 1391 m 1,4,-1
 1062 1260 l 1,5,6
 929 1363 929 1363 774 1363 c 128,-1,7
 619 1363 619 1363 517.5 1276 c 0,8,9
 320 1106.71 320 1106.71 320 748 c 0,10,11
 320 575 320 575 371 436 c 128,-1,12
 422 297 422 297 522.5 213.5 c 128,-1,13
 623 130 623 130 757 130 c 0,14,15
 932 130 932 130 1064 238 c 1,16,-1
 1129 97 l 1,17,18
 989 -25 989 -25 734 -25 c 0,19,20
 551 -25 551 -25 411.5 75.5 c 128,-1,21
 272 176 272 176 198 351.5 c 128,-1,22
 124 527 124 527 124 724.5 c 128,-1,23
 124 922 124 922 171 1066.5 c 128,-1,24
 218 1211 218 1211 299.5 1309 c 128,-1,25
 381 1407 381 1407 493 1461.5 c 128,-1,26
 605 1516 605 1516 734 1516 c 0,27,28
 983 1516 983 1516 1128 1391 c 1,4,-1
EndSplineSet
EndChar

StartChar: cdotaccent
Encoding: 267 267 205
Width: 1229
Flags: W
LayerCount: 2
Fore
SplineSet
504 1409 m 1,0,-1
 681 1409 l 1,1,-1
 681 1232 l 1,2,-1
 504 1232 l 1,3,-1
 504 1409 l 1,0,-1
1002 72 m 1,4,5
 896.917 -25 896.917 -25 703 -25 c 0,6,7
 579 -25 579 -25 477 22.5 c 128,-1,8
 375 70 375 70 309.5 150.5 c 0,9,10
 173 318.26 173 318.26 173 555 c 0,11,12
 173 708 173 708 235.5 838 c 128,-1,13
 298 968 298 968 420 1049 c 128,-1,14
 542 1130 542 1130 720.889 1130 c 0,15,16
 899.778 1130 899.778 1130 999 1035 c 1,17,-1
 953 913 l 1,18,19
 838 990 838 990 693 990 c 128,-1,20
 548 990 548 990 452.5 866 c 128,-1,21
 357 742 357 742 357 550.5 c 128,-1,22
 357 359 357 359 452.5 237 c 128,-1,23
 548 115 548 115 696.5 115 c 128,-1,24
 845 115 845 115 958 195 c 1,25,-1
 1002 72 l 1,4,5
EndSplineSet
EndChar

StartChar: Edotaccent
Encoding: 278 278 214
Width: 1229
Flags: W
LayerCount: 2
Fore
SplineSet
574 1815 m 1,0,-1
 751 1815 l 1,1,-1
 751 1638 l 1,2,-1
 574 1638 l 1,3,-1
 574 1815 l 1,0,-1
404 684 m 1,4,-1
 404 146 l 1,5,-1
 1108 146 l 1,6,-1
 1093 0 l 1,7,-1
 217 0 l 1,8,-1
 217 1491 l 1,9,-1
 1075 1491 l 1,10,-1
 1059 1345 l 1,11,-1
 404 1345 l 1,12,-1
 404 843 l 1,13,-1
 1026 843 l 1,14,-1
 1026 684 l 1,15,-1
 404 684 l 1,4,-1
EndSplineSet
EndChar

StartChar: edotaccent
Encoding: 279 279 215
Width: 1229
Flags: W
LayerCount: 2
Fore
SplineSet
534 1430 m 1,0,-1
 711 1430 l 1,1,-1
 711 1253 l 1,2,-1
 534 1253 l 1,3,-1
 534 1430 l 1,0,-1
238.5 257.5 m 128,-1,5
 183 387 183 387 183 550 c 128,-1,6
 183 713 183 713 234.5 842.5 c 128,-1,7
 286 972 286 972 388.5 1051.5 c 128,-1,8
 491 1131 491 1131 613.5 1131 c 0,9,10
 845.863 1131 845.863 1131 953.931 972.014 c 128,-1,11
 1062 813.029 1062 813.029 1062 581 c 2,12,-1
 1062 520 l 1,13,-1
 367 520 l 1,14,15
 373.038 350.943 373.038 350.943 451.686 232.972 c 128,-1,16
 530.333 115 530.333 115 687.167 115 c 1,17,18
 792.093 125.32 792.093 125.32 980 229 c 1,19,-1
 1040 105 l 1,20,21
 910 -25 910 -25 685 -25 c 0,22,23
 524 -25 524 -25 409 51.5 c 128,-1,4
 294 128 294 128 238.5 257.5 c 128,-1,5
888 653 m 1,24,25
 868 990 868 990 652 990 c 0,26,27
 408.474 990 408.474 990 373 653 c 1,28,-1
 888 653 l 1,24,25
EndSplineSet
EndChar

StartChar: Gdotaccent
Encoding: 288 288 224
Width: 1229
Flags: W
LayerCount: 2
Fore
SplineSet
539 1815 m 1,0,-1
 716 1815 l 1,1,-1
 716 1638 l 1,2,-1
 539 1638 l 1,3,-1
 539 1815 l 1,0,-1
1049 1255 m 1,4,5
 930 1363 930 1363 734 1363 c 0,6,7
 631 1363 631 1363 547 1311 c 128,-1,8
 463 1259 463 1259 411 1172 c 0,9,10
 303 991.308 303 991.308 303 742.528 c 0,11,12
 303 493.747 303 493.747 399.5 317 c 0,13,14
 447 230 447 230 525 180 c 128,-1,15
 603 130 603 130 693.5 130 c 128,-1,16
 784 130 784 130 844 152.5 c 128,-1,17
 904 175 904 175 975 217 c 1,18,-1
 975 625 l 1,19,-1
 644 625 l 1,20,-1
 644 778 l 1,21,-1
 1148 778 l 1,22,-1
 1148 132 l 1,23,24
 1031 57 1031 57 926 16 c 128,-1,25
 821 -25 821 -25 682.5 -25 c 128,-1,26
 544 -25 544 -25 431.5 36.5 c 128,-1,27
 319 98 319 98 249 205 c 0,28,29
 107 422.057 107 422.057 107 750 c 0,30,31
 107 920 107 920 153.5 1064 c 128,-1,32
 200 1208 200 1208 282 1306.5 c 128,-1,33
 364 1405 364 1405 477 1460 c 128,-1,34
 590 1515 590 1515 720 1515 c 0,35,36
 968 1515 968 1515 1116 1388 c 1,37,-1
 1049 1255 l 1,4,5
EndSplineSet
EndChar

StartChar: gdotaccent
Encoding: 289 289 225
Width: 1229
Flags: W
LayerCount: 2
Fore
SplineSet
514 1429 m 1,0,-1
 691 1429 l 1,1,-1
 691 1252 l 1,2,-1
 514 1252 l 1,3,-1
 514 1429 l 1,0,-1
888 210 m 1,4,5
 854 124 854 124 768 62 c 128,-1,6
 682 0 682 0 576 0 c 0,7,8
 367.603 0 367.603 0 246.801 161.425 c 128,-1,9
 126 322.85 126 322.85 126 556 c 0,10,11
 126 867.981 126 867.981 282.5 1021.5 c 0,12,13
 393.107 1130 393.107 1130 585.053 1130 c 128,-1,14
 777 1130 777 1130 888 948 c 1,15,-1
 894 1097 l 1,16,-1
 1079 1097 l 1,17,18
 1070 852 1070 852 1070 446 c 2,19,-1
 1070 152 l 2,20,21
 1070 -202.349 1070 -202.349 916.5 -330.5 c 0,22,23
 805.834 -422.891 805.834 -422.891 581.5 -448.5 c 0,24,25
 472 -461 472 -461 322 -461 c 1,26,-1
 307 -321 l 1,27,28
 525.158 -321 525.158 -321 619.579 -295 c 128,-1,29
 714 -269 714 -269 757 -237 c 128,-1,30
 800 -205 800 -205 831 -153.5 c 0,31,32
 888 -58.8064 888 -58.8064 888 137 c 2,33,-1
 888 210 l 1,4,5
718 966.5 m 128,-1,35
 666 990 666 990 597.5 990 c 128,-1,36
 529 990 529 990 477 966.5 c 0,37,38
 381.635 923.403 381.635 923.403 345.318 815.381 c 128,-1,39
 309 707.359 309 707.359 309 598.679 c 128,-1,40
 309 490 309 490 317.5 436.5 c 0,41,42
 336.17 318.991 336.17 318.991 401.936 240.496 c 128,-1,43
 467.703 162 467.703 162 589 162 c 0,44,45
 781.4 162 781.4 162 850 333.5 c 0,46,47
 888 428.5 888 428.5 888 528.75 c 128,-1,48
 888 629 888 629 880.5 689 c 128,-1,49
 873 749 873 749 853 806.5 c 128,-1,50
 833 864 833 864 801.5 903.5 c 128,-1,34
 770 943 770 943 718 966.5 c 128,-1,35
EndSplineSet
EndChar

StartChar: Gcommaaccent
Encoding: 290 290 226
Width: 1229
Flags: W
LayerCount: 2
Fore
SplineSet
809 -127 m 1,0,-1
 628 -629 l 1,1,-1
 483 -629 l 1,2,-1
 601 -127 l 1,3,-1
 809 -127 l 1,0,-1
1049 1255 m 1,4,5
 930 1363 930 1363 734 1363 c 0,6,7
 631 1363 631 1363 547 1311 c 128,-1,8
 463 1259 463 1259 411 1172 c 0,9,10
 303 991.308 303 991.308 303 742.528 c 0,11,12
 303 493.747 303 493.747 399.5 317 c 0,13,14
 447 230 447 230 525 180 c 128,-1,15
 603 130 603 130 693.5 130 c 128,-1,16
 784 130 784 130 844 152.5 c 128,-1,17
 904 175 904 175 975 217 c 1,18,-1
 975 625 l 1,19,-1
 644 625 l 1,20,-1
 644 778 l 1,21,-1
 1148 778 l 1,22,-1
 1148 132 l 1,23,24
 1031 57 1031 57 926 16 c 128,-1,25
 821 -25 821 -25 682.5 -25 c 128,-1,26
 544 -25 544 -25 431.5 36.5 c 128,-1,27
 319 98 319 98 249 205 c 0,28,29
 107 422.057 107 422.057 107 750 c 0,30,31
 107 920 107 920 153.5 1064 c 128,-1,32
 200 1208 200 1208 282 1306.5 c 128,-1,33
 364 1405 364 1405 477 1460 c 128,-1,34
 590 1515 590 1515 720 1515 c 0,35,36
 968 1515 968 1515 1116 1388 c 1,37,-1
 1049 1255 l 1,4,5
EndSplineSet
EndChar

StartChar: gcommaaccent
Encoding: 291 291 227
Width: 1229
Flags: W
LayerCount: 2
Fore
SplineSet
429 1249 m 1,0,-1
 610 1752 l 1,1,-1
 756 1752 l 1,2,-1
 637 1249 l 1,3,-1
 429 1249 l 1,0,-1
891 210 m 1,4,5
 858 125 858 125 768 62.5 c 128,-1,6
 678 0 678 0 567 0 c 128,-1,7
 456 0 456 0 367.5 44 c 128,-1,8
 279 88 279 88 224 164.5 c 0,9,10
 111 321.673 111 321.673 111 556 c 0,11,12
 111 904.474 111 904.474 314.5 1053 c 0,13,14
 420 1130 420 1130 572 1130 c 0,15,16
 780 1130 780 1130 891 948 c 1,17,-1
 897 1097 l 1,18,-1
 1082 1097 l 1,19,20
 1073 852 1073 852 1073 446 c 2,21,-1
 1073 152 l 2,22,23
 1073 -120.043 1073 -120.043 959.333 -254.467 c 128,-1,24
 845.667 -388.89 845.667 -388.89 591 -424.5 c 0,25,26
 473 -441 473 -441 310 -441 c 1,27,-1
 310 -274 l 1,28,-1
 317 -274 l 2,29,30
 566.111 -274 566.111 -274 620.556 -260 c 0,31,32
 752.727 -226.013 752.727 -226.013 791.5 -188 c 0,33,34
 855.387 -125.365 855.387 -125.365 873.194 -47.6827 c 128,-1,35
 891 30 891 30 891 137 c 2,36,-1
 891 210 l 1,4,5
891 556 m 0,37,38
 891 969 891 969 592.5 969 c 128,-1,39
 294 969 294 969 294 550 c 0,40,41
 294 396.788 294 396.788 362.566 279.394 c 0,42,43
 431 162 431 162 588 162 c 1,44,45
 668 162 668 162 730 195.5 c 128,-1,46
 792 229 792 229 826 287 c 0,47,48
 891 397.882 891 397.882 891 556 c 0,37,38
EndSplineSet
EndChar

StartChar: hbar
Encoding: 295 295 231
Width: 1229
Flags: W
LayerCount: 2
Fore
SplineSet
1044 662 m 2,0,-1
 1044 0 l 1,1,-1
 862 0 l 1,2,-1
 862 639 l 2,3,4
 862 844.587 862 844.587 807.172 917.294 c 0,5,6
 752 990 752 990 640.672 990 c 1,7,8
 529 990 529 990 446.5 912.5 c 128,-1,9
 364 835 364 835 364 746 c 2,10,-1
 364 0 l 1,11,-1
 182 0 l 1,12,-1
 182 1284 l 1,13,-1
 4 1284 l 1,14,-1
 4 1430 l 1,15,-1
 182 1430 l 1,16,-1
 182 1545 l 1,17,-1
 364 1565 l 1,18,-1
 364 1430 l 1,19,-1
 638 1430 l 1,20,-1
 638 1284 l 1,21,-1
 364 1284 l 1,22,-1
 364 964 l 1,23,24
 492 1130 492 1130 707 1130 c 0,25,26
 1044 1130 1044 1130 1044 662 c 2,0,-1
EndSplineSet
EndChar

StartChar: Idotaccent
Encoding: 304 304 240
Width: 1229
Flags: W
LayerCount: 2
Fore
SplineSet
526 1795 m 1,0,-1
 703 1795 l 1,1,-1
 703 1618 l 1,2,-1
 526 1618 l 1,3,-1
 526 1795 l 1,0,-1
194 1345 m 1,4,-1
 194 1491 l 1,5,-1
 1035 1491 l 1,6,-1
 1035 1345 l 1,7,-1
 704 1345 l 1,8,-1
 704 146 l 1,9,-1
 1035 146 l 1,10,-1
 1035 0 l 1,11,-1
 194 0 l 1,12,-1
 194 146 l 1,13,-1
 517 146 l 1,14,-1
 517 1345 l 1,15,-1
 194 1345 l 1,4,-1
EndSplineSet
EndChar

StartChar: dotlessi
Encoding: 305 305 241
Width: 1229
Flags: W
LayerCount: 2
Fore
SplineSet
266 953 m 1,0,-1
 266 1097 l 1,1,-1
 788 1097 l 1,2,-1
 788 144 l 1,3,-1
 1185 144 l 1,4,-1
 1185 0 l 1,5,-1
 197 0 l 1,6,-1
 197 144 l 1,7,-1
 606 144 l 1,8,-1
 606 953 l 1,9,-1
 266 953 l 1,0,-1
EndSplineSet
EndChar

StartChar: IJ
Encoding: 306 306 242
Width: 1229
Flags: W
LayerCount: 2
Fore
SplineSet
55 1345 m 1,0,-1
 55 1491 l 1,1,-1
 576 1491 l 1,2,-1
 576 1345 l 1,3,-1
 405 1345 l 1,4,-1
 405 146 l 1,5,-1
 576 146 l 1,6,-1
 576 0 l 1,7,-1
 55 0 l 1,8,-1
 55 146 l 1,9,-1
 218 146 l 1,10,-1
 218 1345 l 1,11,-1
 55 1345 l 1,0,-1
659 145 m 1,12,13
 803 121 803 121 835.5 121 c 0,14,15
 903.246 121 903.246 121 945.123 175.25 c 128,-1,16
 987 229.5 987 229.5 987 391 c 2,17,-1
 987 1345 l 1,18,-1
 679 1345 l 1,19,-1
 679 1491 l 1,20,-1
 1174 1491 l 1,21,-1
 1174 443 l 2,22,23
 1174 128.741 1174 128.741 1055.5 39.5 c 0,24,25
 983.131 -15 983.131 -15 852 -15 c 0,26,27
 782 -15 782 -15 660 0 c 1,28,-1
 659 145 l 1,12,13
EndSplineSet
EndChar

StartChar: ij
Encoding: 307 307 243
Width: 1229
Flags: W
LayerCount: 2
Fore
SplineSet
306 1386 m 2,0,-1
 306 1485 l 2,1,2
 306 1521 306 1521 346 1548.5 c 128,-1,3
 386 1576 386 1576 426.5 1576 c 128,-1,4
 467 1576 467 1576 507.5 1548.5 c 128,-1,5
 548 1521 548 1521 548 1485 c 2,6,-1
 548 1386 l 2,7,8
 548 1350 548 1350 507.5 1322.5 c 128,-1,9
 467 1295 467 1295 426.5 1295 c 128,-1,10
 386 1295 386 1295 346 1322.5 c 128,-1,11
 306 1350 306 1350 306 1386 c 2,0,-1
122 957 m 1,12,-1
 122 1097 l 1,13,-1
 518 1097 l 1,14,-1
 518 140 l 1,15,-1
 762 140 l 1,16,-1
 762 0 l 1,17,-1
 88 0 l 1,18,-1
 88 140 l 1,19,-1
 336 140 l 1,20,-1
 336 957 l 1,21,-1
 122 957 l 1,12,-1
720 -220 m 2,22,23
 817.615 -220 817.615 -220 850.308 -203 c 128,-1,24
 883 -186 883 -186 896 -167.5 c 0,25,26
 932 -116.269 932 -116.269 932 71 c 2,27,-1
 932 957 l 1,28,-1
 670 957 l 1,29,-1
 670 1097 l 1,30,-1
 1114 1097 l 1,31,-1
 1114 127 l 2,32,33
 1114 -72.0625 1114 -72.0625 1100.5 -123.531 c 0,34,35
 1072.07 -231.933 1072.07 -231.933 1039.5 -264.5 c 0,36,37
 984.375 -319.625 984.375 -319.625 910.354 -339.812 c 128,-1,38
 836.333 -360 836.333 -360 722 -360 c 2,39,-1
 588 -360 l 1,40,-1
 588 -220 l 1,41,-1
 720 -220 l 2,22,23
900 1386 m 2,42,-1
 900 1485 l 2,43,44
 900 1521 900 1521 940 1548.5 c 128,-1,45
 980 1576 980 1576 1020.5 1576 c 128,-1,46
 1061 1576 1061 1576 1101.5 1548.5 c 128,-1,47
 1142 1521 1142 1521 1142 1485 c 2,48,-1
 1142 1386 l 2,49,50
 1142 1350 1142 1350 1101.5 1322.5 c 128,-1,51
 1061 1295 1061 1295 1020.5 1295 c 128,-1,52
 980 1295 980 1295 940 1322.5 c 128,-1,53
 900 1350 900 1350 900 1386 c 2,42,-1
EndSplineSet
EndChar

StartChar: Jcircumflex
Encoding: 308 308 244
Width: 1229
Flags: W
LayerCount: 2
Fore
SplineSet
682 2009 m 1,0,-1
 941 1660 l 1,1,-1
 798 1660 l 1,2,-1
 594 1895 l 1,3,-1
 392 1660 l 1,4,-1
 256 1660 l 1,5,-1
 515 2009 l 1,6,-1
 682 2009 l 1,0,-1
137 134 m 1,7,-1
 350 134 l 2,8,9
 478 134 478 134 526 193 c 128,-1,10
 574 252 574 252 574 391 c 2,11,-1
 574 1328 l 1,12,-1
 229 1328 l 1,13,-1
 229 1491 l 1,14,-1
 1060 1491 l 1,15,-1
 1060 1328 l 1,16,-1
 761 1328 l 1,17,-1
 761 443 l 2,18,19
 761 197.472 761 197.472 677.433 85.7359 c 0,20,21
 593.866 -26 593.866 -26 371 -26 c 2,22,-1
 137 -26 l 1,23,-1
 137 134 l 1,7,-1
EndSplineSet
EndChar

StartChar: jcircumflex
Encoding: 309 309 245
Width: 1229
Flags: W
LayerCount: 2
Fore
SplineSet
553 1615 m 1,0,-1
 812 1266 l 1,1,-1
 669 1266 l 1,2,-1
 465 1501 l 1,3,-1
 263 1266 l 1,4,-1
 127 1266 l 1,5,-1
 386 1615 l 1,6,-1
 553 1615 l 1,0,-1
410 -155 m 2,7,8
 550.206 -155 550.206 -155 581.623 -112.273 c 0,9,10
 613.04 -69.5457 613.04 -69.5457 617.02 -4.27286 c 128,-1,11
 621 61 621 61 621 127 c 2,12,-1
 621 953 l 1,13,-1
 136 953 l 1,14,-1
 136 1097 l 1,15,-1
 803 1097 l 1,16,-1
 803 183 l 2,17,18
 803 -73.5 803 -73.5 763.049 -158.396 c 0,19,20
 723.098 -243.293 723.098 -243.293 653 -272.5 c 0,21,22
 555.8 -313 555.8 -313 411 -313 c 2,23,-1
 135 -313 l 1,24,-1
 135 -155 l 1,25,-1
 410 -155 l 2,7,8
EndSplineSet
EndChar

StartChar: Kcommaaccent
Encoding: 310 310 246
Width: 1229
Flags: W
LayerCount: 2
Fore
SplineSet
891 -102 m 1,0,-1
 710 -604 l 1,1,-1
 565 -604 l 1,2,-1
 683 -102 l 1,3,-1
 891 -102 l 1,0,-1
927 1491 m 1,4,-1
 1160 1491 l 1,5,-1
 661 823 l 1,6,-1
 1193 0 l 1,7,-1
 955 0 l 1,8,-1
 517 700 l 1,9,-1
 398 561 l 1,10,-1
 398 0 l 1,11,-1
 211 0 l 1,12,-1
 211 1491 l 1,13,-1
 398 1491 l 1,14,-1
 398 773 l 1,15,-1
 927 1491 l 1,4,-1
EndSplineSet
EndChar

StartChar: kcommaaccent
Encoding: 311 311 247
Width: 1229
Flags: W
LayerCount: 2
Fore
SplineSet
839 -152 m 1,0,-1
 658 -655 l 1,1,-1
 512 -655 l 1,2,-1
 631 -152 l 1,3,-1
 839 -152 l 1,0,-1
397 648 m 1,4,-1
 886 1097 l 1,5,-1
 1126 1097 l 1,6,-1
 639 641 l 1,7,-1
 1135 0 l 1,8,-1
 907 0 l 1,9,-1
 509 546 l 1,10,-1
 397 451 l 1,11,-1
 397 0 l 1,12,-1
 215 0 l 1,13,-1
 215 1585 l 1,14,-1
 397 1585 l 1,15,-1
 397 648 l 1,4,-1
EndSplineSet
EndChar

StartChar: kgreenlandic
Encoding: 312 312 248
Width: 1229
Flags: W
LayerCount: 2
Fore
SplineSet
398 604 m 1,0,-1
 914 1113 l 1,1,-1
 1164 1113 l 1,2,-1
 576 555 l 1,3,-1
 1204 0 l 1,4,-1
 962 0 l 1,5,-1
 397 511 l 1,6,-1
 397 0 l 1,7,-1
 215 0 l 1,8,-1
 215 1114 l 1,9,-1
 398 1114 l 1,10,-1
 398 604 l 1,0,-1
EndSplineSet
EndChar

StartChar: Lcommaaccent
Encoding: 315 315 251
Width: 1229
Flags: W
LayerCount: 2
Fore
SplineSet
844 -102 m 1,0,-1
 663 -604 l 1,1,-1
 518 -604 l 1,2,-1
 636 -102 l 1,3,-1
 844 -102 l 1,0,-1
490 146 m 1,4,-1
 1066 146 l 1,5,-1
 1056 0 l 1,6,-1
 303 0 l 1,7,-1
 303 1491 l 1,8,-1
 490 1491 l 1,9,-1
 490 146 l 1,4,-1
EndSplineSet
EndChar

StartChar: lcommaaccent
Encoding: 316 316 252
Width: 1229
Flags: W
LayerCount: 2
Fore
SplineSet
819 -102 m 1,0,-1
 638 -604 l 1,1,-1
 493 -604 l 1,2,-1
 611 -102 l 1,3,-1
 819 -102 l 1,0,-1
1039 0 m 1,4,-1
 894 0 l 2,5,6
 701.478 0 701.478 0 618 40 c 0,7,8
 570 63 570 63 541.5 93 c 0,9,10
 467.984 170.385 467.984 170.385 465 433 c 1,11,-1
 465 1425 l 1,12,-1
 137 1425 l 1,13,-1
 137 1565 l 1,14,-1
 647 1565 l 1,15,-1
 647 442 l 2,16,17
 647 243.133 647 243.133 683.455 198.172 c 128,-1,18
 719.91 153.211 719.91 153.211 774.955 146.605 c 128,-1,19
 830 140 830 140 887 140 c 2,20,-1
 1048 140 l 1,21,-1
 1039 0 l 1,4,-1
EndSplineSet
EndChar

StartChar: ldot
Encoding: 320 320 256
Width: 1229
Flags: W
LayerCount: 2
Fore
SplineSet
1716 557 m 1,0,-1
 1716 785 l 1,1,-1
 1957 785 l 1,2,-1
 1957 557 l 1,3,-1
 1716 557 l 1,0,-1
195 1433 m 1,4,-1
 195 1585 l 1,5,-1
 788 1585 l 1,6,-1
 788 144 l 1,7,-1
 1259 144 l 1,8,-1
 1259 0 l 1,9,-1
 125 0 l 1,10,-1
 125 144 l 1,11,-1
 606 144 l 1,12,-1
 606 1433 l 1,13,-1
 195 1433 l 1,4,-1
EndSplineSet
EndChar

StartChar: Lslash
Encoding: 321 321 257
Width: 1229
Flags: W
LayerCount: 2
Fore
SplineSet
420 163 m 1,0,-1
 1129 163 l 1,1,-1
 1129 0 l 1,2,-1
 233 0 l 1,3,-1
 233 639 l 1,4,-1
 11 531 l 1,5,-1
 11 680 l 1,6,-1
 233 788 l 1,7,-1
 233 1491 l 1,8,-1
 420 1491 l 1,9,-1
 420 880 l 1,10,-1
 830 1080 l 1,11,-1
 830 931 l 1,12,-1
 420 731 l 1,13,-1
 420 163 l 1,0,-1
EndSplineSet
EndChar

StartChar: lslash
Encoding: 322 322 258
Width: 1229
Flags: W
LayerCount: 2
Fore
SplineSet
195 1433 m 1,0,-1
 195 1585 l 1,1,-1
 788 1585 l 1,2,-1
 788 916 l 1,3,-1
 1124 1080 l 1,4,-1
 1124 931 l 1,5,-1
 788 767 l 1,6,-1
 788 144 l 1,7,-1
 1259 144 l 1,8,-1
 1259 0 l 1,9,-1
 125 0 l 1,10,-1
 125 144 l 1,11,-1
 606 144 l 1,12,-1
 606 678 l 1,13,-1
 305 531 l 1,14,-1
 305 680 l 1,15,-1
 606 827 l 1,16,-1
 606 1433 l 1,17,-1
 195 1433 l 1,0,-1
EndSplineSet
EndChar

StartChar: Ncommaaccent
Encoding: 325 325 261
Width: 1229
Flags: W
LayerCount: 2
Fore
SplineSet
777 -102 m 1,0,-1
 596 -604 l 1,1,-1
 451 -604 l 1,2,-1
 569 -102 l 1,3,-1
 777 -102 l 1,0,-1
1078 0 m 1,4,-1
 858 0 l 1,5,-1
 320 1206 l 1,6,-1
 320 0 l 1,7,-1
 150 0 l 1,8,-1
 150 1491 l 1,9,-1
 365 1491 l 1,10,-1
 911 289 l 1,11,-1
 911 1491 l 1,12,-1
 1078 1491 l 1,13,-1
 1078 0 l 1,4,-1
EndSplineSet
EndChar

StartChar: ncommaaccent
Encoding: 326 326 262
Width: 1229
Flags: W
LayerCount: 2
Fore
SplineSet
799 -102 m 1,0,-1
 618 -604 l 1,1,-1
 473 -604 l 1,2,-1
 591 -102 l 1,3,-1
 799 -102 l 1,0,-1
713 1130 m 0,4,5
 1054 1130 1054 1130 1054 698 c 2,6,-1
 1054 0 l 1,7,-1
 872 0 l 1,8,-1
 872 676 l 2,9,10
 872 791.889 872 791.889 860.127 842.017 c 128,-1,11
 848.255 892.146 848.255 892.146 823.795 924.05 c 0,12,13
 773 990 773 990 656.617 990 c 1,14,15
 540 990 540 990 459 922 c 128,-1,16
 378 854 378 854 378 742 c 2,17,-1
 378 0 l 1,18,-1
 196 0 l 1,19,-1
 196 1097 l 1,20,-1
 363 1097 l 1,21,-1
 373 978 l 1,22,23
 482 1130 482 1130 713 1130 c 0,4,5
EndSplineSet
EndChar

StartChar: Eng
Encoding: 330 330 265
Width: 1229
Flags: W
LayerCount: 2
Fore
SplineSet
706 -299 m 0,0,1
 912 -299 912 -299 912 -39 c 2,2,-1
 912 1003 l 2,3,4
 912 1192 912 1192 858.5 1277.5 c 128,-1,5
 805 1363 805 1363 656.524 1363 c 128,-1,6
 508.047 1363 508.047 1363 412.024 1275.24 c 128,-1,7
 316 1187.47 316 1187.47 316 1011 c 2,8,-1
 316 2 l 1,9,-1
 129 2 l 1,10,-1
 129 1491 l 1,11,-1
 303 1491 l 1,12,-1
 316 1342 l 1,13,14
 462 1517 462 1517 715 1518 c 0,15,-1
 717.845 1518.01 l 0,16,17
 896.799 1518.01 896.799 1518.01 997.5 1393 c 0,18,19
 1099 1267 1099 1267 1099 1009 c 2,20,-1
 1099 13 l 2,21,22
 1099 -225.896 1099 -225.896 1007.68 -341.948 c 128,-1,23
 916.361 -458 916.361 -458 682 -458 c 0,24,25
 592 -458 592 -458 406 -437 c 2,26,-1
 345 -430 l 1,27,-1
 334 -268 l 1,28,29
 592 -299 592 -299 706 -299 c 0,0,1
EndSplineSet
EndChar

StartChar: eng
Encoding: 331 331 266
Width: 1229
Flags: W
LayerCount: 2
Fore
SplineSet
713 1130 m 0,0,1
 1054 1130 1054 1130 1054 698 c 2,2,-1
 1053 56 l 2,3,4
 1053 -200.375 1053 -200.375 1012.35 -282.942 c 128,-1,5
 971.703 -365.51 971.703 -365.51 903 -392.5 c 0,6,7
 805 -431 805 -431 661 -431 c 2,8,-1
 398 -431 l 1,9,-1
 398 -291 l 1,10,-1
 660 -291 l 2,11,12
 756.615 -291 756.615 -291 789.308 -274 c 128,-1,13
 822 -257 822 -257 835.5 -238.5 c 0,14,15
 871 -189.852 871 -189.852 871 0 c 2,16,-1
 872 676 l 2,17,18
 872 791.889 872 791.889 860.127 842.017 c 128,-1,19
 848.255 892.146 848.255 892.146 823.795 924.05 c 0,20,21
 773 990 773 990 656.617 990 c 1,22,23
 540 990 540 990 459 922 c 128,-1,24
 378 854 378 854 378 742 c 2,25,-1
 378 0 l 1,26,-1
 196 0 l 1,27,-1
 196 1097 l 1,28,-1
 363 1097 l 1,29,-1
 373 978 l 1,30,31
 482 1130 482 1130 713 1130 c 0,0,1
EndSplineSet
EndChar

StartChar: OE
Encoding: 338 338 273
Width: 1229
Flags: W
LayerCount: 2
Fore
SplineSet
243 791 m 0,0,1
 243 321.321 243 321.321 418 197.5 c 0,2,3
 471 160 471 160 539 160 c 2,4,-1
 583 160 l 1,5,-1
 583 1389 l 1,6,-1
 539 1389 l 2,7,8
 243 1389 243 1389 243 791 c 0,0,1
806 717 m 1,9,-1
 806 171 l 1,10,-1
 1133 171 l 1,11,-1
 1116 0 l 1,12,-1
 539 0 l 2,13,14
 425 0 425 0 335 44.5 c 0,15,16
 170.317 125.926 170.317 125.926 95.1586 327.976 c 128,-1,17
 20 530.026 20 530.026 20 789 c 0,18,19
 20 1115.85 20 1115.85 144.5 1335.5 c 0,20,21
 206 1444 206 1444 307 1506 c 128,-1,22
 408 1568 408 1568 539 1568 c 2,23,-1
 1097 1568 l 1,24,-1
 1081 1397 l 1,25,-1
 806 1397 l 1,26,-1
 806 889 l 1,27,-1
 1047 889 l 1,28,-1
 1047 717 l 1,29,-1
 806 717 l 1,9,-1
EndSplineSet
EndChar

StartChar: oe
Encoding: 339 339 274
Width: 1229
Flags: W
LayerCount: 2
Fore
SplineSet
1026 653 m 1,0,1
 1019.61 846.786 1019.61 846.786 966.5 929.5 c 0,2,3
 936 977 936 977 890 977 c 0,4,5
 821 977 821 977 783.5 885.5 c 128,-1,6
 746 794 746 794 739 653 c 1,7,-1
 1026 653 l 1,0,1
1148 98 m 1,8,9
 1038 -25 1038 -25 884 -25 c 128,-1,10
 730 -25 730 -25 654 156 c 1,11,12
 567 -25 567 -25 419 -25 c 0,13,14
 309 -25 309 -25 228.5 53 c 0,15,16
 70 206.578 70 206.578 70 551 c 0,17,18
 70 810 70 810 169 970 c 128,-1,19
 268 1130 268 1130 422.5 1130 c 128,-1,20
 577 1130 577 1130 661 951 c 1,21,22
 744 1130 744 1130 890 1130 c 0,23,24
 978 1130 978 1130 1043 1054.5 c 0,25,26
 1170 906.985 1170 906.985 1170 581 c 1,27,-1
 1169 520 l 1,28,-1
 733 520 l 1,29,30
 739 344 739 344 777.5 236.5 c 128,-1,31
 816 129 816 129 888 129 c 0,32,33
 988 129 988 129 1068 222 c 1,34,-1
 1148 98 l 1,8,9
589 512.75 m 0,35,36
 532.753 904.098 532.753 904.098 425 977 c 1,37,38
 379 977 379 977 344 940 c 128,-1,39
 309 903 309 903 290 840 c 128,-1,40
 271 777 271 777 262 704.5 c 128,-1,41
 253 632 253 632 253 550 c 128,-1,42
 253 468 253 468 262 396 c 128,-1,43
 271 324 271 324 290 262.5 c 128,-1,44
 309 201 309 201 344 165 c 128,-1,45
 379 129 379 129 424 129 c 0,46,47
 514.219 129 514.219 129 551.61 256.75 c 128,-1,48
 589 384.5 589 384.5 589 512.75 c 0,35,36
EndSplineSet
EndChar

StartChar: Rcommaaccent
Encoding: 342 342 277
Width: 1229
Flags: W
LayerCount: 2
Fore
SplineSet
848 -122 m 1,0,-1
 668 -624 l 1,1,-1
 522 -624 l 1,2,-1
 640 -122 l 1,3,-1
 848 -122 l 1,0,-1
567 824 m 2,4,-1
 373 824 l 1,5,-1
 373 1345 l 1,6,-1
 563 1345 l 2,7,8
 815.131 1345 815.131 1345 891 1215.5 c 0,9,10
 920 1166 920 1166 920 1098 c 0,11,12
 920 949 920 949 828.5 886.5 c 128,-1,13
 737 824 737 824 567 824 c 2,4,-1
476 1491 m 2,14,-1
 186 1491 l 1,15,-1
 186 0 l 1,16,-1
 373 0 l 1,17,-1
 373 662 l 1,18,-1
 460 662 l 1,19,-1
 601 665 l 1,20,21
 666.893 573.6 666.893 573.6 702.447 514.8 c 128,-1,22
 738 456 738 456 755.5 428 c 128,-1,23
 773 400 773 400 797.5 353 c 128,-1,24
 822 306 822 306 832.5 286.5 c 128,-1,25
 843 267 843 267 868.5 214 c 128,-1,26
 894 161 894 161 900 148 c 128,-1,27
 906 135 906 135 934.5 72.5 c 128,-1,28
 963 10 963 10 968 0 c 1,29,-1
 1185 0 l 1,30,31
 1082 227 1082 227 992 391.5 c 128,-1,32
 902 556 902 556 784 707 c 1,33,34
 934 740 934 740 1024.5 837.5 c 128,-1,35
 1115 935 1115 935 1115 1099.26 c 128,-1,36
 1115 1263.52 1115 1263.52 1025 1350.48 c 128,-1,37
 934.998 1437.45 934.998 1437.45 798.449 1464.23 c 128,-1,38
 661.9 1491 661.9 1491 476 1491 c 2,14,-1
EndSplineSet
EndChar

StartChar: rcommaaccent
Encoding: 343 343 278
Width: 1229
Flags: W
LayerCount: 2
Fore
SplineSet
759 -122 m 1,0,-1
 578 -624 l 1,1,-1
 433 -624 l 1,2,-1
 551 -122 l 1,3,-1
 759 -122 l 1,0,-1
543 0 m 1,4,-1
 361 0 l 1,5,-1
 361 1097 l 1,6,-1
 510 1097 l 1,7,-1
 525 894 l 1,8,9
 592 1010 592 1010 701 1070 c 128,-1,10
 810 1130 810 1130 948 1130 c 2,11,-1
 1036 1130 l 1,12,-1
 1036 961 l 1,13,-1
 922 961 l 2,14,15
 747 961 747 961 645 873.5 c 128,-1,16
 543 786 543 786 543 610 c 2,17,-1
 543 0 l 1,4,-1
EndSplineSet
EndChar

StartChar: Tbar
Encoding: 358 358 293
Width: 1229
Flags: W
LayerCount: 2
Fore
SplineSet
275 561 m 1,0,-1
 275 701 l 1,1,-1
 518 701 l 1,2,-1
 518 1345 l 1,3,-1
 94 1345 l 1,4,-1
 94 1491 l 1,5,-1
 1129 1491 l 1,6,-1
 1129 1345 l 1,7,-1
 705 1345 l 1,8,-1
 705 701 l 1,9,-1
 954 701 l 1,10,-1
 954 561 l 1,11,-1
 705 561 l 1,12,-1
 705 0 l 1,13,-1
 518 0 l 1,14,-1
 518 561 l 1,15,-1
 275 561 l 1,0,-1
EndSplineSet
EndChar

StartChar: tbar
Encoding: 359 359 294
Width: 1229
Flags: W
LayerCount: 2
Fore
SplineSet
200 580 m 1,0,-1
 200 720 l 1,1,-1
 401 720 l 1,2,-1
 401 957 l 1,3,-1
 91 957 l 1,4,-1
 111 1097 l 1,5,-1
 401 1097 l 1,6,-1
 401 1475 l 1,7,-1
 583 1529 l 1,8,-1
 583 1097 l 1,9,-1
 1045 1097 l 1,10,-1
 1045 957 l 1,11,-1
 583 957 l 1,12,-1
 583 720 l 1,13,-1
 879 720 l 1,14,-1
 879 580 l 1,15,-1
 583 580 l 1,16,-1
 583 442 l 2,17,18
 583 346 583 346 593.5 290 c 128,-1,19
 604 234 604 234 635.5 199 c 128,-1,20
 667 164 667 164 717 152 c 128,-1,21
 767 140 767 140 853 140 c 2,22,-1
 1054 140 l 1,23,-1
 1044 0 l 1,24,-1
 860 0 l 2,25,26
 576.899 0 576.899 0 483 104.5 c 0,27,28
 422.125 172.248 422.125 172.248 407.5 323 c 0,29,30
 401 390 401 390 401 488 c 2,31,-1
 401 580 l 1,32,-1
 200 580 l 1,0,-1
EndSplineSet
EndChar

StartChar: florin
Encoding: 402 402 318
Width: 1229
Flags: W
LayerCount: 2
Fore
SplineSet
1238 1381 m 1,0,1
 1178 1404 1178 1404 1114.59 1404 c 0,2,3
 1051.18 1404 1051.18 1404 1000.5 1371 c 0,4,5
 928.658 1324.22 928.658 1324.22 906.336 1152.02 c 0,6,7
 896.136 1073.33 896.136 1073.33 887 1024 c 1,8,-1
 1108 1024 l 1,9,-1
 1098 872 l 1,10,-1
 862 872 l 1,11,-1
 721 130 l 1,12,13
 680.608 -65.2267 680.608 -65.2267 649.804 -131.113 c 0,14,15
 591.312 -256.222 591.312 -256.222 523.856 -308.111 c 128,-1,16
 456.4 -360 456.4 -360 365.2 -360 c 128,-1,17
 274 -360 274 -360 215 -343 c 1,18,-1
 228 -194 l 1,19,20
 270 -210 270 -210 325.138 -210 c 128,-1,21
 380.275 -210 380.275 -210 417.315 -169.956 c 128,-1,22
 454.356 -129.913 454.356 -129.913 470.993 -84.6602 c 128,-1,23
 487.63 -39.4074 487.63 -39.4074 496.815 -4.20369 c 128,-1,24
 506 31 506 31 523 92 c 128,-1,25
 540 153 540 153 567 290.5 c 128,-1,26
 594 428 594 428 625 607.5 c 128,-1,27
 656 787 656 787 672 872 c 1,28,-1
 500 872 l 1,29,-1
 511 1024 l 1,30,-1
 699 1024 l 1,31,32
 727 1231 727 1231 754 1315 c 0,33,34
 833.373 1559 833.373 1559 1083 1559 c 0,35,36
 1166 1559 1166 1559 1248 1539 c 1,37,-1
 1238 1381 l 1,0,1
EndSplineSet
EndChar

StartChar: Scommaaccent
Encoding: 536 536 319
Width: 1229
Flags: W
LayerCount: 2
Fore
SplineSet
760 -176 m 1,0,-1
 579 -678 l 1,1,-1
 434 -678 l 1,2,-1
 552 -176 l 1,3,-1
 760 -176 l 1,0,-1
212 271 m 1,4,5
 363 148 363 148 593 148 c 0,6,7
 715 148 715 148 779 214 c 128,-1,8
 843 280 843 280 843 395.304 c 128,-1,9
 843 510.608 843 510.608 775.473 571.515 c 128,-1,10
 707.945 632.422 707.945 632.422 611.5 671 c 2,11,-1
 551.5 695 l 2,12,13
 381.625 762.95 381.625 762.95 316.312 809.975 c 128,-1,14
 251 857 251 857 221 896 c 0,15,16
 150 988.3 150 988.3 150 1123 c 0,17,18
 150 1310 150 1310 277 1413.5 c 128,-1,19
 404 1517 404 1517 626 1517 c 128,-1,20
 848 1517 848 1517 995 1401 c 1,21,-1
 925 1249 l 1,22,23
 802 1345 802 1345 594 1345 c 0,24,25
 483 1345 483 1345 420 1286 c 128,-1,26
 357 1227 357 1227 357 1114.87 c 128,-1,27
 357 1002.73 357 1002.73 484.5 929 c 0,28,29
 528.453 903.582 528.453 903.582 632.745 862.963 c 0,30,31
 737.037 822.344 737.037 822.344 831.652 770.735 c 128,-1,32
 926.267 719.127 926.267 719.127 990.134 628.039 c 128,-1,33
 1054 536.951 1054 536.951 1054 395 c 0,34,35
 1054 191 1054 191 928.5 83 c 128,-1,36
 803 -25 803 -25 568.5 -25 c 128,-1,37
 334 -25 334 -25 141 104 c 1,38,-1
 212 271 l 1,4,5
EndSplineSet
EndChar

StartChar: scommaaccent
Encoding: 537 537 320
Width: 1229
Flags: W
LayerCount: 2
Fore
SplineSet
812 -176 m 1,0,-1
 631 -678 l 1,1,-1
 486 -678 l 1,2,-1
 604 -176 l 1,3,-1
 812 -176 l 1,0,-1
863.5 219.5 m 0,4,5
 884 254 884 254 884 296 c 128,-1,6
 884 338 884 338 860.648 375.363 c 0,7,8
 837.296 412.726 837.296 412.726 773.315 437.213 c 128,-1,9
 709.333 461.7 709.333 461.7 615.918 481.204 c 128,-1,10
 522.504 500.708 522.504 500.708 431.905 532.312 c 128,-1,11
 341.307 563.916 341.307 563.916 278.653 632.941 c 128,-1,12
 216 701.966 216 701.966 216 799.483 c 0,13,14
 216 976.207 216 976.207 338.192 1053.1 c 128,-1,15
 460.384 1130 460.384 1130 628 1130 c 0,16,17
 881 1130 881 1130 1031 1061 c 1,18,-1
 973 914 l 1,19,20
 836 969 836 969 637 969 c 0,21,22
 547 969 547 969 487 934.5 c 128,-1,23
 427 900 427 900 427 825 c 0,24,25
 427 707.033 427 707.033 620 662 c 0,26,27
 650 655 650 655 720.984 639.399 c 128,-1,28
 791.969 623.798 791.969 623.798 861 600.5 c 0,29,30
 1095 521.525 1095 521.525 1095 332.309 c 128,-1,31
 1095 143.093 1095 143.093 961.148 59.0465 c 128,-1,32
 827.296 -25 827.296 -25 636 -25 c 0,33,34
 343 -25 343 -25 203 76 c 1,35,-1
 261 231 l 1,36,37
 395 136 395 136 604.442 136 c 128,-1,38
 813.884 136 813.884 136 863.5 219.5 c 0,4,5
EndSplineSet
EndChar

StartChar: circumflex
Encoding: 710 710 321
Width: 1229
Flags: W
LayerCount: 2
Fore
SplineSet
709 1615 m 1,0,-1
 968 1266 l 1,1,-1
 825 1266 l 1,2,-1
 621 1501 l 1,3,-1
 419 1266 l 1,4,-1
 283 1266 l 1,5,-1
 542 1615 l 1,6,-1
 709 1615 l 1,0,-1
EndSplineSet
EndChar

StartChar: caron
Encoding: 711 711 322
Width: 1229
Flags: W
LayerCount: 2
Fore
SplineSet
444 1614 m 1,0,-1
 632 1379 l 1,1,-1
 822 1614 l 1,2,-1
 993 1614 l 1,3,-1
 720 1266 l 1,4,-1
 555 1266 l 1,5,-1
 283 1614 l 1,6,-1
 444 1614 l 1,0,-1
EndSplineSet
EndChar

StartChar: breve
Encoding: 728 728 323
Width: 1229
Flags: W
LayerCount: 2
Fore
SplineSet
411 1579 m 1,0,1
 437 1438 437 1438 620 1438 c 0,2,3
 707 1438 707 1438 766 1475 c 128,-1,4
 825 1512 825 1512 843 1579 c 1,5,-1
 940 1579 l 1,6,7
 931 1453 931 1453 849.5 1388 c 128,-1,8
 768 1323 768 1323 629 1323 c 0,9,10
 337 1323 337 1323 313 1579 c 1,11,-1
 411 1579 l 1,0,1
EndSplineSet
EndChar

StartChar: dotaccent
Encoding: 729 729 324
Width: 1229
Flags: W
LayerCount: 2
Fore
SplineSet
508 1529 m 1,0,-1
 685 1529 l 1,1,-1
 685 1352 l 1,2,-1
 508 1352 l 1,3,-1
 508 1529 l 1,0,-1
EndSplineSet
EndChar

StartChar: ring
Encoding: 730 730 325
Width: 1229
Flags: W
LayerCount: 2
Fore
SplineSet
784.5 1603.5 m 128,-1,1
 852 1546 852 1546 852 1455.5 c 128,-1,2
 852 1365 852 1365 784 1306 c 128,-1,3
 716 1247 716 1247 620 1247 c 128,-1,4
 524 1247 524 1247 455.5 1305 c 128,-1,5
 387 1363 387 1363 387 1455 c 128,-1,6
 387 1547 387 1547 455 1604 c 128,-1,7
 523 1661 523 1661 620 1661 c 128,-1,0
 717 1661 717 1661 784.5 1603.5 c 128,-1,1
710 1534.5 m 128,-1,9
 677 1568 677 1568 625 1568 c 128,-1,10
 573 1568 573 1568 535 1538 c 128,-1,11
 497 1508 497 1508 497 1457.5 c 128,-1,12
 497 1407 497 1407 527 1373.5 c 128,-1,13
 557 1340 557 1340 610 1340 c 128,-1,14
 663 1340 663 1340 703 1370.5 c 128,-1,15
 743 1401 743 1401 743 1451 c 128,-1,8
 743 1501 743 1501 710 1534.5 c 128,-1,9
EndSplineSet
EndChar

StartChar: ogonek
Encoding: 731 731 326
Width: 1229
Flags: W
LayerCount: 2
Fore
SplineSet
795 0 m 1,0,1
 569 -113 569 -113 569 -212 c 0,2,3
 569 -260 569 -260 606 -283 c 128,-1,4
 643 -306 643 -306 701 -306 c 128,-1,5
 759 -306 759 -306 850 -271 c 1,6,-1
 850 -392 l 1,7,8
 772 -424 772 -424 691 -424 c 128,-1,9
 610 -424 610 -424 552.5 -409.5 c 128,-1,10
 495 -395 495 -395 454.5 -353 c 128,-1,11
 414 -311 414 -311 414 -257.5 c 128,-1,12
 414 -204 414 -204 436.676 -153.839 c 0,13,14
 473.703 -71.9303 473.703 -71.9303 653 13 c 1,15,-1
 795 0 l 1,0,1
EndSplineSet
EndChar

StartChar: tilde
Encoding: 732 732 327
Width: 1229
Flags: W
LayerCount: 2
Fore
SplineSet
391 1303 m 1,0,-1
 254 1303 l 1,1,2
 256 1417 256 1417 316 1482.5 c 128,-1,3
 376 1548 376 1548 475.116 1548 c 0,4,5
 574.233 1548 574.233 1548 654.5 1489.5 c 128,-1,6
 734.767 1431 734.767 1431 818 1431 c 0,7,8
 891 1431 891 1431 899 1536 c 1,9,-1
 1037 1536 l 1,10,11
 1031 1425 1031 1425 975 1357 c 128,-1,12
 919 1289 919 1289 822.136 1289 c 0,13,14
 725.273 1289 725.273 1289 647.5 1347 c 128,-1,15
 569.727 1405 569.727 1405 482.534 1405 c 128,-1,16
 395.34 1405 395.34 1405 391 1303 c 1,0,-1
EndSplineSet
EndChar

StartChar: hungarumlaut
Encoding: 733 733 328
Width: 1229
Flags: W
LayerCount: 2
Fore
SplineSet
246 1270 m 1,0,-1
 495 1607 l 1,1,-1
 685 1607 l 1,2,-1
 374 1270 l 1,3,-1
 246 1270 l 1,0,-1
539 1270 m 1,4,-1
 793 1607 l 1,5,-1
 983 1607 l 1,6,-1
 670 1270 l 1,7,-1
 539 1270 l 1,4,-1
EndSplineSet
EndChar

StartChar: endash
Encoding: 8211 8211 329
Width: 1229
Flags: W
LayerCount: 2
Fore
SplineSet
184 531 m 1,0,-1
 184 680 l 1,1,-1
 1391 680 l 1,2,-1
 1391 531 l 1,3,-1
 184 531 l 1,0,-1
EndSplineSet
EndChar

StartChar: emdash
Encoding: 8212 8212 330
Width: 1229
Flags: W
LayerCount: 2
Fore
SplineSet
-6 531 m 1,0,-1
 -6 680 l 1,1,-1
 1235 680 l 1,2,-1
 1235 531 l 1,3,-1
 -6 531 l 1,0,-1
EndSplineSet
EndChar

StartChar: afii00208
Encoding: 8213 8213 331
Width: 4096
Flags: W
LayerCount: 2
Fore
SplineSet
323 672 m 1,0,-1
 323 827 l 1,1,-1
 3860 827 l 1,2,-1
 3860 672 l 1,3,-1
 323 672 l 1,0,-1
EndSplineSet
EndChar

StartChar: quoteleft
Encoding: 8216 8216 332
Width: 1229
Flags: W
LayerCount: 2
Fore
SplineSet
446 1110 m 1,0,-1
 617 1588 l 1,1,-1
 762 1588 l 1,2,-1
 647 1110 l 1,3,-1
 446 1110 l 1,0,-1
EndSplineSet
EndChar

StartChar: quoteright
Encoding: 8217 8217 333
Width: 1229
Flags: W
LayerCount: 2
Fore
SplineSet
761 1588 m 1,0,-1
 592 1110 l 1,1,-1
 446 1110 l 1,2,-1
 563 1588 l 1,3,-1
 761 1588 l 1,0,-1
EndSplineSet
EndChar

StartChar: quotesinglbase
Encoding: 8218 8218 334
Width: 1229
Flags: W
LayerCount: 2
Fore
SplineSet
773 218 m 1,0,-1
 604 -258 l 1,1,-1
 457 -258 l 1,2,-1
 574 218 l 1,3,-1
 773 218 l 1,0,-1
EndSplineSet
EndChar

StartChar: quotedblleft
Encoding: 8220 8220 335
Width: 1229
Flags: W
LayerCount: 2
Fore
SplineSet
233 1110 m 1,0,-1
 404 1588 l 1,1,-1
 551 1588 l 1,2,-1
 435 1110 l 1,3,-1
 233 1110 l 1,0,-1
620 1110 m 1,4,-1
 790 1588 l 1,5,-1
 938 1588 l 1,6,-1
 822 1110 l 1,7,-1
 620 1110 l 1,4,-1
EndSplineSet
EndChar

StartChar: quotedblright
Encoding: 8221 8221 336
Width: 1229
Flags: W
LayerCount: 2
Fore
SplineSet
913 1588 m 1,0,-1
 742 1110 l 1,1,-1
 595 1110 l 1,2,-1
 712 1588 l 1,3,-1
 913 1588 l 1,0,-1
550 1588 m 1,4,-1
 380 1110 l 1,5,-1
 233 1110 l 1,6,-1
 349 1588 l 1,7,-1
 550 1588 l 1,4,-1
EndSplineSet
EndChar

StartChar: quotedblbase
Encoding: 8222 8222 337
Width: 1229
Flags: W
LayerCount: 2
Fore
SplineSet
958 218 m 1,0,-1
 787 -258 l 1,1,-1
 641 -258 l 1,2,-1
 755 218 l 1,3,-1
 958 218 l 1,0,-1
561 218 m 1,4,-1
 391 -258 l 1,5,-1
 244 -258 l 1,6,-1
 360 218 l 1,7,-1
 561 218 l 1,4,-1
EndSplineSet
EndChar

StartChar: dagger
Encoding: 8224 8224 338
Width: 1229
Flags: W
LayerCount: 2
Fore
SplineSet
240 1014 m 1,0,-1
 240 1158 l 1,1,-1
 601 1158 l 1,2,-1
 601 1575 l 1,3,-1
 758 1575 l 1,4,-1
 758 1158 l 1,5,-1
 1139 1158 l 1,6,-1
 1139 1014 l 1,7,-1
 743 1014 l 1,8,-1
 743 123 l 1,9,-1
 601 123 l 1,10,-1
 601 1014 l 1,11,-1
 240 1014 l 1,0,-1
EndSplineSet
EndChar

StartChar: daggerdbl
Encoding: 8225 8225 339
Width: 1229
Flags: W
LayerCount: 2
Fore
SplineSet
236 1067 m 1,0,-1
 236 1211 l 1,1,-1
 617 1211 l 1,2,-1
 589 1575 l 1,3,-1
 754 1575 l 1,4,-1
 754 1211 l 1,5,-1
 1135 1211 l 1,6,-1
 1135 1067 l 1,7,-1
 746 1067 l 1,8,-1
 746 610 l 1,9,-1
 1127 610 l 1,10,-1
 1127 472 l 1,11,-1
 746 472 l 1,12,-1
 775 123 l 1,13,-1
 586 123 l 1,14,-1
 610 472 l 1,15,-1
 229 472 l 1,16,-1
 229 610 l 1,17,-1
 610 610 l 1,18,-1
 610 1067 l 1,19,-1
 236 1067 l 1,0,-1
EndSplineSet
EndChar

StartChar: bullet
Encoding: 8226 8226 340
Width: 1229
Flags: W
LayerCount: 2
Fore
SplineSet
1016 514 m 128,-1,1
 906 418 906 418 747 418 c 128,-1,2
 588 418 588 418 483.5 520 c 128,-1,3
 379 622 379 622 379 753 c 0,4,5
 379 938.47 379 938.47 558 1040.5 c 0,6,7
 655.368 1096 655.368 1096 746.684 1096 c 0,8,9
 920.621 1096 920.621 1096 1023.31 992.218 c 128,-1,10
 1126 888.436 1126 888.436 1126 749.218 c 128,-1,0
 1126 610 1126 610 1016 514 c 128,-1,1
EndSplineSet
EndChar

StartChar: ellipsis
Encoding: 8230 8230 341
Width: 1229
Flags: W
LayerCount: 2
Fore
SplineSet
675 -12 m 1,0,-1
 675 216 l 1,1,-1
 916 216 l 1,2,-1
 916 -12 l 1,3,-1
 675 -12 l 1,0,-1
1274 -12 m 1,4,-1
 1274 216 l 1,5,-1
 1514 216 l 1,6,-1
 1514 -12 l 1,7,-1
 1274 -12 l 1,4,-1
78 -12 m 1,8,-1
 78 216 l 1,9,-1
 319 216 l 1,10,-1
 319 -12 l 1,11,-1
 78 -12 l 1,8,-1
EndSplineSet
EndChar

StartChar: perthousand
Encoding: 8240 8240 342
Width: 1229
Flags: W
LayerCount: 2
Fore
SplineSet
540.5 1377.5 m 128,-1,1
 488 1449 488 1449 382 1449 c 128,-1,2
 276 1449 276 1449 221.5 1375.5 c 128,-1,3
 167 1302 167 1302 167 1186 c 128,-1,4
 167 1070 167 1070 220.5 998 c 128,-1,5
 274 926 274 926 380 926 c 128,-1,6
 486 926 486 926 539.5 999.5 c 128,-1,7
 593 1073 593 1073 593 1189.5 c 128,-1,0
 593 1306 593 1306 540.5 1377.5 c 128,-1,1
1383 167 m 128,-1,9
 1438 241 1438 241 1438 357.5 c 128,-1,10
 1438 474 1438 474 1385 545 c 128,-1,11
 1332 616 1332 616 1225 616 c 128,-1,12
 1118 616 1118 616 1063.5 543.5 c 128,-1,13
 1009 471 1009 471 1009 356 c 1,14,-1
 1011 356 l 1,15,16
 1011 236 1011 236 1063.5 164.5 c 128,-1,17
 1116 93 1116 93 1222 93 c 128,-1,8
 1328 93 1328 93 1383 167 c 128,-1,9
1932 164 m 128,-1,19
 1984 93 1984 93 2091.5 93 c 128,-1,20
 2199 93 2199 93 2253 166.5 c 128,-1,21
 2307 240 2307 240 2307 355 c 1,22,-1
 2310 355 l 1,23,24
 2310 474 2310 474 2256.5 545 c 128,-1,25
 2203 616 2203 616 2096 616 c 128,-1,26
 1989 616 1989 616 1934.5 543.5 c 128,-1,27
 1880 471 1880 471 1880 353 c 128,-1,18
 1880 235 1880 235 1932 164 c 128,-1,19
1234 1559 m 1,28,-1
 1399 1559 l 1,29,-1
 365 -22 l 1,30,-1
 195 -22 l 1,31,-1
 1234 1559 l 1,28,-1
104.5 1467 m 128,-1,33
 205 1571 205 1571 381 1571 c 128,-1,34
 557 1571 557 1571 654.5 1468.5 c 128,-1,35
 752 1366 752 1366 752 1188 c 128,-1,36
 752 1010 752 1010 651.5 907 c 128,-1,37
 551 804 551 804 374.5 804 c 128,-1,38
 198 804 198 804 101 906 c 128,-1,39
 4 1008 4 1008 4 1185.5 c 128,-1,32
 4 1363 4 1363 104.5 1467 c 128,-1,33
949.5 635.5 m 128,-1,41
 1051 740 1051 740 1227 740 c 128,-1,42
 1403 740 1403 740 1499 637 c 128,-1,43
 1595 534 1595 534 1595 356.5 c 128,-1,44
 1595 179 1595 179 1494.5 74.5 c 128,-1,45
 1394 -30 1394 -30 1219 -30 c 128,-1,46
 1044 -30 1044 -30 946 73 c 128,-1,47
 848 176 848 176 848 353.5 c 128,-1,40
 848 531 848 531 949.5 635.5 c 128,-1,41
1822 636 m 128,-1,49
 1923 740 1923 740 2099 740 c 128,-1,50
 2275 740 2275 740 2371.5 637 c 128,-1,51
 2468 534 2468 534 2468 356.5 c 128,-1,52
 2468 179 2468 179 2367 74.5 c 128,-1,53
 2266 -30 2266 -30 2090.5 -30 c 128,-1,54
 1915 -30 1915 -30 1818 73 c 128,-1,55
 1721 176 1721 176 1721 354 c 128,-1,48
 1721 532 1721 532 1822 636 c 128,-1,49
EndSplineSet
EndChar

StartChar: guilsinglleft
Encoding: 8249 8249 343
Width: 1229
Flags: W
LayerCount: 2
Fore
SplineSet
881 992 m 1,0,-1
 589 588 l 1,1,-1
 871 185 l 1,2,-1
 698 185 l 1,3,-1
 401 588 l 1,4,-1
 704 992 l 1,5,-1
 881 992 l 1,0,-1
EndSplineSet
EndChar

StartChar: guilsinglright
Encoding: 8250 8250 344
Width: 1229
Flags: W
LayerCount: 2
Fore
SplineSet
401 185 m 1,0,-1
 691 589 l 1,1,-1
 409 992 l 1,2,-1
 582 992 l 1,3,-1
 881 589 l 1,4,-1
 575 185 l 1,5,-1
 401 185 l 1,0,-1
EndSplineSet
EndChar

StartChar: fraction
Encoding: 8260 8260 345
Width: 1229
Flags: W
LayerCount: 2
Fore
SplineSet
873 1761 m 1,0,-1
 1059 1761 l 1,1,-1
 350 -48 l 1,2,-1
 170 -48 l 1,3,-1
 873 1761 l 1,0,-1
EndSplineSet
EndChar

StartChar: Euro
Encoding: 8364 8364 346
Width: 1229
Flags: W
LayerCount: 2
Fore
SplineSet
235 710 m 1,0,1
 232 749 232 749 232 781 c 128,-1,2
 232 813 232 813 234 851 c 1,3,-1
 96 851 l 1,4,-1
 122 1001 l 1,5,-1
 255 1001 l 1,6,7
 301.431 1247.29 301.431 1247.29 457.543 1409.64 c 0,8,9
 613.654 1572 613.654 1572 858.327 1572 c 128,-1,10
 1103 1572 1103 1572 1237 1444 c 1,11,-1
 1198 1239 l 1,12,13
 1075 1415 1075 1415 872 1415 c 0,14,15
 616.05 1415 616.05 1415 499.5 1156 c 0,16,17
 468 1086 468 1086 450 1001 c 1,18,-1
 1106 1001 l 1,19,-1
 1082 851 l 1,20,-1
 430 851 l 1,21,-1
 427 807 l 1,22,23
 427 751 427 751 431 710 c 1,24,-1
 1067 710 l 1,25,-1
 1046 560 l 1,26,-1
 446 560 l 1,27,28
 504 136 504 136 863 136 c 0,29,30
 1036 136 1036 136 1213 275 c 1,31,-1
 1212 81 l 1,32,33
 1058 -22 1058 -22 845 -22 c 0,34,35
 451.718 -22 451.718 -22 309 328 c 0,36,37
 267 431 267 431 249 560 c 1,38,-1
 100 560 l 1,39,-1
 122 710 l 1,40,-1
 235 710 l 1,0,1
EndSplineSet
EndChar

StartChar: trademark
Encoding: 8482 8482 347
Width: 1229
Flags: W
LayerCount: 2
Fore
SplineSet
605 1466 m 1,0,-1
 366 1466 l 1,1,-1
 366 745 l 1,2,-1
 231 745 l 1,3,-1
 231 1466 l 1,4,-1
 0 1466 l 1,5,-1
 0 1575 l 1,6,-1
 605 1575 l 1,7,-1
 605 1466 l 1,0,-1
1062 1201 m 1,8,-1
 1224 1575 l 1,9,-1
 1398 1575 l 1,10,-1
 1398 745 l 1,11,-1
 1262 745 l 1,12,-1
 1262 1391 l 1,13,-1
 1111 1016 l 1,14,-1
 1022 1016 l 1,15,-1
 863 1390 l 1,16,-1
 863 745 l 1,17,-1
 728 745 l 1,18,-1
 728 1575 l 1,19,-1
 914 1575 l 1,20,-1
 1062 1201 l 1,8,-1
EndSplineSet
EndChar

StartChar: partialdiff
Encoding: 8706 8706 348
Width: 1229
Flags: W
LayerCount: 2
Fore
SplineSet
1011 712 m 1,0,1
 929 943 929 943 693 943 c 0,2,3
 572 943 572 943 482.5 871.5 c 0,4,5
 309 732.894 309 732.894 309 453 c 0,6,7
 309 303 309 303 380 211.5 c 128,-1,8
 451 120 451 120 589 120 c 0,9,10
 670 120 670 120 738 158 c 0,11,12
 858.772 225.49 858.772 225.49 925.381 383.195 c 128,-1,13
 991.989 540.9 991.989 540.9 1011 712 c 1,0,1
667 1519 m 0,14,15
 508 1519 508 1519 350 1416 c 1,16,-1
 339 1566 l 1,17,18
 492 1664 492 1664 678 1664 c 0,19,20
 1004.38 1664 1004.38 1664 1137 1374.5 c 0,21,22
 1215 1204.23 1215 1204.23 1215 962 c 0,23,24
 1215 636.38 1215 636.38 1114.48 382.076 c 128,-1,25
 1013.97 127.773 1013.97 127.773 813.5 28 c 0,26,27
 705 -26 705 -26 573 -26 c 0,28,29
 358 -26 358 -26 239.5 104.5 c 128,-1,30
 121 235 121 235 121 455 c 0,31,32
 121 592 121 592 163 710.5 c 128,-1,33
 205 829 205 829 278.5 911.5 c 128,-1,34
 352 994 352 994 455 1041 c 128,-1,35
 558 1088 558 1088 677 1088 c 0,36,37
 890 1088 890 1088 1027 907 c 1,38,-1
 1028 989 l 1,39,40
 1028 1205.63 1028 1205.63 949 1354 c 0,41,42
 908 1431 908 1431 836 1475 c 128,-1,43
 764 1519 764 1519 667 1519 c 0,14,15
EndSplineSet
EndChar

StartChar: uni2206
Encoding: 8710 8710 349
Width: 1229
Flags: W
LayerCount: 2
Fore
SplineSet
1035 176 m 1,0,1
 988 300 988 300 837.135 671.112 c 0,2,3
 686.27 1042.22 686.27 1042.22 607 1322 c 1,4,5
 519.517 1053.3 519.517 1053.3 378.258 680.151 c 128,-1,6
 237 307 237 307 189 176 c 1,7,-1
 1035 176 l 1,0,1
-62 0 m 1,8,-1
 -62 87 l 1,9,-1
 514 1552 l 1,10,-1
 715 1552 l 1,11,-1
 1291 87 l 1,12,-1
 1291 0 l 1,13,-1
 -62 0 l 1,8,-1
EndSplineSet
EndChar

StartChar: product
Encoding: 8719 8719 350
Width: 1229
Flags: W
LayerCount: 2
Fore
SplineSet
1503 1388 m 1,0,-1
 1503 -358 l 1,1,-1
 1306 -358 l 1,2,-1
 1306 1388 l 1,3,-1
 506 1388 l 1,4,-1
 506 -358 l 1,5,-1
 312 -358 l 1,6,-1
 312 1388 l 1,7,-1
 174 1388 l 1,8,-1
 156 1545 l 1,9,-1
 1647 1545 l 1,10,-1
 1629 1388 l 1,11,-1
 1503 1388 l 1,0,-1
EndSplineSet
EndChar

StartChar: summation
Encoding: 8721 8721 351
Width: 1229
Flags: W
LayerCount: 2
Fore
SplineSet
74 -358 m 1,0,-1
 74 -260 l 1,1,-1
 783 599 l 1,2,-1
 100 1442 l 1,3,-1
 100 1545 l 1,4,-1
 1311 1545 l 1,5,-1
 1311 1391 l 1,6,-1
 371 1391 l 1,7,-1
 1005 609 l 1,8,-1
 336 -197 l 1,9,-1
 1362 -197 l 1,10,-1
 1362 -358 l 1,11,-1
 74 -358 l 1,0,-1
EndSplineSet
EndChar

StartChar: minus
Encoding: 8722 8722 352
Width: 1229
Flags: W
LayerCount: 2
Fore
SplineSet
1312 538 m 1,0,-1
 152 538 l 1,1,-1
 152 687 l 1,2,-1
 1312 687 l 1,3,-1
 1312 538 l 1,0,-1
EndSplineSet
EndChar

StartChar: radical
Encoding: 8730 8730 353
Width: 1229
Flags: W
LayerCount: 2
Fore
SplineSet
668 45 m 1,0,1
 749 386 749 386 926 1017.5 c 128,-1,2
 1103 1649 1103 1649 1125 1732 c 1,3,-1
 1269 1732 l 1,4,-1
 753 -166 l 1,5,-1
 603 -166 l 1,6,-1
 236 749 l 1,7,-1
 45 719 l 1,8,-1
 23 840 l 1,9,-1
 350 896 l 1,10,11
 363 863 363 863 479.679 570.42 c 0,12,13
 596.357 277.839 596.357 277.839 668 45 c 1,0,1
EndSplineSet
EndChar

StartChar: infinity
Encoding: 8734 8734 354
Width: 1229
Flags: W
LayerCount: 2
Fore
SplineSet
1341 1024 m 0,0,1
 1533 1024 1533 1024 1646 925.5 c 128,-1,2
 1759 827 1759 827 1759 644 c 0,3,4
 1759 554 1759 554 1723 478 c 128,-1,5
 1687 402 1687 402 1628.5 354.5 c 0,6,7
 1427.78 254.339 1427.78 254.339 1371.93 254.339 c 0,8,9
 1367.39 254.339 1367.39 254.339 1363.81 255 c 1,10,11
 1221.65 255 1221.65 255 1125.12 320.698 c 128,-1,12
 1028.58 386.395 1028.58 386.395 916 529 c 1,13,14
 696 255 696 255 472 255 c 0,15,16
 295 255 295 255 182.5 370.5 c 128,-1,17
 70 486 70 486 70 663 c 0,18,19
 70 749 70 749 109 820 c 128,-1,20
 148 891 148 891 208.5 934 c 0,21,22
 335.128 1024 335.128 1024 468 1024 c 0,23,24
 678.769 1024 678.769 1024 855 826.5 c 0,25,26
 884 794 884 794 919 750 c 1,27,28
 1016.15 872.224 1016.15 872.224 1048.58 899.112 c 0,29,30
 1137.26 972.652 1137.26 972.652 1200.93 998.326 c 128,-1,31
 1264.6 1024 1264.6 1024 1341 1024 c 0,0,1
284.5 827 m 128,-1,33
 214 755 214 755 214 643 c 128,-1,34
 214 531 214 531 289 458 c 128,-1,35
 364 385 364 385 476 385 c 0,36,37
 639.593 385 639.593 385 788.5 572 c 0,38,39
 810 599 810 599 839 638 c 1,40,41
 739.713 783.622 739.713 783.622 653.792 841.311 c 128,-1,42
 567.872 899 567.872 899 461.436 899 c 128,-1,32
 355 899 355 899 284.5 827 c 128,-1,33
1539 457.5 m 128,-1,44
 1604 530 1604 530 1604 649.5 c 128,-1,45
 1604 769 1604 769 1535.5 834.5 c 128,-1,46
 1467 900 1467 900 1374.33 900 c 128,-1,47
 1281.66 900 1281.66 900 1241.83 879 c 128,-1,48
 1202 858 1202 858 1182 845 c 128,-1,49
 1162 832 1162 832 1138 806.5 c 128,-1,50
 1114 781 1114 781 1102 767 c 128,-1,51
 1090 753 1090 753 1066.5 722 c 128,-1,52
 1043 691 1043 691 1028.5 673 c 128,-1,53
 1014 655 1014 655 993 642 c 1,54,55
 1079 530 1079 530 1123 488 c 0,56,57
 1229 385 1229 385 1351.5 385 c 128,-1,43
 1474 385 1474 385 1539 457.5 c 128,-1,44
EndSplineSet
EndChar

StartChar: integral
Encoding: 8747 8747 355
Width: 1229
Flags: W
LayerCount: 2
Fore
SplineSet
1019 1608 m 1,0,1
 974 1624 974 1624 910 1624 c 0,2,3
 797 1624 797 1624 757.5 1569 c 128,-1,4
 718 1514 718 1514 718 1389 c 2,5,-1
 718 -25 l 2,6,7
 718 -433 718 -433 388 -433 c 0,8,9
 322 -433 322 -433 239 -411 c 1,10,-1
 236 -270 l 1,11,12
 287 -287 287 -287 345 -287 c 0,13,14
 456 -287 456 -287 495.5 -231 c 128,-1,15
 535 -175 535 -175 535 -51 c 2,16,-1
 535 1363 l 2,17,18
 535 1771 535 1771 868 1771 c 0,19,20
 908 1771 908 1771 1016 1748 c 1,21,-1
 1019 1608 l 1,0,1
EndSplineSet
EndChar

StartChar: approxequal
Encoding: 8776 8776 356
Width: 1229
Flags: W
LayerCount: 2
Fore
SplineSet
284 688 m 1,0,-1
 154 717 l 1,1,-1
 152 717 l 1,2,3
 182 846 182 846 264 921 c 128,-1,4
 346 996 346 996 487 996 c 0,5,6
 565 996 565 996 637 966.5 c 128,-1,7
 709 937 709 937 811 877 c 128,-1,8
 913 817 913 817 969 817 c 0,9,10
 1067.11 817 1067.11 817 1107.71 868.428 c 128,-1,11
 1148.31 919.856 1148.31 919.856 1176 997 c 1,12,-1
 1299 966 l 1,13,14
 1235 688 1235 688 978 688 c 0,15,16
 857.061 688 857.061 688 732.455 761.563 c 128,-1,17
 607.849 835.125 607.849 835.125 563.924 851.063 c 128,-1,18
 520 867 520 867 481 867 c 0,19,20
 399 867 399 867 354 818 c 128,-1,21
 309 769 309 769 284 688 c 1,0,-1
999 413 m 0,22,23
 1072.53 413 1072.53 413 1112.83 467.952 c 128,-1,24
 1153.13 522.903 1153.13 522.903 1180 592 c 1,25,-1
 1303 563 l 1,26,27
 1238 284 1238 284 983 284 c 0,28,29
 913 284 913 284 838 312 c 128,-1,30
 763 340 763 340 710.5 373.5 c 0,31,32
 570.239 463 570.239 463 484 463 c 0,33,34
 339 463 339 463 284 283 c 1,35,-1
 158 314 l 1,36,37
 227 592 227 592 493 592 c 0,38,39
 618.857 592 618.857 592 742.661 519.781 c 128,-1,40
 866.466 447.562 866.466 447.562 914.733 430.281 c 128,-1,41
 963 413 963 413 999 413 c 0,22,23
EndSplineSet
EndChar

StartChar: notequal
Encoding: 8800 8800 357
Width: 1229
Flags: W
LayerCount: 2
Fore
SplineSet
929 922 m 1,0,-1
 1271 922 l 1,1,-1
 1282 791 l 1,2,-1
 864 791 l 1,3,-1
 700 483 l 1,4,-1
 1273 483 l 1,5,-1
 1282 353 l 1,6,-1
 635 353 l 1,7,-1
 480 50 l 1,8,-1
 345 70 l 1,9,-1
 487 353 l 1,10,-1
 161 353 l 1,11,-1
 153 483 l 1,12,-1
 554 483 l 1,13,-1
 716 791 l 1,14,-1
 161 791 l 1,15,-1
 152 922 l 1,16,-1
 779 922 l 1,17,-1
 930 1219 l 1,18,-1
 1068 1200 l 1,19,-1
 929 922 l 1,0,-1
EndSplineSet
EndChar

StartChar: lessequal
Encoding: 8804 8804 358
Width: 1229
Flags: W
LayerCount: 2
Fore
SplineSet
152 9 m 1,0,-1
 152 143 l 1,1,-1
 1275 143 l 1,2,-1
 1275 9 l 1,3,-1
 152 9 l 1,0,-1
191 723 m 1,4,-1
 191 811 l 1,5,-1
 1243 1323 l 1,6,-1
 1243 1172 l 1,7,-1
 386 771 l 1,8,-1
 1243 387 l 1,9,-1
 1243 235 l 1,10,-1
 191 723 l 1,4,-1
EndSplineSet
EndChar

StartChar: greaterequal
Encoding: 8805 8805 359
Width: 1229
Flags: W
LayerCount: 2
Fore
SplineSet
152 9 m 1,0,-1
 152 143 l 1,1,-1
 1271 143 l 1,2,-1
 1249 9 l 1,3,-1
 152 9 l 1,0,-1
1249 812 m 1,4,-1
 1249 726 l 1,5,-1
 187 237 l 1,6,-1
 187 389 l 1,7,-1
 1053 767 l 1,8,-1
 152 1174 l 1,9,-1
 191 1325 l 1,10,-1
 1249 812 l 1,4,-1
EndSplineSet
EndChar

StartChar: lozenge
Encoding: 9674 9674 360
Width: 1229
Flags: W
LayerCount: 2
Fore
SplineSet
694 1437 m 1,0,1
 618 1305 618 1305 470.5 1067.5 c 128,-1,2
 323 830 323 830 289 774 c 1,3,-1
 682 106 l 1,4,5
 774.153 270.906 774.153 270.906 907.577 485.953 c 128,-1,6
 1041 701 1041 701 1084 772 c 1,7,8
 1040 848 1040 848 911.241 1062.06 c 0,9,10
 782.482 1276.12 782.482 1276.12 694 1437 c 1,0,1
740 -48 m 1,11,-1
 624 -48 l 1,12,-1
 125 772 l 1,13,-1
 631 1595 l 1,14,-1
 750 1595 l 1,15,-1
 1251 773 l 1,16,-1
 740 -48 l 1,11,-1
EndSplineSet
EndChar
